<svg xmlns="http://www.w3.org/2000/svg" xmlns:xlink="http://www.w3.org/1999/xlink" viewBox="0 0 895.5 533.17"><defs><style>.a,.ah,.al,.b,.k,.m{fill:none;}.a,.b{stroke:#fff;stroke-width:1.5px;}.a,.ah,.b,.m{stroke-linecap:round;}.a{stroke-dasharray:8 8;}.b{stroke-dasharray:8;}.c{fill:#cee2fe;}.d,.q{fill:#136efb;}.ab,.d{opacity:0.52;}.e,.o{fill:#fff;}.e{opacity:0.3;}.f{fill:#0056db;}.g{fill:#ff5256;}.h{fill:#ffb948;}.i{fill:#00c84f;}.j{opacity:0.7;}.k,.m{stroke:#81b0fc;stroke-width:2px;}.k{opacity:0.4;}.l{fill:#81b0fc;}.n{fill:#619dfc;}.p{fill:#a6c7fc;}.r{opacity:0.15;}.s{fill:#00de7e;}.t{fill:#9bd4fd;}.u{fill:#434179;}.v{fill:#007fad;}.w{fill:#f0fffd;}.x{opacity:0.5;}.y{fill:#90cdfd;}.z{clip-path:url(#e);}.aa{fill:#cce0fc;}.ab{fill:#136ef9;}.ac{fill:#0056d9;}.ad{fill:#fd5255;}.ae{fill:#fdb748;}.af{fill:#02c64f;}.ag{fill:#80aefa;}.ah{stroke:#80aefa;stroke-width:0.5px;}.ai{fill:#619bfa;}.aj{clip-path:url(#f);}.ak{stroke:none;}.am{filter:url(#c);}.an{filter:url(#a);}</style><filter id="a" x="306.077" y="174.071" width="216.047" height="102.991" filterUnits="userSpaceOnUse"><feOffset dy="13" input="SourceAlpha"/><feGaussianBlur stdDeviation="9" result="b"/><feFlood flood-opacity="0.102"/><feComposite operator="in" in2="b"/><feComposite in="SourceGraphic"/></filter><filter id="c" x="371.037" y="241.905" width="216.047" height="102.991" filterUnits="userSpaceOnUse"><feOffset dy="13" input="SourceAlpha"/><feGaussianBlur stdDeviation="9" result="d"/><feFlood flood-opacity="0.102"/><feComposite operator="in" in2="d"/><feComposite in="SourceGraphic"/></filter><clipPath id="e"><path d="M132.982,25.6,44.965,76.1,44.8,150l88.182-50.622Z" transform="translate(-44.8 -25.6)"/></clipPath><clipPath id="f"><path d="M1172.6,25.6l88.017,50.5.189,73.893L1172.6,99.375Z" transform="translate(-1172.6 -25.6)"/></clipPath></defs><g transform="translate(-877.5 -122.311)"><g transform="translate(40 18)"><path class="a" d="M-4973.855,16510.031s1.846,66,83.846,120,363.97-21.889,281.969-143.889-362-194-236-297-98-81-149-32" transform="translate(6301 -16011)"/><path class="b" d="M-5238.493,16196.128s-119.549-1-77.549,111-172,192-73,260-47.81,77.859-5.206,113.359,181.479-17.906,169.539-77.605,234.99-35.693,143.273-21.49" transform="translate(6254 -16057)"/><g transform="translate(5871.715 -14374.161)"><g transform="translate(-4571.715 14621.321)"><g transform="translate(0 0)"><rect class="c" width="378.739" height="286.409" rx="7"/><g transform="translate(0 27.322)"><path class="d" d="M0,0H53.7a0,0,0,0,1,0,0V259.088a0,0,0,0,1,0,0H7a7,7,0,0,1-7-7V0A0,0,0,0,1,0,0Z"/><g transform="translate(9.421 11.306)"><circle class="e" cx="8.95" cy="8.95" r="8.95"/><rect class="e" width="14.132" height="2.826" rx="1.413" transform="translate(0 38.628)"/><rect class="e" width="21.669" height="2.826" rx="1.413" transform="translate(0 50.875)"/><rect class="e" width="33.266" height="2.826" rx="1.413" transform="translate(0 63.123)"/><rect class="e" width="16.958" height="2.826" rx="1.413" transform="translate(0 76.313)"/><rect class="e" width="35.15" height="2.826" rx="1.413" transform="translate(0 88.561)"/><rect class="e" width="17.901" height="2.826" rx="1.413" transform="translate(0 100.809)"/><rect class="e" width="32.323" height="2.826" rx="1.413" transform="translate(0 113.056)"/></g></g><path class="f" d="M7,0H371.739a7,7,0,0,1,7,7V29.206a0,0,0,0,1,0,0H0a0,0,0,0,1,0,0V7A7,7,0,0,1,7,0Z"/><circle class="g" cx="5.197" cy="5.197" r="5.197" transform="translate(15.949 9.421)"/><circle class="h" cx="5.197" cy="5.197" r="5.197" transform="translate(32.293 9.421)"/><circle class="i" cx="5.197" cy="5.197" r="5.197" transform="translate(48.712 9.421)"/><g class="j" transform="translate(-157)"><g class="k" transform="translate(228.939 48.049)"><rect class="ak" width="130.957" height="219.518" rx="4"/><rect class="al" x="1" y="1" width="128.957" height="217.518" rx="3"/></g><circle class="l" cx="20.727" cy="20.727" r="20.727" transform="translate(254.377 65.007)"/><g transform="translate(254.377 115.883)"><rect class="l" width="64.065" height="2.826" rx="1.413" transform="translate(0)"/><rect class="l" width="80.672" height="2.826" rx="1.413" transform="translate(0 8.479)"/><rect class="l" width="64.356" height="2.826" rx="1.413" transform="translate(0 17.901)"/><rect class="l" width="76.54" height="2.826" rx="1.413" transform="translate(0 26.38)"/><rect class="l" width="63.188" height="2.826" rx="1.413" transform="translate(0 34.859)"/></g><rect class="l" width="81.024" height="20.727" rx="2" transform="translate(254.377 170.527)"/><g transform="translate(254.544 202.107)"><path class="m" d="M-4909,14668.923s13.966-8.259,25.326,1.927,18.826-10.186,27.915-1.927,11.36-12.39,18.5-7.158-2.272,22.849,8.764,22.849" transform="translate(4909 -14660.903)"/><circle class="l" cx="2.722" cy="2.722" r="2.722" transform="translate(46.961 3.687)"/><circle class="n" cx="1.512" cy="1.512" r="1.512" transform="translate(48.114 4.896)"/></g></g><g class="j"><g transform="translate(222.544 48.049)"><rect class="l" width="84.792" height="2.826" rx="1.413" transform="translate(0 84.792)"/><rect class="l" width="84.792" height="2.826" rx="1.413" transform="translate(0 130.957)"/><rect class="l" width="133.106" height="2.826" rx="1.413" transform="translate(0 94.214)"/><rect class="l" width="133.106" height="2.826" rx="1.413" transform="translate(0 140.378)"/><rect class="l" width="64.356" height="2.826" rx="1.413" transform="translate(0 103.635)"/><rect class="l" width="64.356" height="2.826" rx="1.413" transform="translate(0 148.858)"/><rect class="l" width="82.908" height="2.826" rx="1.413" transform="translate(0 112.114)"/><rect class="l" width="82.908" height="2.826" rx="1.413" transform="translate(0 158.279)"/><rect class="l" width="126.636" height="2.826" rx="1.413" transform="translate(0 121.536)"/><rect class="l" width="126.636" height="2.826" rx="1.413" transform="translate(0 167.7)"/><rect class="l" width="21.669" height="2.826" rx="1.413"/><rect class="l" width="35.801" height="2.826" rx="1.413" transform="translate(0 7.537)"/><rect class="l" width="56" height="62" rx="2" transform="translate(-0.259 15.791)"/><rect class="l" width="69" height="62" rx="2" transform="translate(63.741 15.791)"/></g></g></g></g><g transform="translate(-4981 14621.321)"><g transform="translate(0 0)"><rect class="c" width="378.739" height="286.409" rx="7"/><g transform="translate(0 27.322)"><path class="d" d="M0,0H53.7a0,0,0,0,1,0,0V259.088a0,0,0,0,1,0,0H7a7,7,0,0,1-7-7V0A0,0,0,0,1,0,0Z"/><g transform="translate(9.421 11.306)"><circle class="e" cx="8.95" cy="8.95" r="8.95"/><rect class="e" width="14.132" height="2.826" rx="1.413" transform="translate(0 38.628)"/><rect class="e" width="21.669" height="2.826" rx="1.413" transform="translate(0 50.875)"/><rect class="e" width="33.266" height="2.826" rx="1.413" transform="translate(0 63.123)"/><rect class="e" width="16.958" height="2.826" rx="1.413" transform="translate(0 76.313)"/><rect class="e" width="35.15" height="2.826" rx="1.413" transform="translate(0 88.561)"/><rect class="e" width="17.901" height="2.826" rx="1.413" transform="translate(0 100.809)"/><rect class="e" width="32.323" height="2.826" rx="1.413" transform="translate(0 113.056)"/></g></g><path class="f" d="M7,0H371.739a7,7,0,0,1,7,7V29.206a0,0,0,0,1,0,0H0a0,0,0,0,1,0,0V7A7,7,0,0,1,7,0Z"/><circle class="g" cx="5.197" cy="5.197" r="5.197" transform="translate(15.949 9.421)"/><circle class="h" cx="5.197" cy="5.197" r="5.197" transform="translate(32.293 9.421)"/><circle class="i" cx="5.197" cy="5.197" r="5.197" transform="translate(48.712 9.421)"/><g class="j" transform="translate(-157)"><g class="k" transform="translate(228.939 48.049)"><rect class="ak" width="130.957" height="219.518" rx="4"/><rect class="al" x="1" y="1" width="128.957" height="217.518" rx="3"/></g><circle class="l" cx="20.727" cy="20.727" r="20.727" transform="translate(254.377 65.007)"/><g transform="translate(254.377 115.883)"><rect class="l" width="64.065" height="2.826" rx="1.413" transform="translate(0)"/><rect class="l" width="80.672" height="2.826" rx="1.413" transform="translate(0 8.479)"/><rect class="l" width="64.356" height="2.826" rx="1.413" transform="translate(0 17.901)"/><rect class="l" width="76.54" height="2.826" rx="1.413" transform="translate(0 26.38)"/><rect class="l" width="63.188" height="2.826" rx="1.413" transform="translate(0 34.859)"/></g><rect class="l" width="81.024" height="20.727" rx="2" transform="translate(254.377 170.527)"/><g transform="translate(254.544 202.107)"><path class="m" d="M-4909,14668.923s13.966-8.259,25.326,1.927,18.826-10.186,27.915-1.927,11.36-12.39,18.5-7.158-2.272,22.849,8.764,22.849" transform="translate(4909 -14660.903)"/><circle class="l" cx="2.722" cy="2.722" r="2.722" transform="translate(46.961 3.687)"/><circle class="n" cx="1.512" cy="1.512" r="1.512" transform="translate(48.114 4.896)"/></g></g><g class="j"><g transform="translate(222.544 48.049)"><rect class="l" width="84.792" height="2.826" rx="1.413" transform="translate(0 84.792)"/><rect class="l" width="84.792" height="2.826" rx="1.413" transform="translate(0 130.957)"/><rect class="l" width="133.106" height="2.826" rx="1.413" transform="translate(0 94.214)"/><rect class="l" width="133.106" height="2.826" rx="1.413" transform="translate(0 140.378)"/><rect class="l" width="64.356" height="2.826" rx="1.413" transform="translate(0 103.635)"/><rect class="l" width="64.356" height="2.826" rx="1.413" transform="translate(0 148.858)"/><rect class="l" width="82.908" height="2.826" rx="1.413" transform="translate(0 112.114)"/><rect class="l" width="82.908" height="2.826" rx="1.413" transform="translate(0 158.279)"/><rect class="l" width="126.636" height="2.826" rx="1.413" transform="translate(0 121.536)"/><rect class="l" width="126.636" height="2.826" rx="1.413" transform="translate(0 167.7)"/><rect class="l" width="21.669" height="2.826" rx="1.413"/><rect class="l" width="35.801" height="2.826" rx="1.413" transform="translate(0 7.537)"/><rect class="l" width="56" height="62" rx="2" transform="translate(-0.259 15.791)"/><rect class="l" width="69" height="62" rx="2" transform="translate(63.741 15.791)"/></g></g></g></g><g transform="translate(-4725.681 14666.543)"><g transform="translate(0 0)"><g class="an" transform="matrix(1, 0, 0, 1, -308.53, -188.07)"><path class="o" d="M6,0H156.047a6,6,0,0,1,6,6V42.991a6,6,0,0,1-6,6H0a0,0,0,0,1,0,0V6A6,6,0,0,1,6,0Z" transform="translate(333.08 188.07)"/></g><circle class="o" cx="9.415" cy="9.415" r="9.415" transform="translate(0 30.366)"/><g transform="translate(36.791 12.248)"><rect class="p" width="137.552" height="4.711" rx="2.355" transform="translate(0)"/><rect class="p" width="98.924" height="4.711" rx="2.355" transform="translate(0 10.364)"/><rect class="p" width="117.767" height="4.711" rx="2.355" transform="translate(0 20.727)"/></g></g><g transform="translate(276.094 116.825) rotate(180)"><g class="am" transform="matrix(-1, 0, 0, -1, 584.63, 304.9)"><path class="o" d="M0,0H156.047a6,6,0,0,1,6,6V42.991a6,6,0,0,1-6,6H6a6,6,0,0,1-6-6V0A0,0,0,0,1,0,0Z" transform="translate(560.08 304.9) rotate(180)"/></g><circle class="o" cx="9.415" cy="9.415" r="9.415" transform="translate(0 0.013)"/><g transform="translate(174.343 37.481) rotate(180)"><rect class="p" width="137.552" height="4.711" rx="2.355" transform="translate(0 0)"/><rect class="p" width="98.924" height="4.711" rx="2.355" transform="translate(0 10.364)"/><rect class="p" width="117.767" height="4.711" rx="2.355" transform="translate(0 20.727)"/></g></g></g></g><g transform="translate(1285.035 134.074) rotate(33)"><path class="o" d="M9.421,1.163a1.267,1.267,0,0,1,1.28.678l3.691,6.779L20.87.485A1.311,1.311,0,0,1,22.677.259l3.013,2.41a1.311,1.311,0,0,1,.226,1.808L19.74,12.235l8.511,2.485a1.2,1.2,0,0,1,.753.6,1.07,1.07,0,0,1,.151.452,1.266,1.266,0,0,1-.678,1.28L1.89,31.591a1.251,1.251,0,0,1-1.431-.151.752.752,0,0,1-.3-.377,1.126,1.126,0,0,1-.075-.979L8.292,2.067A1.416,1.416,0,0,1,9.421,1.163Z" transform="translate(3.595 3.736) rotate(-23)"/></g><g transform="translate(1018.855 124.146) rotate(21)"><path class="o" d="M233.222,117.247a1.414,1.414,0,0,1-.828-1.205V108.36l-9.565,4.067a1.248,1.248,0,0,1-1.657-.678l-1.506-3.54a1.248,1.248,0,0,1,.678-1.657l9.113-3.841-6.327-6.327a1.247,1.247,0,0,1-.377-.9c0-.151.075-.377.075-.452a1.414,1.414,0,0,1,1.205-.828h30.353a1.291,1.291,0,0,1,1.205.828.956.956,0,0,1,.075.452,1.247,1.247,0,0,1-.377.9l-20.637,20.637A1.414,1.414,0,0,1,233.222,117.247Z" transform="translate(-219.559 -94.2)"/></g><g transform="translate(1230.627 112.31)"><path class="o" d="M0,0H65.95A12.248,12.248,0,0,1,78.2,12.248v0A12.248,12.248,0,0,1,65.95,24.5h-53.7A12.248,12.248,0,0,1,0,12.248V0A0,0,0,0,1,0,0Z" transform="translate(72.57 24.186) rotate(180)"/><path class="q" d="M-20.708-.549l3.456-8.8h-1.754L-21.67-2.238l-2.664-7.109h-1.754l3.456,8.8Zm5.949,0v-8.8H-16.3v8.8Zm4.893.158c2.361,0,3.4-1.266,3.4-2.73,0-3.271-5.118-2.255-5.118-3.9,0-.646.58-1.095,1.477-1.095A3.586,3.586,0,0,1-7.544-7.1l.871-1.148a4.554,4.554,0,0,0-3.284-1.24c-1.939,0-3.205,1.121-3.205,2.585,0,3.232,5.118,2.084,5.118,3.931,0,.594-.488,1.213-1.754,1.213a3.78,3.78,0,0,1-2.783-1.227l-.871,1.2A4.809,4.809,0,0,0-9.865-.391Zm6.358-.158v-8.8H-5.051v8.8Zm5.513,0V-7.988H4.67V-9.347H-2.2v1.359H.462V-.549Zm7.756.158a4.372,4.372,0,0,0,4.5-4.551,4.372,4.372,0,0,0-4.5-4.551,4.365,4.365,0,0,0-4.5,4.551A4.365,4.365,0,0,0,9.761-.391Zm0-1.372A2.921,2.921,0,0,1,6.846-4.941,2.914,2.914,0,0,1,9.761-8.12a2.922,2.922,0,0,1,2.915,3.179A2.929,2.929,0,0,1,9.761-1.763ZM22.555-.549,20.392-4a2.476,2.476,0,0,0,2.1-2.585A2.674,2.674,0,0,0,19.6-9.347H15.736v8.8h1.543V-3.834h1.543L20.762-.549ZM19.4-5.192H17.279v-2.8H19.4a1.377,1.377,0,0,1,1.5,1.385A1.39,1.39,0,0,1,19.4-5.192Z" transform="translate(34.462 17.183)"/></g><g transform="translate(941.697 105.235)"><path class="o" d="M12.248,0H61.239A12.248,12.248,0,0,1,73.487,12.248V24.5a0,0,0,0,1,0,0H12.248A12.248,12.248,0,0,1,0,12.248v0A12.248,12.248,0,0,1,12.248,0Z" transform="translate(0 0)"/><path class="q" d="M-13.738-.549l-3.456-8.8h-1.926l-3.456,8.8h1.754l.646-1.7h4.036l.646,1.7Zm-2.836-3.06h-3.166L-18.156-7.8ZM-9.016-.378A4.753,4.753,0,0,0-5.4-1.987V-5.271H-9.57v1.359h2.638v1.359a3.157,3.157,0,0,1-2.084.791,3.021,3.021,0,0,1-3.034-3.179A3.006,3.006,0,0,1-9.016-8.12,2.839,2.839,0,0,1-6.734-6.946l1.253-.725a4.116,4.116,0,0,0-3.535-1.82,4.422,4.422,0,0,0-4.616,4.551A4.441,4.441,0,0,0-9.016-.378ZM2.235-.549V-1.908H-2.249V-4.361H2.143V-5.72H-2.249V-7.988H2.235V-9.347H-3.793v8.8Zm9.207,0v-8.8H9.9v6.094L5.4-9.347H3.818v8.8H5.361V-6.841L9.951-.549Zm5.513,0V-7.988H19.62V-9.347H12.748v1.359h2.664V-.549Z" transform="translate(38.592 17.029)"/></g></g><g transform="translate(877.5 438.826)"><g transform="translate(0 0)"><g class="r" transform="translate(9.785 96.698)"><path d="M204.165,447.923l-63.779-36.805a9.64,9.64,0,0,0-8.724,0l-88.37,51.353c-2.4,1.391-2.381,3.655.024,5.046l63.779,36.805a9.64,9.64,0,0,0,8.724,0l88.37-51.353c2.4-1.368,2.381-3.631-.024-5.046" transform="translate(-41.5 -410.075)"/></g><g transform="translate(0 90.615)"><path class="s" d="M80.095,491.914a10.657,10.657,0,0,1-5.164-1.25l-66.679-38.5-5.777-3.419A4.374,4.374,0,0,1,0,445.065a4.313,4.313,0,0,1,2.452-3.655L94.878,387.7a7.411,7.411,0,0,1,.872-.424l2.994-1.745a11.2,11.2,0,0,1,10.3,0l66.679,38.526,5.777,3.419a3.942,3.942,0,0,1,.024,7.309L89.078,488.519l-3.843,2.146A10.5,10.5,0,0,1,80.095,491.914Zm23.79-105.275a7.941,7.941,0,0,0-3.961.943l-3.183,1.839a4.284,4.284,0,0,0-.66.306L3.655,443.438c-.825.472-1.3,1.061-1.3,1.627s.472,1.155,1.32,1.65l5.753,3.419,66.679,38.5a8.889,8.889,0,0,0,7.946,0l3.867-2.169,92.426-53.711c.825-.472,1.3-1.061,1.3-1.627s-.472-1.155-1.32-1.65l-5.777-3.419-66.679-38.479A8.36,8.36,0,0,0,103.885,386.639Z" transform="translate(0 -384.275)"/></g><path class="t" d="M20.438,49.48,105.059,1a7.461,7.461,0,0,1,5.211-.9c2.4.542,4.645,1.3,4.645,3.4l.118,78.656-7.451,4.409c2.429,1.179,76.723,37.347,76.841,37.418l.189,3.042a3.662,3.662,0,0,1-1.816,3.183c-12.661,7.333-86.72,50.15-86.72,50.15a7.837,7.837,0,0,1-7.875,0l-70.4-40.7a2.366,2.366,0,0,1-1.179-2.051L16.5,56.294A7.873,7.873,0,0,1,20.438,49.48Z" transform="translate(-12.61 0.044)"/><g transform="translate(6.366 1.077)"><path class="u" d="M27,140.823l96.128-54.842.189-78.491a2.95,2.95,0,0,0-4.409-2.57L30.254,55.707a6.261,6.261,0,0,0-3.136,5.376Z" transform="translate(-27 -4.525)"/><path class="v" d="M132.982,25.6,44.965,76.1,44.8,150l88.182-50.622Z" transform="translate(-40.603 -20.631)"/></g><g transform="translate(6.413 81.967)"><path class="w" d="M27.2,403.008,123.28,347.6l67.952,39.281a2.943,2.943,0,0,1,0,5.093l-88.441,51.117a6.243,6.243,0,0,1-6.225,0Z" transform="translate(-27.2 -347.6)"/></g><g class="x" transform="translate(23.389 91.729)"><path class="y" d="M108.82,580.935c-1.91,1.108-2.877,1.65-4.786,2.759-1.933-1.085-2.9-1.65-4.834-2.735,1.91-1.108,2.877-1.651,4.786-2.759C105.92,579.308,106.886,579.85,108.82,580.935Z" transform="translate(-99.2 -533.591)"/><path class="y" d="M138.82,563.735c-1.91,1.108-2.877,1.65-4.786,2.759-1.933-1.085-2.9-1.65-4.833-2.735,1.91-1.108,2.877-1.651,4.786-2.759C135.92,562.108,136.886,562.65,138.82,563.735Z" transform="translate(-122.127 -520.446)"/><path class="y" d="M168.72,546.535c-1.91,1.108-2.877,1.65-4.786,2.759-1.933-1.085-2.9-1.65-4.833-2.735,1.91-1.108,2.877-1.65,4.786-2.759C165.82,544.908,166.786,545.45,168.72,546.535Z" transform="translate(-144.977 -507.301)"/><path class="y" d="M198.72,529.335c-1.91,1.108-2.877,1.65-4.786,2.759-1.933-1.085-2.9-1.65-4.833-2.735,1.91-1.108,2.877-1.65,4.786-2.759C195.82,527.708,196.786,528.25,198.72,529.335Z" transform="translate(-167.903 -494.157)"/><path class="y" d="M228.62,512.135c-1.91,1.108-2.877,1.651-4.786,2.759-1.933-1.085-2.9-1.65-4.833-2.735,1.91-1.108,2.877-1.65,4.786-2.759C225.72,510.508,226.686,511.05,228.62,512.135Z" transform="translate(-190.754 -481.012)"/><path class="y" d="M258.62,494.935c-1.91,1.108-2.877,1.65-4.786,2.759-1.933-1.085-2.9-1.65-4.833-2.735,1.91-1.108,2.877-1.65,4.786-2.759C255.72,493.308,256.686,493.85,258.62,494.935Z" transform="translate(-213.68 -467.868)"/><path class="y" d="M288.52,477.735c-1.91,1.108-2.877,1.65-4.786,2.759-1.933-1.085-2.9-1.65-4.833-2.735,1.91-1.108,2.877-1.65,4.786-2.759C285.62,476.108,286.586,476.65,288.52,477.735Z" transform="translate(-236.53 -454.723)"/><path class="y" d="M318.52,460.535c-1.91,1.108-2.877,1.651-4.786,2.759-1.933-1.085-2.9-1.65-4.833-2.735,1.91-1.108,2.877-1.65,4.786-2.759C315.62,458.908,316.586,459.45,318.52,460.535Z" transform="translate(-259.457 -441.578)"/><path class="y" d="M348.42,443.335c-1.91,1.108-2.877,1.65-4.786,2.759-1.933-1.085-2.9-1.65-4.833-2.735,1.91-1.108,2.877-1.65,4.786-2.759C345.52,441.708,346.486,442.25,348.42,443.335Z" transform="translate(-282.307 -428.434)"/><path class="y" d="M378.42,426.135c-1.91,1.108-2.877,1.65-4.786,2.759-1.933-1.085-2.9-1.65-4.833-2.735,1.91-1.108,2.877-1.65,4.786-2.759C375.52,424.508,376.486,425.05,378.42,426.135Z" transform="translate(-305.234 -415.289)"/><path class="y" d="M408.32,408.935c-1.91,1.108-2.877,1.65-4.786,2.759-1.933-1.085-2.9-1.65-4.833-2.735,1.91-1.108,2.877-1.65,4.786-2.759C405.42,407.308,406.386,407.85,408.32,408.935Z" transform="translate(-328.084 -402.145)"/><path class="y" d="M438.32,391.759c-1.91,1.108-2.876,1.65-4.786,2.735-1.933-1.085-2.9-1.65-4.833-2.735,1.91-1.108,2.877-1.65,4.786-2.759C435.42,390.108,436.386,390.65,438.32,391.759Z" transform="translate(-351.01 -389)"/><path class="y" d="M137.62,597.235c-1.91,1.108-2.877,1.65-4.786,2.759-1.933-1.085-2.9-1.65-4.833-2.735,1.91-1.108,2.877-1.65,4.786-2.759C134.72,595.585,135.686,596.15,137.62,597.235Z" transform="translate(-121.21 -546.047)"/><path class="y" d="M167.62,580.035c-1.91,1.108-2.877,1.651-4.786,2.759-1.933-1.085-2.9-1.65-4.834-2.735,1.91-1.108,2.877-1.65,4.786-2.759C164.72,578.385,165.686,578.951,167.62,580.035Z" transform="translate(-144.136 -532.903)"/><path class="y" d="M197.52,562.835c-1.91,1.108-2.877,1.65-4.786,2.759-1.933-1.085-2.9-1.65-4.833-2.735,1.91-1.108,2.877-1.65,4.786-2.759C194.62,561.185,195.586,561.75,197.52,562.835Z" transform="translate(-166.986 -519.758)"/><path class="y" d="M227.52,545.635c-1.91,1.108-2.877,1.65-4.786,2.759-1.933-1.085-2.9-1.65-4.833-2.735,1.91-1.108,2.877-1.651,4.786-2.759C224.62,544.008,225.586,544.55,227.52,545.635Z" transform="translate(-189.913 -506.614)"/><path class="y" d="M257.42,528.435c-1.91,1.108-2.877,1.651-4.786,2.759-1.933-1.085-2.9-1.65-4.833-2.735,1.91-1.108,2.877-1.651,4.786-2.759C254.52,526.808,255.486,527.35,257.42,528.435Z" transform="translate(-212.763 -493.469)"/><path class="y" d="M287.42,511.235c-1.91,1.108-2.877,1.65-4.786,2.759-1.933-1.085-2.9-1.65-4.833-2.735,1.91-1.108,2.877-1.65,4.786-2.759C284.52,509.608,285.486,510.15,287.42,511.235Z" transform="translate(-235.69 -480.324)"/><path class="y" d="M317.32,494.035c-1.91,1.108-2.877,1.65-4.786,2.759-1.933-1.085-2.9-1.65-4.833-2.735,1.91-1.108,2.877-1.65,4.786-2.759C314.42,492.408,315.386,492.95,317.32,494.035Z" transform="translate(-258.54 -467.18)"/><path class="y" d="M347.32,476.835c-1.91,1.108-2.877,1.65-4.786,2.759-1.933-1.085-2.9-1.65-4.834-2.735,1.91-1.108,2.877-1.65,4.786-2.759C344.42,475.208,345.386,475.75,347.32,476.835Z" transform="translate(-281.466 -454.035)"/><path class="y" d="M377.22,459.635c-1.91,1.108-2.876,1.65-4.786,2.759-1.933-1.085-2.9-1.65-4.833-2.735,1.91-1.108,2.876-1.65,4.786-2.759C374.32,458.008,375.286,458.55,377.22,459.635Z" transform="translate(-304.317 -440.891)"/><path class="y" d="M407.22,442.435c-1.91,1.108-2.876,1.65-4.786,2.759-1.933-1.085-2.9-1.65-4.833-2.735,1.91-1.108,2.877-1.65,4.786-2.759C404.32,440.808,405.286,441.35,407.22,442.435Z" transform="translate(-327.243 -427.746)"/><path class="y" d="M437.12,425.235c-1.91,1.108-2.877,1.65-4.786,2.759-1.933-1.085-2.9-1.65-4.834-2.735,1.91-1.108,2.877-1.65,4.786-2.759C434.22,423.608,435.186,424.15,437.12,425.235Z" transform="translate(-350.093 -414.601)"/><path class="y" d="M456.65,408.035l-8.016,4.6c-1.933-1.085-2.9-1.65-4.833-2.735l8.016-4.6C453.726,406.408,454.693,406.95,456.65,408.035Z" transform="translate(-362.55 -401.457)"/><path class="y" d="M169.579,605.835c-3.183,1.815-4.763,2.735-7.946,4.551-1.933-1.085-2.9-1.65-4.833-2.735,3.183-1.815,4.763-2.735,7.946-4.55C166.679,604.185,167.646,604.727,169.579,605.835Z" transform="translate(-143.219 -552.62)"/><path class="y" d="M196.42,596.335c-1.91,1.108-2.877,1.651-4.786,2.759-1.933-1.085-2.9-1.65-4.833-2.735,1.91-1.108,2.877-1.65,4.786-2.759C193.5,594.685,194.486,595.227,196.42,596.335Z" transform="translate(-166.146 -545.36)"/><path class="y" d="M226.32,579.135c-1.91,1.108-2.877,1.65-4.786,2.759-1.933-1.085-2.9-1.65-4.833-2.735,1.91-1.108,2.877-1.65,4.786-2.759C223.42,577.485,224.386,578.027,226.32,579.135Z" transform="translate(-188.996 -532.215)"/><path class="y" d="M256.32,561.935c-1.91,1.108-2.877,1.65-4.786,2.759-1.933-1.085-2.9-1.65-4.833-2.735,1.91-1.108,2.877-1.65,4.786-2.759C253.4,560.285,254.363,560.827,256.32,561.935Z" transform="translate(-211.922 -519.07)"/><path class="y" d="M286.22,544.735c-1.91,1.108-2.877,1.651-4.786,2.759-1.933-1.085-2.9-1.65-4.833-2.735,1.91-1.108,2.877-1.65,4.786-2.759C283.32,543.085,284.286,543.627,286.22,544.735Z" transform="translate(-234.773 -505.926)"/><path class="y" d="M316.22,527.535c-1.91,1.108-2.877,1.65-4.786,2.759-1.933-1.085-2.9-1.65-4.833-2.735,1.91-1.108,2.877-1.65,4.786-2.759C313.3,525.885,314.263,526.451,316.22,527.535Z" transform="translate(-257.699 -492.781)"/><path class="y" d="M346.12,510.335c-1.91,1.108-2.876,1.65-4.786,2.759-1.933-1.085-2.9-1.65-4.833-2.735,1.91-1.108,2.877-1.65,4.786-2.759C343.22,508.685,344.186,509.25,346.12,510.335Z" transform="translate(-280.549 -479.637)"/><path class="y" d="M376.12,493.135c-1.91,1.108-2.876,1.65-4.786,2.759-1.933-1.085-2.9-1.65-4.833-2.735,1.91-1.108,2.877-1.65,4.786-2.759C373.2,491.485,374.163,492.05,376.12,493.135Z" transform="translate(-303.476 -466.492)"/><path class="y" d="M406.02,475.935c-1.91,1.108-2.876,1.65-4.786,2.759-1.933-1.085-2.9-1.65-4.833-2.735,1.91-1.108,2.877-1.65,4.786-2.759C403.12,474.285,404.086,474.85,406.02,475.935Z" transform="translate(-326.326 -453.347)"/><path class="y" d="M436.02,458.735c-1.91,1.108-2.877,1.65-4.786,2.759-1.933-1.085-2.9-1.65-4.833-2.735,1.91-1.108,2.877-1.65,4.786-2.759C433.1,457.085,434.063,457.65,436.02,458.735Z" transform="translate(-349.253 -440.203)"/><path class="y" d="M465.92,441.535c-1.91,1.108-2.877,1.65-4.786,2.759-1.933-1.085-2.9-1.65-4.833-2.735,1.91-1.108,2.877-1.65,4.786-2.759C463.02,439.885,463.986,440.45,465.92,441.535Z" transform="translate(-372.103 -427.058)"/><path class="y" d="M495.82,424.411c-1.91,1.108-2.877,1.65-4.786,2.759-1.933-1.085-2.9-1.65-4.833-2.735,1.91-1.108,2.877-1.65,4.786-2.735C492.92,422.761,493.886,423.327,495.82,424.411Z" transform="translate(-394.953 -413.99)"/><path class="y" d="M195.22,629.835c-1.91,1.108-2.877,1.65-4.786,2.759-1.933-1.085-2.9-1.65-4.833-2.735,1.91-1.108,2.877-1.651,4.786-2.759C192.32,628.185,193.286,628.727,195.22,629.835Z" transform="translate(-165.229 -570.961)"/><path class="y" d="M225.12,612.635c-1.91,1.108-2.877,1.651-4.786,2.759-1.933-1.085-2.9-1.65-4.833-2.735,1.91-1.108,2.877-1.65,4.786-2.759C222.22,610.985,223.186,611.527,225.12,612.635Z" transform="translate(-188.079 -557.816)"/><path class="y" d="M255.12,595.435c-1.91,1.108-2.877,1.65-4.786,2.759-1.933-1.085-2.9-1.65-4.833-2.735,1.91-1.108,2.877-1.65,4.786-2.759C252.22,593.785,253.186,594.327,255.12,595.435Z" transform="translate(-211.005 -544.672)"/><path class="y" d="M285.02,578.235c-1.91,1.108-2.877,1.65-4.786,2.759-1.933-1.085-2.9-1.65-4.833-2.735,1.91-1.108,2.877-1.65,4.786-2.759C282.12,576.585,283.086,577.127,285.02,578.235Z" transform="translate(-233.856 -531.527)"/><path class="y" d="M315.02,561.035c-1.91,1.108-2.876,1.651-4.786,2.759-1.933-1.085-2.9-1.65-4.833-2.735,1.91-1.108,2.877-1.651,4.786-2.759C312.12,559.385,313.086,559.927,315.02,561.035Z" transform="translate(-256.782 -518.383)"/><path class="y" d="M344.92,543.835c-1.91,1.108-2.877,1.65-4.786,2.759-1.933-1.085-2.9-1.65-4.833-2.735,1.91-1.108,2.876-1.65,4.786-2.759C342.02,542.185,342.986,542.727,344.92,543.835Z" transform="translate(-279.632 -505.238)"/><path class="y" d="M374.92,526.635c-1.91,1.108-2.877,1.65-4.786,2.759-1.933-1.085-2.9-1.65-4.833-2.735,1.91-1.108,2.877-1.65,4.786-2.759C372.02,524.985,372.986,525.527,374.92,526.635Z" transform="translate(-302.559 -492.093)"/><path class="y" d="M404.82,509.435c-1.91,1.108-2.877,1.65-4.786,2.759-1.933-1.085-2.9-1.65-4.833-2.735,1.91-1.108,2.877-1.65,4.786-2.759C401.92,507.785,402.886,508.327,404.82,509.435Z" transform="translate(-325.409 -478.949)"/><path class="y" d="M434.82,492.235c-1.91,1.108-2.877,1.65-4.786,2.759-1.933-1.085-2.9-1.65-4.833-2.735,1.91-1.108,2.877-1.65,4.786-2.759C431.92,490.585,432.886,491.127,434.82,492.235Z" transform="translate(-348.336 -465.804)"/><path class="y" d="M464.72,475.035c-1.91,1.108-2.877,1.65-4.786,2.759-1.933-1.085-2.9-1.65-4.833-2.735,1.91-1.108,2.876-1.65,4.786-2.759C461.82,473.385,462.786,473.927,464.72,475.035Z" transform="translate(-371.186 -452.66)"/><path class="y" d="M497.761,450.335c-3.136,1.792-4.692,2.688-7.828,4.5-1.933-1.085-2.9-1.65-4.833-2.735,3.136-1.792,4.692-2.688,7.828-4.5C494.861,448.708,495.828,449.25,497.761,450.335Z" transform="translate(-394.112 -433.783)"/><path class="y" d="M524.62,440.711c-1.91,1.108-2.877,1.65-4.786,2.759-1.933-1.085-2.9-1.65-4.834-2.735,1.91-1.108,2.877-1.65,4.786-2.735C521.72,439.061,522.686,439.6,524.62,440.711Z" transform="translate(-416.963 -426.447)"/><path class="y" d="M228.02,648.335c-1.91,1.108-2.877,1.651-4.786,2.759-1.933-1.085-2.9-1.651-4.833-2.735,1.91-1.108,2.877-1.65,4.786-2.759C225.12,646.685,226.086,647.227,228.02,648.335Z" transform="translate(-190.295 -585.099)"/><path class="y" d="M257.92,631.135c-1.91,1.108-2.876,1.651-4.786,2.759-1.933-1.085-2.9-1.651-4.833-2.735,1.91-1.108,2.877-1.65,4.786-2.759C255.02,629.485,255.986,630.027,257.92,631.135Z" transform="translate(-213.145 -571.955)"/><path class="y" d="M287.92,613.935c-1.91,1.108-2.877,1.651-4.786,2.759-1.933-1.085-2.9-1.65-4.833-2.735,1.91-1.108,2.877-1.651,4.786-2.759C285.02,612.285,285.986,612.827,287.92,613.935Z" transform="translate(-236.072 -558.81)"/><path class="y" d="M353.216,510.735q-20.053,11.494-40.083,23.012c-1.933-1.085-2.9-1.65-4.833-2.735Q328.353,519.518,348.383,508C350.316,509.085,351.283,509.65,353.216,510.735Z" transform="translate(-258.998 -479.942)"/><path class="y" d="M497.52,493.535c-1.91,1.108-2.876,1.65-4.786,2.759-1.933-1.085-2.9-1.65-4.833-2.735,1.91-1.108,2.876-1.65,4.786-2.759C494.62,491.885,495.586,492.45,497.52,493.535Z" transform="translate(-396.252 -466.798)"/><path class="y" d="M527.52,476.335c-1.91,1.108-2.877,1.65-4.786,2.759-1.933-1.085-2.9-1.65-4.833-2.735,1.91-1.108,2.877-1.65,4.786-2.759C524.62,474.685,525.586,475.25,527.52,476.335Z" transform="translate(-419.179 -453.653)"/><path class="y" d="M557.42,459.059c-1.91,1.108-2.876,1.65-4.786,2.735-1.933-1.085-2.9-1.65-4.833-2.735,1.91-1.108,2.877-1.65,4.786-2.759C554.52,457.408,555.486,457.974,557.42,459.059Z" transform="translate(-442.029 -440.432)"/><path class="y" d="M359.8,563.927,392.762,544.9,411.6,556.5l-32.938,19.027Z" transform="translate(-298.356 -508.142)"/></g><g transform="translate(10.563 6.046)"><g class="z"><path class="aa" d="M45.3,74.6l88.135-50.9V90.378L45.3,141.259Z" transform="translate(-45.182 -24.148)"/><path class="aa" d="M45.3,115.6l88.135-50.9v66.678L45.3,182.259Z" transform="translate(-45.182 -55.481)"/><g transform="translate(0.118 49.59)"><path class="ab" d="M45.3,215.815v69.979l12.5-7.215V208.6Z" transform="translate(-45.3 -208.6)"/><g transform="translate(1.378 6.328)"><ellipse class="e" cx="2.759" cy="1.556" rx="2.759" ry="1.556" transform="matrix(0.601, -0.799, 0.799, 0.601, 0, 4.409)"/><path class="e" d="M45.43,265.956l2.641-1.509c.189-.094.33-.047.33.141h0a.64.64,0,0,1-.33.519l-2.641,1.509c-.189.094-.33.047-.33-.141h0A.794.794,0,0,1,45.43,265.956Z" transform="translate(-44.304 -254.906)"/><path class="e" d="M45.43,274.77l4.386-2.523c.189-.094.33-.047.33.142h0a.64.64,0,0,1-.33.519L45.43,275.43c-.189.094-.33.047-.33-.141h0A.794.794,0,0,1,45.43,274.77Z" transform="translate(-44.304 -260.867)"/><path class="e" d="M45.43,281.826l7.073-4.079c.189-.094.33-.047.33.141h0a.64.64,0,0,1-.33.519l-7.073,4.079c-.189.094-.33.047-.33-.141h0A.794.794,0,0,1,45.43,281.826Z" transform="translate(-44.304 -265.07)"/><path class="e" d="M45.43,301.857l3.3-1.91c.189-.094.33-.047.33.141h0a.64.64,0,0,1-.33.519l-3.3,1.91c-.189.094-.33.047-.33-.141h0A.794.794,0,0,1,45.43,301.857Z" transform="translate(-44.304 -282.036)"/><path class="e" d="M45.43,306.085l7.521-4.338c.189-.094.33-.047.33.141h0a.64.64,0,0,1-.33.519l-7.521,4.338c-.189.094-.33.047-.33-.141h0A.794.794,0,0,1,45.43,306.085Z" transform="translate(-44.304 -283.411)"/><path class="e" d="M45.43,325.675l3.513-2.028c.189-.094.33-.047.33.141h0a.64.64,0,0,1-.33.519l-3.513,2.028c-.189.094-.33.047-.33-.141h0A.794.794,0,0,1,45.43,325.675Z" transform="translate(-44.304 -300.148)"/><path class="e" d="M45.43,331.508l6.861-3.961c.189-.094.33-.047.33.141h0a.64.64,0,0,1-.33.519l-6.861,3.961c-.189.094-.33.047-.33-.141h0A.743.743,0,0,1,45.43,331.508Z" transform="translate(-44.304 -303.128)"/></g></g><g transform="translate(0.118 -0.448)"><path class="ac" d="M133.435,30.514,45.3,81.4V74.6l88.135-50.9Z" transform="translate(-45.3 -23.7)"/><ellipse class="ad" cx="1.603" cy="0.92" rx="1.603" ry="0.92" transform="matrix(0.601, -0.799, 0.799, 0.601, 3.217, 52.2)"/><ellipse class="ae" cx="1.603" cy="0.92" rx="1.603" ry="0.92" transform="matrix(0.601, -0.799, 0.799, 0.601, 7.014, 49.979)"/><ellipse class="af" cx="1.603" cy="0.92" rx="1.603" ry="0.92" transform="matrix(0.601, -0.799, 0.799, 0.601, 10.845, 47.782)"/></g><g transform="translate(16.835 34.798)"><g transform="translate(0)"><path class="ag" d="M273.789,241.024a.653.653,0,0,1-.307-.071.593.593,0,0,1-.283-.566V191.157a1.633,1.633,0,0,1,.825-1.3l28.624-16.528a.744.744,0,0,1,.755-.071.593.593,0,0,1,.283.566v49.231a1.633,1.633,0,0,1-.825,1.3l-28.624,16.528A.776.776,0,0,1,273.789,241.024Zm.472-50.763a1.252,1.252,0,0,0-.589.9v49.231a.224.224,0,0,0,.047.165.344.344,0,0,0,.306-.071l28.624-16.528a1.253,1.253,0,0,0,.589-.9V173.827a.224.224,0,0,0-.047-.165.345.345,0,0,0-.307.071Z" transform="translate(-273.2 -173.187)"/></g><ellipse class="ag" cx="6.413" cy="3.631" rx="6.413" ry="3.631" transform="matrix(0.601, -0.799, 0.799, 0.601, 3.999, 22.685)"/><g transform="translate(5.936 20.818)"><path class="ag" d="M44.33,154.976l14.265-8.229c.189-.094.33-.047.33.141h0a.64.64,0,0,1-.33.519L44.33,155.636c-.189.094-.33.047-.33-.141h0A.64.64,0,0,1,44.33,154.976Z" transform="translate(-44 -146.441)"/><path class="ag" d="M44.33,156.116l18.108-10.469c.189-.094.33-.047.33.141h0a.64.64,0,0,1-.33.519L44.33,156.776c-.189.094-.33.047-.33-.141h0A.64.64,0,0,1,44.33,156.116Z" transform="translate(-44 -145.6)"/><path class="ag" d="M44.33,172.523l14.312-8.276c.189-.094.33-.047.33.141h0a.64.64,0,0,1-.33.519L44.33,173.183c-.189.094-.33.047-.33-.141h0A.64.64,0,0,1,44.33,172.523Z" transform="translate(-44 -159.814)"/><path class="ag" d="M44.33,175.55l17.165-9.9c.189-.094.33-.047.33.141h0a.64.64,0,0,1-.33.519l-17.165,9.9c-.189.094-.33.047-.33-.141h0A.714.714,0,0,1,44.33,175.55Z" transform="translate(-44 -160.884)"/><path class="ag" d="M44.33,189.758l14.052-8.111c.189-.094.33-.047.33.141h0a.64.64,0,0,1-.33.519L44.33,190.418c-.189.094-.33.047-.33-.141h0A.64.64,0,0,1,44.33,189.758Z" transform="translate(-44 -173.112)"/></g><path class="ag" d="M298.772,317.518l17.919-10.351c.259-.141.472-.071.472.189v3.89a.947.947,0,0,1-.472.731l-17.919,10.351c-.259.141-.472.071-.472-.189v-3.89A1.086,1.086,0,0,1,298.772,317.518Z" transform="translate(-292.382 -275.523)"/><g transform="translate(5.976 40.148)"><path class="ah" d="M44,152.663s3.254-3.8,5.895-2.947,4.386-4.9,6.508-4.2,2.641-4.409,4.315-4.15-.519,5.612,2.051,4.15" transform="translate(-44 -141.359)"/><ellipse class="ag" cx="0.849" cy="0.472" rx="0.849" ry="0.472" transform="matrix(0.601, -0.799, 0.799, 0.601, 10.671, 4.655)"/><ellipse class="ai" cx="0.472" cy="0.259" rx="0.472" ry="0.259" transform="matrix(0.601, -0.799, 0.799, 0.601, 11.056, 4.474)"/></g></g><g transform="translate(51.835 17.788)"><g transform="translate(0 0)"><path class="ag" d="M42.73,159.158,61.8,148.147c.189-.094.33-.047.33.141h0a.64.64,0,0,1-.33.519L42.73,159.818c-.189.094-.33.047-.33-.141h0A.714.714,0,0,1,42.73,159.158Z" transform="translate(-42.329 -125.677)"/><path class="ag" d="M42.73,204.758,61.8,193.747c.189-.094.33-.047.33.141h0a.64.64,0,0,1-.33.519L42.73,205.418c-.189.094-.33.047-.33-.141h0A.64.64,0,0,1,42.73,204.758Z" transform="translate(-42.329 -160.525)"/><path class="ag" d="M42.73,147.442l30.321-17.495c.189-.094.33-.047.33.141h0a.64.64,0,0,1-.33.519L42.73,148.1c-.189.094-.33.047-.33-.141h0A.714.714,0,0,1,42.73,147.442Z" transform="translate(-42.329 -111.768)"/><path class="ag" d="M42.73,193.042l30.321-17.495c.189-.094.33-.047.33.141h0a.64.64,0,0,1-.33.519L42.73,193.7c-.189.094-.33.047-.33-.141h0A.64.64,0,0,1,42.73,193.042Z" transform="translate(-42.329 -146.616)"/><path class="ag" d="M42.73,186.623l14.312-8.276c.189-.094.33-.047.33.141h0a.64.64,0,0,1-.33.519L42.73,187.283c-.189.094-.33.047-.33-.141h0A.714.714,0,0,1,42.73,186.623Z" transform="translate(-42.329 -148.756)"/><path class="ag" d="M42.73,231.323l14.312-8.276c.189-.094.33-.047.33.141h0a.64.64,0,0,1-.33.519L42.73,231.983c-.189.094-.33.047-.33-.141h0A.64.64,0,0,1,42.73,231.323Z" transform="translate(-42.329 -182.917)"/><path class="ag" d="M42.73,187l18.65-10.752c.189-.094.33-.047.33.141h0a.64.64,0,0,1-.33.519L42.73,187.659c-.189.094-.33.047-.33-.141h0A.64.64,0,0,1,42.73,187Z" transform="translate(-42.329 -147.151)"/><path class="ag" d="M42.73,232.6l18.65-10.752c.189-.094.33-.047.33.141h0a.64.64,0,0,1-.33.519L42.73,233.259c-.189.094-.33.047-.33-.141h0A.64.64,0,0,1,42.73,232.6Z" transform="translate(-42.329 -182)"/><path class="ag" d="M42.73,177.193l28.812-16.646c.189-.094.33-.047.33.141h0a.64.64,0,0,1-.33.519L42.73,177.853c-.189.094-.33.047-.33-.141h0A.64.64,0,0,1,42.73,177.193Z" transform="translate(-42.329 -135.153)"/><path class="ag" d="M42.73,222.793l28.812-16.646c.189-.094.33-.047.33.141h0a.64.64,0,0,1-.33.519L42.73,223.453c-.189.094-.33.047-.33-.141h0A.64.64,0,0,1,42.73,222.793Z" transform="translate(-42.329 -170.001)"/><path class="ag" d="M42.73,102.97l4.386-2.523c.189-.094.33-.047.33.141h0a.64.64,0,0,1-.33.519L42.73,103.63c-.189.094-.33.047-.33-.141h0A.714.714,0,0,1,42.73,102.97Z" transform="translate(-42.329 -89.223)"/><path class="ag" d="M42.654,104.28l7.663-4.433c.189-.094.33-.047.33.141h0a.64.64,0,0,1-.33.519L42.63,104.94c-.189.094-.33.047-.33-.141h0A.729.729,0,0,1,42.654,104.28Z" transform="translate(-42.253 -88.765)"/><path class="ag" d="M42.572,103.847l12.1-6.979c.259-.141.472-.071.472.189v13.51a.947.947,0,0,1-.472.731l-12.1,6.979c-.259.141-.472.071-.472-.189v-13.51A1.028,1.028,0,0,1,42.572,103.847Z" transform="translate(-42.1 -86.469)"/><path class="ag" d="M105.772,61.792l15.137-8.724c.259-.141.472-.071.472.189v13.51a.947.947,0,0,1-.472.731l-15.137,8.724c-.259.141-.472.071-.472-.189V62.523A.947.947,0,0,1,105.772,61.792Z" transform="translate(-90.399 -52.996)"/></g></g></g></g></g></g><g transform="translate(1589.021 438.826)"><g class="r" transform="translate(9.691 96.698)"><path d="M854.115,447.923l63.779-36.805a9.639,9.639,0,0,1,8.724,0l88.37,51.353c2.4,1.391,2.381,3.655-.024,5.046l-63.779,36.805a9.64,9.64,0,0,1-8.724,0l-88.37-51.329c-2.405-1.391-2.381-3.655.023-5.069" transform="translate(-852.3 -410.075)"/></g><g transform="translate(0 90.638)"><path class="s" d="M915.061,491.99a10.5,10.5,0,0,1-5.14-1.25l-3.843-2.146-92.426-53.71a3.935,3.935,0,0,1,.047-7.309l5.753-3.419,66.679-38.526a11.2,11.2,0,0,1,10.3,0l2.994,1.745a7.4,7.4,0,0,1,.872.424l92.426,53.711a3.935,3.935,0,0,1-.047,7.309l-5.753,3.419-66.7,38.5A10.657,10.657,0,0,1,915.061,491.99Zm-7.828-5.446,3.843,2.146a8.939,8.939,0,0,0,7.969,0l66.679-38.5,5.753-3.419c.849-.5,1.32-1.085,1.32-1.65a2.172,2.172,0,0,0-1.3-1.627l-92.426-53.71a4.286,4.286,0,0,0-.66-.307l-.141-.071-3.042-1.768a8.889,8.889,0,0,0-7.946,0l-66.679,38.526-5.753,3.419c-.849.5-1.32,1.085-1.32,1.65a2.172,2.172,0,0,0,1.3,1.627Z" transform="translate(-811.2 -384.375)"/></g><path class="t" d="M1026.074,49.48,941.452,1a7.461,7.461,0,0,0-5.211-.9c-2.4.542-4.645,1.3-4.645,3.4l-.118,78.656,7.451,4.409c-2.429,1.179-76.723,37.347-76.841,37.418l-.189,3.042a3.662,3.662,0,0,0,1.815,3.183c12.638,7.333,86.72,50.15,86.72,50.15a7.837,7.837,0,0,0,7.875,0l70.4-40.7a2.366,2.366,0,0,0,1.179-2.051l.118-81.32A7.775,7.775,0,0,0,1026.074,49.48Z" transform="translate(-849.946 0.044)"/><g transform="translate(81.273 1.077)"><path class="u" d="M1252.216,140.823l-96.128-54.842L1155.9,7.49a2.95,2.95,0,0,1,4.409-2.57l88.653,50.787a6.261,6.261,0,0,1,3.136,5.376Z" transform="translate(-1155.9 -4.525)"/><path class="v" d="M1172.6,25.6l88.017,50.5.189,73.893L1172.6,99.375Z" transform="translate(-1168.662 -20.631)"/></g><g transform="translate(12.043 81.967)"><path class="w" d="M1027.775,403.008,931.695,347.6l-67.952,39.281a2.943,2.943,0,0,0,0,5.093l88.465,51.117a6.243,6.243,0,0,0,6.225,0Z" transform="translate(-862.275 -347.6)"/></g><g class="x" transform="translate(45.176 91.729)"><path class="y" d="M1451.4,580.935c1.91,1.108,2.876,1.65,4.786,2.759,1.933-1.085,2.9-1.65,4.833-2.735-1.91-1.108-2.876-1.651-4.786-2.759C1454.3,579.308,1453.333,579.85,1451.4,580.935Z" transform="translate(-1345.629 -533.591)"/><path class="y" d="M1421.4,563.735c1.91,1.108,2.877,1.65,4.786,2.759,1.933-1.085,2.9-1.65,4.833-2.735-1.91-1.108-2.876-1.651-4.786-2.759C1424.324,562.108,1423.333,562.65,1421.4,563.735Z" transform="translate(-1322.702 -520.446)"/><path class="y" d="M1391.5,546.535c1.91,1.108,2.877,1.65,4.786,2.759,1.933-1.085,2.9-1.65,4.833-2.735-1.91-1.108-2.876-1.65-4.786-2.759C1394.4,544.908,1393.433,545.45,1391.5,546.535Z" transform="translate(-1299.852 -507.301)"/><path class="y" d="M1361.5,529.335c1.91,1.108,2.876,1.65,4.786,2.759,1.933-1.085,2.9-1.65,4.833-2.735-1.91-1.108-2.876-1.65-4.786-2.759C1364.424,527.708,1363.457,528.25,1361.5,529.335Z" transform="translate(-1276.926 -494.157)"/><path class="y" d="M1331.6,512.135c1.91,1.108,2.877,1.651,4.786,2.759,1.933-1.085,2.9-1.65,4.834-2.735-1.91-1.108-2.876-1.65-4.786-2.759C1334.5,510.508,1333.533,511.05,1331.6,512.135Z" transform="translate(-1254.075 -481.012)"/><path class="y" d="M1301.6,494.935c1.91,1.108,2.876,1.65,4.786,2.759,1.933-1.085,2.9-1.65,4.833-2.735-1.91-1.108-2.876-1.65-4.786-2.759C1304.524,493.308,1303.557,493.85,1301.6,494.935Z" transform="translate(-1231.149 -467.868)"/><path class="y" d="M1271.7,477.735c1.91,1.108,2.877,1.65,4.786,2.759,1.933-1.085,2.9-1.65,4.833-2.735-1.91-1.108-2.876-1.65-4.786-2.759C1274.6,476.108,1273.633,476.65,1271.7,477.735Z" transform="translate(-1208.299 -454.723)"/><path class="y" d="M1241.7,460.535c1.91,1.108,2.877,1.651,4.786,2.759,1.933-1.085,2.9-1.65,4.833-2.735-1.91-1.108-2.877-1.65-4.786-2.759C1244.624,458.908,1243.657,459.45,1241.7,460.535Z" transform="translate(-1185.372 -441.578)"/><path class="y" d="M1211.8,443.335c1.91,1.108,2.877,1.65,4.786,2.759,1.933-1.085,2.9-1.65,4.833-2.735-1.91-1.108-2.877-1.65-4.786-2.759C1214.7,441.708,1213.734,442.25,1211.8,443.335Z" transform="translate(-1162.522 -428.434)"/><path class="y" d="M1181.8,426.135c1.91,1.108,2.876,1.65,4.786,2.759,1.933-1.085,2.9-1.65,4.833-2.735-1.91-1.108-2.877-1.65-4.786-2.759C1184.724,424.508,1183.757,425.05,1181.8,426.135Z" transform="translate(-1139.595 -415.289)"/><path class="y" d="M1151.9,408.935c1.91,1.108,2.876,1.65,4.786,2.759,1.933-1.085,2.9-1.65,4.833-2.735-1.91-1.108-2.876-1.65-4.786-2.759C1154.8,407.308,1153.833,407.85,1151.9,408.935Z" transform="translate(-1116.745 -402.145)"/><path class="y" d="M1122,391.759c1.91,1.108,2.876,1.65,4.786,2.735,1.933-1.085,2.9-1.65,4.833-2.735-1.91-1.108-2.876-1.65-4.786-2.759C1124.9,390.108,1123.933,390.65,1122,391.759Z" transform="translate(-1093.895 -389)"/><path class="y" d="M1422.6,597.235c1.91,1.108,2.876,1.65,4.786,2.759,1.933-1.085,2.9-1.65,4.833-2.735-1.91-1.108-2.876-1.65-4.786-2.759C1425.5,595.585,1424.533,596.15,1422.6,597.235Z" transform="translate(-1323.619 -546.047)"/><path class="y" d="M1392.7,580.035c1.91,1.108,2.877,1.651,4.786,2.759,1.933-1.085,2.9-1.65,4.833-2.735-1.91-1.108-2.876-1.65-4.786-2.759C1395.6,578.385,1394.633,578.951,1392.7,580.035Z" transform="translate(-1300.769 -532.903)"/><path class="y" d="M1362.7,562.835c1.91,1.108,2.877,1.65,4.786,2.759,1.933-1.085,2.9-1.65,4.833-2.735-1.91-1.108-2.877-1.65-4.786-2.759C1365.6,561.185,1364.633,561.75,1362.7,562.835Z" transform="translate(-1277.843 -519.758)"/><path class="y" d="M1332.8,545.635c1.91,1.108,2.877,1.65,4.786,2.759,1.933-1.085,2.9-1.65,4.833-2.735-1.91-1.108-2.877-1.651-4.786-2.759C1335.7,544.008,1334.734,544.55,1332.8,545.635Z" transform="translate(-1254.993 -506.614)"/><path class="y" d="M1302.8,528.435c1.91,1.108,2.877,1.651,4.786,2.759,1.933-1.085,2.9-1.65,4.833-2.735-1.91-1.108-2.876-1.651-4.786-2.759C1305.7,526.808,1304.734,527.35,1302.8,528.435Z" transform="translate(-1232.066 -493.469)"/><path class="y" d="M1272.9,511.235c1.91,1.108,2.877,1.65,4.786,2.759,1.933-1.085,2.9-1.65,4.833-2.735-1.91-1.108-2.876-1.65-4.786-2.759C1275.8,509.608,1274.833,510.15,1272.9,511.235Z" transform="translate(-1209.216 -480.324)"/><path class="y" d="M1242.9,494.035c1.91,1.108,2.877,1.65,4.786,2.759,1.933-1.085,2.9-1.65,4.833-2.735-1.91-1.108-2.876-1.65-4.786-2.759C1245.8,492.408,1244.833,492.95,1242.9,494.035Z" transform="translate(-1186.289 -467.18)"/><path class="y" d="M1213,476.835c1.91,1.108,2.877,1.65,4.786,2.759,1.933-1.085,2.9-1.65,4.833-2.735-1.91-1.108-2.876-1.65-4.786-2.759C1215.9,475.208,1214.933,475.75,1213,476.835Z" transform="translate(-1163.439 -454.035)"/><path class="y" d="M1183,459.635c1.91,1.108,2.877,1.65,4.786,2.759,1.933-1.085,2.9-1.65,4.833-2.735-1.91-1.108-2.876-1.65-4.786-2.759C1185.9,458.008,1184.933,458.55,1183,459.635Z" transform="translate(-1140.512 -440.891)"/><path class="y" d="M1153.1,442.435c1.91,1.108,2.876,1.65,4.786,2.759,1.933-1.085,2.9-1.65,4.833-2.735-1.91-1.108-2.876-1.65-4.786-2.759C1156,440.808,1155.033,441.35,1153.1,442.435Z" transform="translate(-1117.662 -427.746)"/><path class="y" d="M1123.1,425.235c1.91,1.108,2.876,1.65,4.786,2.759,1.933-1.085,2.9-1.65,4.833-2.735-1.91-1.108-2.876-1.65-4.786-2.759C1126,423.608,1125.033,424.15,1123.1,425.235Z" transform="translate(-1094.736 -414.601)"/><path class="y" d="M1093.2,408.035l8.016,4.6c1.933-1.085,2.9-1.65,4.834-2.735l-8.016-4.6C1096.1,406.408,1095.134,406.95,1093.2,408.035Z" transform="translate(-1071.885 -401.457)"/><path class="y" d="M1380.4,605.835c3.183,1.815,4.763,2.735,7.946,4.551,1.934-1.085,2.9-1.65,4.834-2.735-3.183-1.815-4.763-2.735-7.946-4.55C1383.3,604.185,1382.333,604.727,1380.4,605.835Z" transform="translate(-1291.369 -552.62)"/><path class="y" d="M1363.9,596.335c1.91,1.108,2.876,1.651,4.786,2.759,1.933-1.085,2.9-1.65,4.833-2.735-1.91-1.108-2.876-1.65-4.786-2.759C1366.8,594.685,1365.833,595.227,1363.9,596.335Z" transform="translate(-1278.76 -545.36)"/><path class="y" d="M1333.9,579.135c1.91,1.108,2.876,1.65,4.786,2.759,1.933-1.085,2.9-1.65,4.833-2.735-1.91-1.108-2.876-1.65-4.786-2.759C1336.8,577.485,1335.833,578.027,1333.9,579.135Z" transform="translate(-1255.833 -532.215)"/><path class="y" d="M1304,561.935c1.91,1.108,2.876,1.65,4.786,2.759,1.933-1.085,2.9-1.65,4.833-2.735-1.91-1.108-2.876-1.65-4.786-2.759C1306.9,560.285,1305.933,560.827,1304,561.935Z" transform="translate(-1232.983 -519.07)"/><path class="y" d="M1274,544.735c1.91,1.108,2.877,1.651,4.786,2.759,1.933-1.085,2.9-1.65,4.833-2.735-1.91-1.108-2.876-1.65-4.786-2.759C1276.9,543.085,1275.933,543.627,1274,544.735Z" transform="translate(-1210.056 -505.926)"/><path class="y" d="M1244.1,527.535c1.91,1.108,2.876,1.65,4.786,2.759,1.933-1.085,2.9-1.65,4.833-2.735-1.91-1.108-2.876-1.65-4.786-2.759C1247,525.885,1246.033,526.451,1244.1,527.535Z" transform="translate(-1187.206 -492.781)"/><path class="y" d="M1214.1,510.335c1.91,1.108,2.876,1.65,4.786,2.759,1.933-1.085,2.9-1.65,4.834-2.735-1.91-1.108-2.877-1.65-4.786-2.759C1217,508.685,1216.034,509.25,1214.1,510.335Z" transform="translate(-1164.28 -479.637)"/><path class="y" d="M1184.2,493.135c1.91,1.108,2.877,1.65,4.786,2.759,1.933-1.085,2.9-1.65,4.833-2.735-1.91-1.108-2.877-1.65-4.786-2.759C1187.1,491.485,1186.133,492.05,1184.2,493.135Z" transform="translate(-1141.429 -466.492)"/><path class="y" d="M1154.2,475.935c1.91,1.108,2.877,1.65,4.786,2.759,1.933-1.085,2.9-1.65,4.833-2.735-1.91-1.108-2.877-1.65-4.786-2.759C1157.1,474.285,1156.133,474.85,1154.2,475.935Z" transform="translate(-1118.503 -453.347)"/><path class="y" d="M1124.3,458.735c1.91,1.108,2.877,1.65,4.786,2.759,1.933-1.085,2.9-1.65,4.833-2.735-1.91-1.108-2.877-1.65-4.786-2.759C1127.2,457.085,1126.234,457.65,1124.3,458.735Z" transform="translate(-1095.653 -440.203)"/><path class="y" d="M1094.3,441.535c1.91,1.108,2.876,1.65,4.786,2.759,1.933-1.085,2.9-1.65,4.833-2.735-1.91-1.108-2.877-1.65-4.786-2.759C1097.2,439.885,1096.234,440.45,1094.3,441.535Z" transform="translate(-1072.726 -427.058)"/><path class="y" d="M1064.4,424.411c1.91,1.108,2.877,1.65,4.786,2.759,1.933-1.085,2.9-1.65,4.833-2.735-1.91-1.108-2.876-1.65-4.786-2.735C1067.3,422.761,1066.333,423.327,1064.4,424.411Z" transform="translate(-1049.876 -413.99)"/><path class="y" d="M1365,629.835c1.91,1.108,2.877,1.65,4.786,2.759,1.933-1.085,2.9-1.65,4.833-2.735-1.91-1.108-2.876-1.651-4.786-2.759C1367.9,628.185,1366.933,628.727,1365,629.835Z" transform="translate(-1279.6 -570.961)"/><path class="y" d="M1335.1,612.635c1.91,1.108,2.877,1.651,4.786,2.759,1.933-1.085,2.9-1.65,4.834-2.735-1.91-1.108-2.876-1.65-4.786-2.759C1338,610.985,1337.033,611.527,1335.1,612.635Z" transform="translate(-1256.75 -557.816)"/><path class="y" d="M1305.1,595.435c1.91,1.108,2.876,1.65,4.786,2.759,1.933-1.085,2.9-1.65,4.834-2.735-1.91-1.108-2.877-1.65-4.786-2.759C1308,593.785,1307.033,594.327,1305.1,595.435Z" transform="translate(-1233.824 -544.672)"/><path class="y" d="M1275.2,578.235c1.91,1.108,2.877,1.65,4.786,2.759,1.933-1.085,2.9-1.65,4.833-2.735-1.91-1.108-2.876-1.65-4.786-2.759C1278.1,576.585,1277.133,577.127,1275.2,578.235Z" transform="translate(-1210.974 -531.527)"/><path class="y" d="M1245.2,561.035c1.91,1.108,2.876,1.651,4.786,2.759,1.933-1.085,2.9-1.65,4.833-2.735-1.91-1.108-2.876-1.651-4.786-2.759C1248.1,559.385,1247.133,559.927,1245.2,561.035Z" transform="translate(-1188.047 -518.383)"/><path class="y" d="M1215.3,543.835c1.91,1.108,2.876,1.65,4.786,2.759,1.933-1.085,2.9-1.65,4.833-2.735-1.91-1.108-2.876-1.65-4.786-2.759C1218.2,542.185,1217.234,542.727,1215.3,543.835Z" transform="translate(-1165.197 -505.238)"/><path class="y" d="M1185.3,526.635c1.91,1.108,2.877,1.65,4.786,2.759,1.933-1.085,2.9-1.65,4.833-2.735-1.91-1.108-2.876-1.65-4.786-2.759C1188.2,524.985,1187.234,525.527,1185.3,526.635Z" transform="translate(-1142.27 -492.093)"/><path class="y" d="M1155.4,509.435c1.91,1.108,2.877,1.65,4.786,2.759,1.933-1.085,2.9-1.65,4.834-2.735-1.91-1.108-2.877-1.65-4.786-2.759C1158.3,507.785,1157.333,508.327,1155.4,509.435Z" transform="translate(-1119.42 -478.949)"/><path class="y" d="M1125.4,492.235c1.91,1.108,2.876,1.65,4.786,2.759,1.933-1.085,2.9-1.65,4.834-2.735-1.91-1.108-2.877-1.65-4.786-2.759C1128.3,490.585,1127.333,491.127,1125.4,492.235Z" transform="translate(-1096.493 -465.804)"/><path class="y" d="M1095.5,475.035c1.91,1.108,2.877,1.65,4.786,2.759,1.933-1.085,2.9-1.65,4.833-2.735-1.91-1.108-2.876-1.65-4.786-2.759C1098.4,473.385,1097.433,473.927,1095.5,475.035Z" transform="translate(-1073.643 -452.66)"/><path class="y" d="M1052.6,450.335c3.136,1.792,4.692,2.688,7.828,4.5,1.933-1.085,2.9-1.65,4.833-2.735-3.136-1.792-4.692-2.688-7.828-4.5C1055.5,448.708,1054.533,449.25,1052.6,450.335Z" transform="translate(-1040.858 -433.783)"/><path class="y" d="M1035.6,440.711c1.91,1.108,2.876,1.65,4.786,2.759,1.933-1.085,2.9-1.65,4.834-2.735-1.91-1.108-2.877-1.65-4.786-2.735C1038.5,439.061,1037.533,439.6,1035.6,440.711Z" transform="translate(-1027.866 -426.447)"/><path class="y" d="M1332.2,648.335c1.91,1.108,2.877,1.651,4.786,2.759,1.933-1.085,2.9-1.651,4.833-2.735-1.91-1.108-2.876-1.65-4.786-2.759C1335.124,646.685,1334.133,647.227,1332.2,648.335Z" transform="translate(-1254.534 -585.099)"/><path class="y" d="M1302.3,631.135c1.91,1.108,2.877,1.651,4.786,2.759,1.933-1.085,2.9-1.651,4.833-2.735-1.91-1.108-2.876-1.65-4.786-2.759C1305.2,629.485,1304.234,630.027,1302.3,631.135Z" transform="translate(-1231.684 -571.955)"/><path class="y" d="M1272.3,613.935c1.91,1.108,2.877,1.651,4.786,2.759,1.933-1.085,2.9-1.65,4.833-2.735-1.91-1.108-2.877-1.651-4.786-2.759C1275.224,612.285,1274.257,612.827,1272.3,613.935Z" transform="translate(-1208.757 -558.81)"/><path class="y" d="M1092.7,510.735q20.053,11.494,40.083,23.012c1.933-1.085,2.9-1.65,4.833-2.735q-20.053-11.494-40.083-23.012C1095.6,509.085,1094.633,509.65,1092.7,510.735Z" transform="translate(-1071.503 -479.942)"/><path class="y" d="M1062.7,493.535c1.91,1.108,2.877,1.65,4.786,2.759,1.933-1.085,2.9-1.65,4.833-2.735-1.91-1.108-2.876-1.65-4.786-2.759C1065.6,491.885,1064.634,492.45,1062.7,493.535Z" transform="translate(-1048.577 -466.798)"/><path class="y" d="M1032.8,476.335c1.91,1.108,2.877,1.65,4.786,2.759,1.933-1.085,2.9-1.65,4.833-2.735-1.91-1.108-2.876-1.65-4.786-2.759C1035.7,474.685,1034.734,475.25,1032.8,476.335Z" transform="translate(-1025.727 -453.653)"/><path class="y" d="M1002.8,459.059c1.91,1.108,2.876,1.65,4.786,2.735,1.933-1.085,2.9-1.65,4.833-2.735-1.91-1.108-2.877-1.65-4.786-2.759C1005.7,457.408,1004.733,457.974,1002.8,459.059Z" transform="translate(-1002.8 -440.432)"/><path class="y" d="M1063.7,563.927,1030.739,544.9,1011.9,556.5l32.938,19.027Z" transform="translate(-1009.754 -508.142)"/></g><g transform="translate(85.211 6.046)"><g class="aj"><path class="aa" d="M1172.3,91.178l88.158,50.5V75.027L1172.3,24.5Z" transform="translate(-1172.371 -24.759)"/><path class="aa" d="M1172.3,132.178l88.158,50.5V116.027L1172.3,65.5Z" transform="translate(-1172.371 -56.092)"/><g transform="translate(-0.071 6.112)"><path class="ab" d="M1172.3,24.2V94.156l12.5,7.168V31.368Z" transform="translate(-1172.3 -24.2)"/><g transform="translate(1.364 4.017)"><ellipse class="e" cx="1.58" cy="2.759" rx="1.58" ry="2.759" transform="translate(0 1.902) rotate(-37.005)"/><path class="e" d="M1172.2,68.289h0a.64.64,0,0,0,.33.519l2.641,1.509c.189.094.33.047.33-.141h0a.64.64,0,0,0-.33-.519l-2.641-1.509C1172.342,68.053,1172.2,68.1,1172.2,68.289Z" transform="translate(-1171.366 -59.101)"/><path class="e" d="M1172.2,80.389h0a.64.64,0,0,0,.33.519l4.385,2.523c.189.094.33.047.33-.141h0a.64.64,0,0,0-.33-.519l-4.385-2.523C1172.342,80.153,1172.2,80.2,1172.2,80.389Z" transform="translate(-1171.366 -68.348)"/><path class="e" d="M1172.2,92.455h0a.64.64,0,0,0,.33.519l7.073,4.055c.189.094.33.047.33-.141h0a.639.639,0,0,0-.33-.519l-7.073-4.055C1172.342,92.2,1172.2,92.266,1172.2,92.455Z" transform="translate(-1171.366 -77.561)"/><path class="e" d="M1172.2,105.489h0a.64.64,0,0,0,.33.519l3.3,1.886c.189.094.33.047.33-.141h0a.639.639,0,0,0-.33-.519l-3.3-1.886C1172.342,105.253,1172.2,105.3,1172.2,105.489Z" transform="translate(-1171.366 -87.53)"/><path class="e" d="M1172.2,117.589h0a.64.64,0,0,0,.33.519l7.521,4.315c.189.094.33.047.33-.141h0a.64.64,0,0,0-.33-.519l-7.521-4.315C1172.342,117.353,1172.2,117.4,1172.2,117.589Z" transform="translate(-1171.366 -96.777)"/><path class="e" d="M1172.2,129.655h0a.64.64,0,0,0,.33.519l3.513,2c.188.094.33.047.33-.141h0a.64.64,0,0,0-.33-.519l-3.513-2C1172.342,129.4,1172.2,129.466,1172.2,129.655Z" transform="translate(-1171.366 -105.99)"/><path class="e" d="M1172.2,141.755h0a.64.64,0,0,0,.33.519l6.861,3.938c.189.094.33.047.33-.141h0a.64.64,0,0,0-.33-.519l-6.861-3.937C1172.342,141.5,1172.2,141.566,1172.2,141.755Z" transform="translate(-1171.366 -115.237)"/></g></g><g transform="translate(-0.071 -0.259)"><path class="ac" d="M1260.458,81.818l-88.158-50.5V24.5l88.158,50.527Z" transform="translate(-1172.3 -24.5)"/><ellipse class="ad" cx="0.92" cy="1.603" rx="0.92" ry="1.603" transform="translate(3.231 5.497) rotate(-37.005)"/><ellipse class="ae" cx="0.92" cy="1.603" rx="0.92" ry="1.603" transform="translate(7.036 7.692) rotate(-37.005)"/><ellipse class="af" cx="0.92" cy="1.603" rx="0.92" ry="1.603" transform="translate(10.858 9.885) rotate(-37.005)"/></g><g transform="translate(16.646 20.958)"><path class="ag" d="M1430.121,182.183a.978.978,0,0,1-.472-.141l-28.624-16.387a1.692,1.692,0,0,1-.825-1.3V115.127a.617.617,0,0,1,.283-.566.739.739,0,0,1,.755.071l28.624,16.387a1.692,1.692,0,0,1,.825,1.3v49.231a.617.617,0,0,1-.283.566A.5.5,0,0,1,1430.121,182.183Zm-29.307-67.244a.086.086,0,0,0-.071.024c-.047.024-.047.118-.047.165v49.231a1.252,1.252,0,0,0,.59.9l28.624,16.387a.344.344,0,0,0,.307.071c.047-.024.047-.118.047-.165V132.315a1.253,1.253,0,0,0-.589-.9l-28.624-16.387A.437.437,0,0,0,1400.813,114.938Z" transform="translate(-1400.2 -114.487)"/><ellipse class="ag" cx="3.631" cy="6.39" rx="3.631" ry="6.39" transform="translate(4.042 11.585) rotate(-37.005)"/><g transform="translate(5.936 18.89)"><path class="ag" d="M1171,78.9h0a.64.64,0,0,0,.33.519l14.265,8.158c.189.094.33.047.33-.141h0a.64.64,0,0,0-.33-.519l-14.265-8.158C1171.165,78.669,1171,78.74,1171,78.9Z" transform="translate(-1171 -78.721)"/><path class="ag" d="M1171,87.289h0a.64.64,0,0,0,.33.519l18.108,10.374c.189.094.33.047.33-.141h0a.64.64,0,0,0-.33-.519L1171.33,87.147C1171.165,87.053,1171,87.1,1171,87.289Z" transform="translate(-1171 -85.124)"/><path class="ag" d="M1171,96.589h0a.64.64,0,0,0,.33.519l14.312,8.205c.189.094.33.047.33-.141h0a.64.64,0,0,0-.33-.519l-14.312-8.205C1171.165,96.353,1171,96.4,1171,96.589Z" transform="translate(-1171 -92.232)"/><path class="ag" d="M1171,104.955h0a.64.64,0,0,0,.33.519l17.165,9.832c.189.094.33.047.33-.141h0a.639.639,0,0,0-.33-.519l-17.165-9.832C1171.165,104.7,1171,104.766,1171,104.955Z" transform="translate(-1171 -98.617)"/><path class="ag" d="M1171,113.3h0a.64.64,0,0,0,.33.519l14.052,8.04c.189.094.33.047.33-.141h0a.64.64,0,0,0-.33-.519l-14.052-8.04C1171.165,113.069,1171,113.139,1171,113.3Z" transform="translate(-1171 -105.01)"/></g><path class="ag" d="M1425.4,249.056v3.89a.947.947,0,0,0,.472.731l17.919,10.28c.259.141.471.047.471-.189v-3.89a.947.947,0,0,0-.471-.731l-17.919-10.28C1425.612,248.726,1425.4,248.8,1425.4,249.056Z" transform="translate(-1419.458 -217.129)"/><g transform="translate(5.976 40.7)"><path class="ah" d="M1189.745,99.406c-2.57-1.462-.377-4.315-2.051-6.484s-2.193,2.334-4.315-.8-3.843.613-6.508-3.277S1171,85,1171,85" transform="translate(-1171 -85)"/><ellipse class="ag" cx="0.472" cy="0.849" rx="0.472" ry="0.849" transform="translate(10.691 5.856) rotate(-37.005)"/><ellipse class="ai" cx="0.259" cy="0.472" rx="0.259" ry="0.472" transform="translate(11.071 6.034) rotate(-37.005)"/></g></g><g transform="translate(51.67 40.754)"><g transform="translate(0 0)"><path class="ag" d="M1169.4,234.289h0a.64.64,0,0,0,.33.519l19.075,10.94c.189.094.33.047.33-.141h0a.639.639,0,0,0-.33-.519l-19.075-10.94C1169.565,234.053,1169.4,234.1,1169.4,234.289Z" transform="translate(-1169.353 -214.365)"/><path class="ag" d="M1169.4,279.855h0a.64.64,0,0,0,.33.519l19.075,10.94c.189.094.33.047.33-.142h0a.639.639,0,0,0-.33-.519l-19.075-10.94C1169.565,279.6,1169.4,279.666,1169.4,279.855Z" transform="translate(-1169.353 -249.18)"/><path class="ag" d="M1169.4,243.589h0a.64.64,0,0,0,.33.519l30.321,17.377c.189.094.33.047.33-.141h0a.639.639,0,0,0-.33-.519l-30.321-17.377C1169.565,243.353,1169.4,243.4,1169.4,243.589Z" transform="translate(-1169.353 -221.473)"/><path class="ag" d="M1169.4,289.155h0a.64.64,0,0,0,.33.519l30.321,17.377c.189.094.33.047.33-.141h0a.639.639,0,0,0-.33-.519l-30.321-17.377C1169.565,288.9,1169.4,288.966,1169.4,289.155Z" transform="translate(-1169.353 -256.287)"/><path class="ag" d="M1169.4,252.889h0a.64.64,0,0,0,.33.519l14.312,8.205c.189.094.33.047.33-.141h0a.64.64,0,0,0-.33-.519l-14.312-8.205C1169.565,252.653,1169.4,252.7,1169.4,252.889Z" transform="translate(-1169.353 -228.58)"/><path class="ag" d="M1169.4,297.5h0a.64.64,0,0,0,.33.519l14.312,8.205c.189.094.33.047.33-.141h0a.64.64,0,0,0-.33-.519l-14.312-8.205C1169.565,297.269,1169.4,297.339,1169.4,297.5Z" transform="translate(-1169.353 -262.68)"/><path class="ag" d="M1169.4,261.255h0a.64.64,0,0,0,.33.519l18.65,10.681c.189.094.33.047.33-.141h0a.639.639,0,0,0-.33-.519l-18.65-10.681C1169.565,261,1169.4,261.066,1169.4,261.255Z" transform="translate(-1169.353 -234.965)"/><path class="ag" d="M1169.4,306.8h0a.64.64,0,0,0,.33.519L1188.38,318c.189.094.33.047.33-.141h0a.639.639,0,0,0-.33-.519l-18.65-10.681C1169.565,306.569,1169.4,306.639,1169.4,306.8Z" transform="translate(-1169.353 -269.787)"/><path class="ag" d="M1169.4,270.555h0a.64.64,0,0,0,.33.519l28.812,16.5c.189.094.33.047.33-.141h0a.639.639,0,0,0-.33-.519l-28.812-16.5C1169.565,270.3,1169.4,270.366,1169.4,270.555Z" transform="translate(-1169.353 -242.072)"/><path class="ag" d="M1169.4,316.1h0a.64.64,0,0,0,.33.519l28.812,16.5c.189.094.33.047.33-.141h0a.639.639,0,0,0-.33-.519l-28.812-16.5C1169.565,315.869,1169.4,315.939,1169.4,316.1Z" transform="translate(-1169.353 -276.894)"/><path class="ag" d="M1169.4,150.589h0a.64.64,0,0,0,.33.519l4.385,2.523c.189.094.33.047.33-.141h0a.64.64,0,0,0-.33-.519l-4.385-2.523C1169.565,150.353,1169.4,150.4,1169.4,150.589Z" transform="translate(-1169.353 -150.4)"/><path class="ag" d="M1169.4,158h0a.64.64,0,0,0,.33.519l7.686,4.409c.189.094.33.047.33-.141h0a.64.64,0,0,0-.33-.519l-7.686-4.409C1169.565,157.769,1169.4,157.839,1169.4,158Z" transform="translate(-1169.353 -156.071)"/><path class="ag" d="M1169.2,166.356v13.51a.947.947,0,0,0,.472.731l12.1,6.932c.259.141.472.047.472-.189v-13.51a.947.947,0,0,0-.472-.731l-12.1-6.932C1169.412,166.026,1169.2,166.1,1169.2,166.356Z" transform="translate(-1169.2 -162.395)"/><path class="ag" d="M1232.4,202.556v13.51a.947.947,0,0,0,.472.731l15.137,8.677c.259.141.471.047.471-.189v-13.51a.947.947,0,0,0-.471-.731l-15.137-8.677C1232.589,202.226,1232.4,202.3,1232.4,202.556Z" transform="translate(-1217.499 -190.06)"/></g></g></g></g></g></g></svg>