<svg xmlns="http://www.w3.org/2000/svg" xmlns:xlink="http://www.w3.org/1999/xlink" viewBox="0 0 917.565 682.328"><defs><style>.a,.am,.av{fill:none;}.b{fill:#aaa;}.c,.v{fill:#fff;}.au,.d{opacity:0.5;}.e{fill:#4e637d;}.f{fill:#797979;}.g{fill:#efefef;}.h,.i{fill:#333;}.h,.y{opacity:0.1;}.j,.y{fill:#0265ff;}.k{fill:#5b5d6e;}.l{fill:#e6af78;}.m{fill:#d29b6e;}.n{fill:#f0c087;}.o{fill:#785550;}.p{fill:#694b4b;}.q{fill:#5a4146;}.r{fill:#eff2fa;}.s{fill:#e4eaf6;}.t{fill:#515262;}.u{fill:#07d879;}.v,.x{opacity:0.2;}.w{fill:#a5acb7;}.z{fill:#d4c3dd;}.aa{fill:#ff558e;}.ab{fill:#f2d3aa;}.ac{fill:#d83982;}.ad{fill:#324a5e;}.ae{clip-path:url(#c);}.af{fill:#707487;}.ag{fill:#b4e1fa;}.ah{fill:#a0d2f0;}.ai{fill:#464655;}.aj,.an{fill:#8197b1;}.ak{fill:#dfe1e5;}.al{opacity:0;}.am{stroke:#8197b1;stroke-width:1.28px;}.an,.ao{opacity:0.7;}.ap,.ar{fill:#c8d4e3;}.ap,.aq{opacity:0.53;}.as{clip-path:url(#g);}.at,.au{fill:#dfe4eb;}.av{stroke:#0265ff;}.aw{fill:#f1f1f3;}.ax{fill:#ff5123;}.ay{fill:#ffc500;}.az{fill:#40cd8a;}.ba{stroke:none;}.bb{filter:url(#e);}.bc{filter:url(#a);}</style><filter id="a" x="0" y="0" width="887.73" height="634" filterUnits="userSpaceOnUse"><feOffset dy="27" input="SourceAlpha"/><feGaussianBlur stdDeviation="26.5" result="b"/><feFlood flood-opacity="0.078"/><feComposite operator="in" in2="b"/><feComposite in="SourceGraphic"/></filter><clipPath id="c"><circle class="a" cx="7.672" cy="7.672" r="7.672"/></clipPath><filter id="e" x="530.96" y="58.632" width="386.605" height="623.696" filterUnits="userSpaceOnUse"><feOffset dy="10" input="SourceAlpha"/><feGaussianBlur stdDeviation="26" result="f"/><feFlood flood-opacity="0.102"/><feComposite operator="in" in2="f"/><feComposite in="SourceGraphic"/></filter><clipPath id="g"><path class="b" d="M0,20.79A20.79,20.79,0,0,1,20.79,0H43.779a1.459,1.459,0,0,1,1.459,1.459V4.742A10.942,10.942,0,0,0,56.18,15.684h93A10.942,10.942,0,0,0,160.12,4.742V1.459A1.459,1.459,0,0,1,161.579,0h22.8a20.79,20.79,0,0,1,20.79,20.79V423.461a20.79,20.79,0,0,1-20.79,20.79H20.79A20.79,20.79,0,0,1,0,423.461Z"/></clipPath></defs><g transform="translate(-7399.5 400.5)"><g transform="translate(9989 -166)"><g transform="translate(-3358 -1761)"><g class="bc" transform="matrix(1, 0, 0, 1, 768.5, 1526.5)"><rect class="c" width="728.731" height="475" rx="7.27" transform="translate(79.5 52.5)"/></g><g class="d" transform="translate(862.414 1618.509)"><path class="e" d="M34.527,66.772a.3.3,0,0,1-.225.285l-1.5.232a4.8,4.8,0,0,1-.311.735c.272.4.563.748.861,1.113a.344.344,0,0,1,.079.2.258.258,0,0,1-.073.192c-.192.258-1.285,1.444-1.556,1.444a.431.431,0,0,1-.212-.073l-1.113-.874a5.09,5.09,0,0,1-.735.311,10.748,10.748,0,0,1-.238,1.5.3.3,0,0,1-.291.225H27.428a.285.285,0,0,1-.291-.245l-.225-1.483a4.7,4.7,0,0,1-.728-.3l-1.139.868a.338.338,0,0,1-.205.073.285.285,0,0,1-.2-.086,10.788,10.788,0,0,1-1.324-1.324.338.338,0,0,1-.053-.192.3.3,0,0,1,.066-.179c.272-.377.57-.728.848-1.113a4.119,4.119,0,0,1-.331-.795l-1.477-.219a.3.3,0,0,1-.238-.291V64.945a.318.318,0,0,1,.219-.291l1.5-.225a4.284,4.284,0,0,1,.311-.742c-.272-.391-.563-.755-.861-1.119a.3.3,0,0,1-.079-.192.3.3,0,0,1,.073-.185c.192-.265,1.285-1.45,1.556-1.45a.344.344,0,0,1,.212.086l1.113.861a5.383,5.383,0,0,1,.735-.3,10.443,10.443,0,0,1,.225-1.5.291.291,0,0,1,.291-.225h1.788a.291.291,0,0,1,.291.238l.225,1.49a4.669,4.669,0,0,1,.728.3l1.152-.861a.252.252,0,0,1,.192-.079.285.285,0,0,1,.2.086A10.066,10.066,0,0,1,33.329,62.2a.272.272,0,0,1,.053.179.278.278,0,0,1-.079.152c-.272.371-.57.728-.848,1.106a4.119,4.119,0,0,1,.331.795l1.483.225a.3.3,0,0,1,.232.291Zm-6.205-2.987a2.073,2.073,0,1,0,2.066,2.06A2.073,2.073,0,0,0,28.322,63.786Z" transform="translate(-22.13 -59.66)"/></g><g class="d" transform="translate(1067.903 1617.567)"><rect class="e" width="1.132" height="13.397" rx="0.566" transform="translate(0.003 0.801) rotate(-45)"/><rect class="e" width="1.132" height="13.397" rx="0.566" transform="translate(0.801 10.279) rotate(-135)"/></g><path class="f" d="M8.82,0,6.36-3.93A2.816,2.816,0,0,0,8.745-6.87,3.041,3.041,0,0,0,5.46-10.005h-4.4V0H2.82V-3.735H4.575L6.78,0ZM5.235-5.28H2.82V-8.46H5.235a1.566,1.566,0,0,1,1.71,1.575A1.581,1.581,0,0,1,5.235-5.28ZM13.29.18a3.63,3.63,0,0,0,3.72-3.81,3.61,3.61,0,0,0-3.72-3.8,3.61,3.61,0,0,0-3.72,3.8A3.63,3.63,0,0,0,13.29.18Zm0-1.4A2.177,2.177,0,0,1,11.2-3.63a2.172,2.172,0,0,1,2.085-2.4,2.163,2.163,0,0,1,2.085,2.4A2.169,2.169,0,0,1,13.29-1.215Zm6.9-.96v-2.88a2.38,2.38,0,0,1,1.875-.975,2.128,2.128,0,0,1,2.04,2.4,2.134,2.134,0,0,1-2.04,2.415A2.367,2.367,0,0,1,20.19-2.175ZM20.19,0V-.99A2.934,2.934,0,0,0,22.515.18c1.86,0,3.225-1.41,3.225-3.81,0-2.34-1.35-3.8-3.225-3.8A2.865,2.865,0,0,0,20.19-6.24v-3.765H18.615V0Zm10.5.18A4.286,4.286,0,0,0,33.63-.885L32.91-1.92a3.046,3.046,0,0,1-2.07.81,2.19,2.19,0,0,1-2.3-2h5.58V-3.5c0-2.28-1.38-3.93-3.555-3.93A3.662,3.662,0,0,0,26.9-3.63,3.634,3.634,0,0,0,30.69.18Zm1.92-4.41H28.53a1.982,1.982,0,0,1,2.025-1.905A1.95,1.95,0,0,1,32.61-4.23ZM37.26,0V-4.935a2.473,2.473,0,0,1,1.875-.975,2.174,2.174,0,0,1,.48.045v-1.56A3.144,3.144,0,0,0,37.26-6.2v-1.05H35.685V0Zm5.82.18a2.134,2.134,0,0,0,1.47-.465l-.375-1.2a.98.98,0,0,1-.69.27c-.45,0-.69-.375-.69-.87V-5.88h1.47V-7.245H42.8v-1.98H41.22v1.98h-1.2V-5.88h1.2V-1.7A1.669,1.669,0,0,0,43.08.18Zm9.945,0c2.685,0,3.87-1.44,3.87-3.105,0-3.72-5.82-2.565-5.82-4.44,0-.735.66-1.245,1.68-1.245a4.078,4.078,0,0,1,2.91,1.155l.99-1.305a5.178,5.178,0,0,0-3.735-1.41c-2.205,0-3.645,1.275-3.645,2.94,0,3.675,5.82,2.37,5.82,4.47,0,.675-.555,1.38-1.995,1.38a4.3,4.3,0,0,1-3.165-1.395l-.99,1.365A5.469,5.469,0,0,0,53.025.18ZM68.925,0V-5.235a1.915,1.915,0,0,0-2.085-2.19,3.055,3.055,0,0,0-2.46,1.32,1.893,1.893,0,0,0-1.98-1.32A3.209,3.209,0,0,0,60.03-6.27v-.975H58.455V0H60.03V-5.07a2.224,2.224,0,0,1,1.68-.96c.855,0,1.185.525,1.185,1.3V0H64.47V-5.07a2.157,2.157,0,0,1,1.68-.96c.855,0,1.2.525,1.2,1.3V0ZM71.76-8.13a.973.973,0,0,0,.975-.975.973.973,0,0,0-.975-.975.973.973,0,0,0-.975.975A.973.973,0,0,0,71.76-8.13ZM72.54,0V-7.245H70.965V0Zm4.23.18a2.134,2.134,0,0,0,1.47-.465l-.375-1.2a.98.98,0,0,1-.69.27c-.45,0-.69-.375-.69-.87V-5.88h1.47V-7.245h-1.47v-1.98H74.91v1.98h-1.2V-5.88h1.2V-1.7A1.669,1.669,0,0,0,76.77.18ZM85.845,0V-5.13a2.067,2.067,0,0,0-2.34-2.3,3.42,3.42,0,0,0-2.55,1.155v-3.735H79.38V0h1.575V-5.07a2.417,2.417,0,0,1,1.86-.96c.885,0,1.455.33,1.455,1.47V0Z" transform="translate(924 1706.455)"/><rect class="g" width="239.929" height="18.759" transform="translate(848 1766)"/><rect class="h" width="239.929" height="1.059" transform="translate(848 1784)"/><path class="i" d="M1.449,0V-2.385H3.114A1.763,1.763,0,0,0,4.995-4.194,1.758,1.758,0,0,0,3.114-6H.7V0ZM3.024-3.051H1.449V-5.337H3.024a1.116,1.116,0,0,1,1.2,1.143A1.116,1.116,0,0,1,3.024-3.051ZM6.633,0V-3.078a1.592,1.592,0,0,1,1.188-.693,2.229,2.229,0,0,1,.261.018v-.693a1.873,1.873,0,0,0-1.449.792v-.693H5.958V0Zm4.194.108a2.14,2.14,0,0,0,2.151-2.286,2.133,2.133,0,0,0-2.151-2.277A2.133,2.133,0,0,0,8.676-2.178,2.14,2.14,0,0,0,10.827.108Zm0-.6a1.514,1.514,0,0,1-1.44-1.683,1.511,1.511,0,0,1,1.44-1.674,1.511,1.511,0,0,1,1.44,1.674A1.514,1.514,0,0,1,10.827-.5ZM14.94,0V-3.753h.882v-.594H14.94V-4.68c0-.558.243-.855.693-.855a.725.725,0,0,1,.387.1l.171-.513a1.375,1.375,0,0,0-.666-.144,1.247,1.247,0,0,0-1.26,1.413v.333h-.72v.594h.72V0Zm2.034-4.968a.446.446,0,0,0,.45-.45.453.453,0,0,0-.45-.459.461.461,0,0,0-.459.459A.453.453,0,0,0,16.974-4.968ZM17.307,0V-4.347h-.675V0Zm2.025,0V-6h-.675V0Zm3.321.108a2.4,2.4,0,0,0,1.728-.675l-.324-.441a1.892,1.892,0,0,1-1.35.558,1.524,1.524,0,0,1-1.557-1.5h3.51v-.171a2.111,2.111,0,0,0-2.088-2.331A2.174,2.174,0,0,0,20.43-2.178,2.158,2.158,0,0,0,22.653.108Zm1.341-2.565H21.141A1.448,1.448,0,0,1,22.563-3.9,1.407,1.407,0,0,1,23.994-2.457Z" transform="translate(867 1778)"/><path class="i" d="M3.438,0A1.565,1.565,0,0,0,5.175-1.62,1.5,1.5,0,0,0,4.005-3.1,1.364,1.364,0,0,0,5.058-4.473,1.514,1.514,0,0,0,3.375-6H.7V0ZM3.249-3.4h-1.8V-5.337h1.8a.944.944,0,0,1,1.035.972A.933.933,0,0,1,3.249-3.4ZM3.294-.666H1.449v-2.07H3.294A1.017,1.017,0,0,1,4.4-1.7.99.99,0,0,1,3.294-.666ZM7.011,0V-3.078A1.592,1.592,0,0,1,8.2-3.771a2.229,2.229,0,0,1,.261.018v-.693a1.873,1.873,0,0,0-1.449.792v-.693H6.336V0ZM11.2.108a2.14,2.14,0,0,0,2.151-2.286A2.133,2.133,0,0,0,11.2-4.455,2.133,2.133,0,0,0,9.054-2.178,2.14,2.14,0,0,0,11.2.108Zm0-.6a1.514,1.514,0,0,1-1.44-1.683A1.511,1.511,0,0,1,11.2-3.852a1.511,1.511,0,0,1,1.44,1.674A1.514,1.514,0,0,1,11.2-.5ZM18.9,0l1.386-4.347h-.711L18.513-.882,17.379-4.347h-.585L15.651-.882,14.589-4.347h-.7L15.273,0h.675l1.134-3.492L18.216,0Zm3.546.108c1.116,0,1.7-.585,1.7-1.314,0-1.692-2.691-1.071-2.691-2.016,0-.387.369-.684.963-.684a1.679,1.679,0,0,1,1.3.549l.315-.468a2.169,2.169,0,0,0-1.611-.63c-1.035,0-1.611.567-1.611,1.251,0,1.611,2.691.963,2.691,2.016,0,.432-.369.747-1.035.747a1.97,1.97,0,0,1-1.431-.621l-.342.486A2.332,2.332,0,0,0,22.446.108Zm4.77,0a2.4,2.4,0,0,0,1.728-.675l-.324-.441a1.892,1.892,0,0,1-1.35.558,1.524,1.524,0,0,1-1.557-1.5h3.51v-.171a2.111,2.111,0,0,0-2.088-2.331,2.174,2.174,0,0,0-2.142,2.277A2.158,2.158,0,0,0,27.216.108Zm1.341-2.565H25.7A1.448,1.448,0,0,1,27.126-3.9,1.407,1.407,0,0,1,28.557-2.457ZM30.987,0V-3.078a1.592,1.592,0,0,1,1.188-.693,2.229,2.229,0,0,1,.261.018v-.693a1.873,1.873,0,0,0-1.449.792v-.693h-.675V0Zm9.468,0c-.441-.405-.81-.765-1.17-1.134A7.84,7.84,0,0,0,40.1-2.682l-.576-.261a6.045,6.045,0,0,1-.648,1.377c-.234-.252-.468-.513-.711-.8-.2-.225-.459-.531-.7-.855.765-.4,1.53-.792,1.53-1.692a1.194,1.194,0,0,0-1.35-1.179,1.424,1.424,0,0,0-1.512,1.386,2.812,2.812,0,0,0,.459,1.35,2.026,2.026,0,0,0-1.323,1.791A1.668,1.668,0,0,0,37.134.108,2.363,2.363,0,0,0,38.862-.63c.243.243.477.477.657.63ZM37.206-.45a1.143,1.143,0,0,1-1.215-1.161,1.5,1.5,0,0,1,.891-1.3,10.315,10.315,0,0,0,.747.954c.171.207.486.549.828.909A1.742,1.742,0,0,1,37.206-.45Zm-.378-4.239a.841.841,0,0,1,.837-.882.654.654,0,0,1,.711.684c0,.6-.549.918-1.188,1.233A2.2,2.2,0,0,1,36.828-4.689Zm8.865,4.8c1.62,0,2.214-.9,2.214-1.764,0-2.241-3.555-1.467-3.555-2.817,0-.567.522-.954,1.233-.954a2.265,2.265,0,0,1,1.737.72l.45-.549A2.821,2.821,0,0,0,45.648-6.1c-1.188,0-2.07.684-2.07,1.674,0,2.142,3.555,1.278,3.555,2.826,0,.468-.342,1.044-1.413,1.044a2.476,2.476,0,0,1-1.881-.864l-.45.576A2.987,2.987,0,0,0,45.693.108Zm5.2,0a2.14,2.14,0,0,0,2.151-2.286A2.133,2.133,0,0,0,50.9-4.455a2.133,2.133,0,0,0-2.151,2.277A2.14,2.14,0,0,0,50.9.108Zm0-.6a1.514,1.514,0,0,1-1.44-1.683A1.511,1.511,0,0,1,50.9-3.852a1.511,1.511,0,0,1,1.44,1.674A1.514,1.514,0,0,1,50.9-.5Zm4.113.5V-3.753h.882v-.594h-.882V-4.68c0-.558.243-.855.693-.855a.781.781,0,0,1,.531.207l.279-.432a1.251,1.251,0,0,0-.918-.333,1.242,1.242,0,0,0-1.26,1.413v.333h-.72v.594h.72V0Zm2.8.108a1.1,1.1,0,0,0,.8-.279l-.2-.513a.639.639,0,0,1-.459.189c-.288,0-.432-.234-.432-.558v-2.7H58.4v-.594h-.882V-5.535h-.684v1.188h-.72v.594h.72V-.909A.892.892,0,0,0,57.807.108ZM63.792,0l1.386-4.347h-.711L63.4-.882,62.271-4.347h-.585L60.543-.882,59.481-4.347h-.7L60.165,0h.675l1.134-3.492L63.108,0Zm5.553,0V-2.988c0-1.053-.756-1.467-1.683-1.467a2.276,2.276,0,0,0-1.737.72l.315.468a1.7,1.7,0,0,1,1.332-.6c.63,0,1.1.333,1.1.909v.783a1.841,1.841,0,0,0-1.44-.585,1.411,1.411,0,0,0-1.512,1.431A1.445,1.445,0,0,0,67.23.108a1.867,1.867,0,0,0,1.44-.6V0ZM67.482-.378a.979.979,0,0,1-1.08-.954.977.977,0,0,1,1.08-.945,1.469,1.469,0,0,1,1.188.531v.828A1.45,1.45,0,0,1,67.482-.378Zm3.9.378V-3.078a1.592,1.592,0,0,1,1.188-.693,2.23,2.23,0,0,1,.261.018v-.693a1.873,1.873,0,0,0-1.449.792v-.693H70.7V0Zm4.266.108a2.4,2.4,0,0,0,1.728-.675l-.324-.441A1.892,1.892,0,0,1,75.7-.45a1.524,1.524,0,0,1-1.557-1.5h3.51v-.171a2.111,2.111,0,0,0-2.088-2.331,2.174,2.174,0,0,0-2.142,2.277A2.158,2.158,0,0,0,75.645.108Zm1.341-2.565H74.133A1.448,1.448,0,0,1,75.555-3.9,1.407,1.407,0,0,1,76.986-2.457Z" transform="translate(910 1778)"/><path class="i" d="M5.67,0V-6H4.923v4.689L1.467-6H.7V0h.747V-4.788L4.95,0ZM8.946.108A2.14,2.14,0,0,0,11.1-2.178,2.133,2.133,0,0,0,8.946-4.455,2.133,2.133,0,0,0,6.795-2.178,2.14,2.14,0,0,0,8.946.108Zm0-.6a1.514,1.514,0,0,1-1.44-1.683,1.511,1.511,0,0,1,1.44-1.674,1.511,1.511,0,0,1,1.44,1.674A1.514,1.514,0,0,1,8.946-.5Zm4.356.6a1.1,1.1,0,0,0,.8-.279l-.2-.513a.639.639,0,0,1-.459.189c-.288,0-.432-.234-.432-.558v-2.7H13.9v-.594h-.882V-5.535H12.33v1.188h-.72v.594h.72V-.909A.892.892,0,0,0,13.3.108Zm3.51,0A2.4,2.4,0,0,0,18.54-.567l-.324-.441a1.892,1.892,0,0,1-1.35.558,1.524,1.524,0,0,1-1.557-1.5h3.51v-.171a2.111,2.111,0,0,0-2.088-2.331,2.174,2.174,0,0,0-2.142,2.277A2.158,2.158,0,0,0,16.812.108Zm1.341-2.565H15.3A1.448,1.448,0,0,1,16.722-3.9,1.407,1.407,0,0,1,18.153-2.457ZM21.294.108c1.116,0,1.7-.585,1.7-1.314,0-1.692-2.691-1.071-2.691-2.016,0-.387.369-.684.963-.684a1.679,1.679,0,0,1,1.3.549l.315-.468a2.169,2.169,0,0,0-1.611-.63c-1.035,0-1.611.567-1.611,1.251,0,1.611,2.691.963,2.691,2.016,0,.432-.369.747-1.035.747a1.97,1.97,0,0,1-1.431-.621l-.342.486A2.332,2.332,0,0,0,21.294.108Z" transform="translate(1005 1778)"/><path class="i" d="M3.546.108a2.7,2.7,0,0,0,2.286-1.2L5.2-1.431a2.042,2.042,0,0,1-1.656.873A2.311,2.311,0,0,1,1.233-3,2.3,2.3,0,0,1,3.546-5.436,2.019,2.019,0,0,1,5.2-4.563l.621-.351A2.664,2.664,0,0,0,3.546-6.1,3,3,0,0,0,.459-3,3,3,0,0,0,3.546.108ZM10.377,0V-3.069A1.223,1.223,0,0,0,8.991-4.455a2.091,2.091,0,0,0-1.548.738V-6H6.768V0h.675V-3.177a1.675,1.675,0,0,1,1.278-.675c.594,0,.981.216.981.99V0ZM15.12,0V-2.988c0-1.053-.756-1.467-1.683-1.467a2.276,2.276,0,0,0-1.737.72l.315.468a1.7,1.7,0,0,1,1.332-.6c.63,0,1.1.333,1.1.909v.783a1.841,1.841,0,0,0-1.44-.585,1.411,1.411,0,0,0-1.512,1.431A1.445,1.445,0,0,0,13.005.108a1.867,1.867,0,0,0,1.44-.6V0ZM13.257-.378a.979.979,0,0,1-1.08-.954.977.977,0,0,1,1.08-.945,1.469,1.469,0,0,1,1.188.531v.828A1.45,1.45,0,0,1,13.257-.378Zm4.329.486a1.1,1.1,0,0,0,.8-.279l-.2-.513A.639.639,0,0,1,17.73-.5c-.288,0-.432-.234-.432-.558v-2.7h.882v-.594H17.3V-5.535h-.684v1.188h-.72v.594h.72V-.909A.892.892,0,0,0,17.586.108Z" transform="translate(1046 1778)"/><rect class="j" width="26.557" height="1.059" transform="translate(1042 1783.839)"/><g transform="translate(940 1630.489)"><rect class="k" width="56.079" height="56.079" rx="7.32" transform="translate(0 0)"/><g transform="translate(15.336 8.997)"><path class="l" d="M155.189,176.442V170.76H140.58v5.682l7.3,6.5Z" transform="translate(-134.823 -143.162)"/><path class="m" d="M140.58,170.76v6c9.205,3.311,14.609-4.987,14.609-4.987V170.76Z" transform="translate(-134.823 -143.162)"/><path class="n" d="M135.68,142.58l.709,15.556a4.861,4.861,0,0,0,1.94,3.675l3.358,2.517a4.841,4.841,0,0,0,2.92.973h3.245a4.874,4.874,0,0,0,2.927-.973l3.351-2.517a4.867,4.867,0,0,0,1.947-3.675l.7-15.556Z" transform="translate(-133.168 -133.644)"/><path class="l" d="M143.8,145.825c3.245,0,8.112-.815,9.271-3.245H135.68l.709,15.556a4.861,4.861,0,0,0,1.94,3.675l3.358,2.517a4.841,4.841,0,0,0,2.92.973h1.622c-1.622,0-4.867-3.245-4.867-7.285v-9.761A2.589,2.589,0,0,1,143.8,145.825Z" transform="translate(-133.168 -133.644)"/><path class="o" d="M159,134.2l.762,5.377c3.477.662,3.973,6.146,4.046,7.7a1.616,1.616,0,0,0,.258.788l1.324,2.06a7.763,7.763,0,0,1,1.622-5.682C167.04,144.447,167.755,130.951,159,134.2Z" transform="translate(-141.045 -130.643)"/><path class="n" d="M168.232,156.933l-.914,3.662a.98.98,0,0,1-.947.742h0a.987.987,0,0,1-.974-.854l-.464-3.755a1.682,1.682,0,0,1,1.662-1.887h0a1.682,1.682,0,0,1,1.636,2.093Z" transform="translate(-143.045 -137.785)"/><path class="p" d="M135.174,131.188l1.205.821c-5.43,4.007-4.417,10.881-4.417,10.881,1.622,1.622,1.622,5.682,1.622,5.682l1.629-1.622s-.629-4.689,2.43-6.5c2.841-1.675,5.3-.808,7.867-.808,6.795,0,8.7-2.563,8.364-5.682-.166-1.616-2.649-4.98-8.927-4.874C142.412,129.135,137.644,129.9,135.174,131.188Z" transform="translate(-131.887 -129.086)"/><path class="q" d="M134.7,140.47a8.914,8.914,0,0,1,1.675-6.92c-5.43,4.007-4.417,10.881-4.417,10.881,1.622,1.622,1.622,5.682,1.622,5.682l1.629-1.622s-.629-4.689,2.43-6.5c2.841-1.675,5.3-.808,7.867-.808a19.979,19.979,0,0,0,2.921-.205C143.22,141.133,140.114,137.159,134.7,140.47Z" transform="translate(-131.887 -130.594)"/><path class="l" d="M133.284,156.933l.914,3.662a.974.974,0,0,0,.947.742h0a.98.98,0,0,0,.967-.854l.47-3.755a1.682,1.682,0,0,0-1.669-1.887h0a1.682,1.682,0,0,0-1.629,2.093Z" transform="translate(-132.342 -137.785)"/></g><g transform="translate(7.298 42.172)"><path class="r" d="M161.955,193.087v-7.98a3.245,3.245,0,0,0-2.5-3.159l-10.046-2.364a1.675,1.675,0,0,1-.417-.172l-8.139,4.748-7.814-4.98a1.629,1.629,0,0,1-.742.4l-10.04,2.364a3.238,3.238,0,0,0-2.5,3.159v7.98Z" transform="translate(-119.75 -179.18)"/><path class="s" d="M125.71,189.812l-5.3-4.722a3.252,3.252,0,0,0-.662,1.987v6.358a1.622,1.622,0,0,0,1.622,1.622h5.682v-2.252a4.073,4.073,0,0,0-1.344-2.993Z" transform="translate(-119.75 -181.176)"/><path class="s" d="M173.794,189.812l5.258-4.722a3.218,3.218,0,0,1,.7,1.987v6.358a1.622,1.622,0,0,1-1.622,1.622H172.45v-2.252A4.073,4.073,0,0,1,173.794,189.812Z" transform="translate(-137.55 -181.176)"/><path class="s" d="M164.247,197.73h-5.662a.808.808,0,0,0-.815.808v.815h7.285v-.781a.808.808,0,0,0-.808-.841Z" transform="translate(-132.592 -185.445)"/></g><g transform="translate(18.669 40.265)"><path class="k" d="M152.61,196.455h-4.06l.5-7.3H152.1Z" transform="translate(-140.848 -180.641)"/><path class="t" d="M152.61,186.7h-4.06v1.523a.907.907,0,0,0,.907.907H151.7a.907.907,0,0,0,.907-.907V186.7Z" transform="translate(-140.848 -179.814)"/><path class="s" d="M139.231,176.506l7.417,6.682a28.159,28.159,0,0,0-4.636,3.159,1.04,1.04,0,0,1-1.609-.364l-3.483-7.669,1.1-1.649a.808.808,0,0,1,1.212-.159Z" transform="translate(-136.92 -176.301)"/><path class="s" d="M159.027,176.506l-7.417,6.682a27.817,27.817,0,0,1,4.636,3.159,1.046,1.046,0,0,0,1.616-.364l3.483-7.669-1.106-1.649a.808.808,0,0,0-1.212-.159Z" transform="translate(-141.882 -176.301)"/></g></g><g transform="translate(988.939 1627.939)"><circle class="c" cx="5.775" cy="5.775" r="5.775" transform="translate(0 0)"/><circle class="u" cx="4.232" cy="4.232" r="4.232" transform="translate(1.543 1.543)"/></g><g transform="translate(7 -11.416)"><g transform="translate(858 1744)"><rect class="j" width="64.715" height="17.338" rx="1.7"/><path class="c" d="M3.048,0,5.192-5.336h-.76L2.632-.728.832-5.336H.072L2.224,0ZM6.6.1A1.9,1.9,0,0,0,8.508-1.936,1.9,1.9,0,0,0,6.6-3.96,1.9,1.9,0,0,0,4.684-1.936,1.9,1.9,0,0,0,6.6.1Zm0-.536a1.346,1.346,0,0,1-1.28-1.5A1.343,1.343,0,0,1,6.6-3.424a1.343,1.343,0,0,1,1.28,1.488A1.346,1.346,0,0,1,6.6-.44ZM9.788-4.416a.4.4,0,0,0,.4-.4.4.4,0,0,0-.4-.408.41.41,0,0,0-.408.408A.4.4,0,0,0,9.788-4.416ZM10.084,0V-3.864h-.6V0Zm2.9.1A1.654,1.654,0,0,0,14.4-.576L14-.944a1.165,1.165,0,0,1-.984.5,1.358,1.358,0,0,1-1.336-1.5A1.351,1.351,0,0,1,13.02-3.424a1.138,1.138,0,0,1,.984.5l.4-.36a1.654,1.654,0,0,0-1.416-.672A1.909,1.909,0,0,0,11.06-1.936,1.916,1.916,0,0,0,12.988.1ZM17,.1A2.131,2.131,0,0,0,18.54-.5L18.252-.9a1.682,1.682,0,0,1-1.2.5,1.354,1.354,0,0,1-1.384-1.336h3.12v-.152A1.877,1.877,0,0,0,16.932-3.96a1.932,1.932,0,0,0-1.9,2.024A1.918,1.918,0,0,0,17,.1ZM18.2-2.184H15.66a1.287,1.287,0,0,1,1.264-1.28A1.251,1.251,0,0,1,18.2-2.184ZM24.38.1A2.4,2.4,0,0,0,26.412-.968l-.56-.3A1.815,1.815,0,0,1,24.38-.5a2.054,2.054,0,0,1-2.056-2.168A2.045,2.045,0,0,1,24.38-4.832a1.794,1.794,0,0,1,1.472.776l.552-.312A2.368,2.368,0,0,0,24.38-5.424a2.669,2.669,0,0,0-2.744,2.76A2.669,2.669,0,0,0,24.38.1ZM30.252,0V-2.656c0-.936-.672-1.3-1.5-1.3a2.023,2.023,0,0,0-1.544.64l.28.416a1.509,1.509,0,0,1,1.184-.536c.56,0,.976.3.976.808v.7a1.636,1.636,0,0,0-1.28-.52,1.254,1.254,0,0,0-1.344,1.272A1.285,1.285,0,0,0,28.372.1a1.659,1.659,0,0,0,1.28-.536V0ZM28.6-.336a.87.87,0,0,1-.96-.848.869.869,0,0,1,.96-.84,1.306,1.306,0,0,1,1.056.472v.736A1.289,1.289,0,0,1,28.6-.336ZM32.06,0V-5.336h-.6V0Zm1.8,0V-5.336h-.6V0Z" transform="translate(20.952 11.663)"/><path class="c" d="M36.617,267.629a1.6,1.6,0,0,1-.739.645,2.321,2.321,0,0,1-1.134.312,4.619,4.619,0,0,1-1.582-.416,5.535,5.535,0,0,1-1.041-.51,10.1,10.1,0,0,1-2.914-2.914,5.112,5.112,0,0,1-.5-1.041,4.756,4.756,0,0,1-.427-1.592,2.446,2.446,0,0,1,.312-1.134,1.655,1.655,0,0,1,.645-.739A2.915,2.915,0,0,1,30.07,260a.26.26,0,0,1,.125,0c.125,0,.26.343.323.458L31.1,261.5c.094.156.281.354.281.541,0,.364-1.1.905-1.1,1.239a1.384,1.384,0,0,0,.239.52,6.046,6.046,0,0,0,2.477,2.477,1.352,1.352,0,0,0,.531.239c.323,0,.864-1.1,1.228-1.1.187,0,.385.187.541.281l1.041.583c.125.062.416.2.458.323a.26.26,0,0,1,0,.125A2.613,2.613,0,0,1,36.617,267.629Z" transform="translate(-23.463 -255.418)"/><rect class="v" width="0.328" height="13.388" transform="translate(16.737 1.888)"/></g><g transform="translate(928.779 1744)"><rect class="j" width="64.715" height="17.338" rx="1.7" transform="translate(0)"/><path class="c" d="M3.048,0,5.192-5.336h-.76L2.632-.728.832-5.336H.072L2.224,0Zm3.12-4.416a.4.4,0,0,0,.4-.4.4.4,0,0,0-.4-.408.41.41,0,0,0-.408.408A.4.4,0,0,0,6.168-4.416ZM6.464,0V-3.864h-.6V0Zm4.6,0V-5.336h-.6V-3.28a1.615,1.615,0,0,0-1.3-.68A1.792,1.792,0,0,0,7.44-1.928C7.44-.672,8.152.1,9.16.1a1.627,1.627,0,0,0,1.3-.672V0ZM9.312-.44c-.784,0-1.248-.632-1.248-1.488s.464-1.5,1.248-1.5a1.435,1.435,0,0,1,1.152.624v1.744A1.429,1.429,0,0,1,9.312-.44Zm4.7.536a2.131,2.131,0,0,0,1.536-.6L15.264-.9a1.682,1.682,0,0,1-1.2.5A1.354,1.354,0,0,1,12.68-1.736H15.8v-.152A1.877,1.877,0,0,0,13.944-3.96a1.932,1.932,0,0,0-1.9,2.024A1.918,1.918,0,0,0,14.016.1Zm1.192-2.28H12.672a1.287,1.287,0,0,1,1.264-1.28A1.251,1.251,0,0,1,15.208-2.184ZM18.456.1a1.9,1.9,0,0,0,1.912-2.032A1.9,1.9,0,0,0,18.456-3.96a1.9,1.9,0,0,0-1.912,2.024A1.9,1.9,0,0,0,18.456.1Zm0-.536a1.346,1.346,0,0,1-1.28-1.5,1.343,1.343,0,0,1,1.28-1.488,1.343,1.343,0,0,1,1.28,1.488A1.346,1.346,0,0,1,18.456-.44ZM25.968.1A2.4,2.4,0,0,0,28-.968l-.56-.3A1.815,1.815,0,0,1,25.968-.5a2.054,2.054,0,0,1-2.056-2.168,2.045,2.045,0,0,1,2.056-2.168,1.794,1.794,0,0,1,1.472.776l.552-.312a2.368,2.368,0,0,0-2.024-1.056,2.669,2.669,0,0,0-2.744,2.76A2.669,2.669,0,0,0,25.968.1ZM31.84,0V-2.656c0-.936-.672-1.3-1.5-1.3a2.023,2.023,0,0,0-1.544.64l.28.416a1.509,1.509,0,0,1,1.184-.536c.56,0,.976.3.976.808v.7a1.636,1.636,0,0,0-1.28-.52,1.254,1.254,0,0,0-1.344,1.272A1.285,1.285,0,0,0,29.96.1,1.659,1.659,0,0,0,31.24-.44V0ZM30.184-.336a.87.87,0,0,1-.96-.848.869.869,0,0,1,.96-.84,1.306,1.306,0,0,1,1.056.472v.736A1.289,1.289,0,0,1,30.184-.336ZM33.648,0V-5.336h-.6V0Zm1.8,0V-5.336h-.6V0Z" transform="translate(20.945 11.663)"/><rect class="v" width="0.328" height="13.388" transform="translate(16.729 1.888)"/><path class="c" d="M128.089,266.82a.345.345,0,0,1-.2.3h-.131a.289.289,0,0,1-.224-.093L125.532,265v.84a1.456,1.456,0,0,1-1.456,1.465H120.5a1.456,1.456,0,0,1-1.5-1.465v-3.565a1.456,1.456,0,0,1,1.456-1.456h3.574a1.456,1.456,0,0,1,1.456,1.456v.84l2.044-2.034a.271.271,0,0,1,.224-.1.327.327,0,0,1,.327.327Z" transform="translate(-114.277 -255.128)"/></g><g transform="translate(998.469 1744)"><path class="w" d="M267.188,253.432a1.085,1.085,0,0,1,1.085,1.085V269.2a1.085,1.085,0,0,1-1.085,1.085H205.127a1.093,1.093,0,0,1-1.093-1.085V254.517a1.093,1.093,0,0,1,1.093-1.085h62.061m0-.242H205.127a1.327,1.327,0,0,0-1.327,1.327V269.2a1.327,1.327,0,0,0,1.327,1.327h62.061a1.327,1.327,0,0,0,1.327-1.327V254.517A1.327,1.327,0,0,0,267.188,253.19Z" transform="translate(-203.8 -253.19)"/><path class="i" d="M2.608,0V-4.744H4.3v-.592H.256v.592H1.944V0ZM4.524,0V-2.736A1.415,1.415,0,0,1,5.58-3.352a1.982,1.982,0,0,1,.232.016v-.616a1.665,1.665,0,0,0-1.288.7v-.616h-.6V0ZM9.58,0V-2.656c0-.936-.672-1.3-1.5-1.3a2.023,2.023,0,0,0-1.544.64l.28.416A1.509,1.509,0,0,1,8-3.44c.56,0,.976.3.976.808v.7a1.636,1.636,0,0,0-1.28-.52A1.254,1.254,0,0,0,6.356-1.184,1.285,1.285,0,0,0,7.7.1,1.659,1.659,0,0,0,8.98-.44V0ZM7.924-.336a.87.87,0,0,1-.96-.848.869.869,0,0,1,.96-.84,1.306,1.306,0,0,1,1.056.472v.736A1.289,1.289,0,0,1,7.924-.336ZM12.492.1a1.654,1.654,0,0,0,1.416-.672l-.4-.368a1.165,1.165,0,0,1-.984.5,1.358,1.358,0,0,1-1.336-1.5,1.351,1.351,0,0,1,1.336-1.488,1.138,1.138,0,0,1,.984.5l.4-.36a1.654,1.654,0,0,0-1.416-.672,1.909,1.909,0,0,0-1.928,2.024A1.916,1.916,0,0,0,12.492.1ZM18.156,0l-1.72-2.112,1.712-1.752h-.76L15.356-1.808V-5.336h-.6V0h.6V-1.1L16-1.736,17.388,0Zm1.016-4.416a.4.4,0,0,0,.4-.4.4.4,0,0,0-.4-.408.41.41,0,0,0-.408.408A.4.4,0,0,0,19.172-4.416ZM19.468,0V-3.864h-.6V0Zm4.408,0V-2.712A1.1,1.1,0,0,0,22.652-3.96a1.891,1.891,0,0,0-1.384.656v-.56h-.6V0h.6V-2.824a1.505,1.505,0,0,1,1.144-.6c.52,0,.872.208.872.9V0Zm2.76,1.568c.944,0,1.848-.4,1.848-1.624V-3.864h-.6v.584a1.615,1.615,0,0,0-1.3-.68c-1.016,0-1.72.768-1.72,2.008a1.759,1.759,0,0,0,1.72,2,1.641,1.641,0,0,0,1.3-.688v.584a1.105,1.105,0,0,1-1.248,1.128A1.492,1.492,0,0,1,25.38.552l-.3.432A1.974,1.974,0,0,0,26.636,1.568Zm.1-2.056c-.784,0-1.248-.616-1.248-1.464s.464-1.472,1.248-1.472a1.462,1.462,0,0,1,1.152.616v1.7A1.447,1.447,0,0,1,26.732-.488Z" transform="translate(20.937 10.924)"/><rect class="x" width="0.328" height="13.388" transform="translate(16.721 1.975)"/><g transform="translate(5.418 5.667)"><path class="i" d="M218.406,263.3c-.406-.546-1.452-1.952-1.85-2.5a1.07,1.07,0,0,0-.781-.351,1,1,0,0,1-2,0,1.061,1.061,0,0,0-.781.351c-.4.5-1.452,1.9-1.85,2.5a1.8,1.8,0,0,0-.406,1.155,2.006,2.006,0,0,0,4,0,2.006,2.006,0,0,0,4,0,1.8,1.8,0,0,0-.344-1.155Zm-5.6,2.155a1.007,1.007,0,1,1,1-1,1.007,1.007,0,0,1-1,1Zm4,0a1.007,1.007,0,1,1,1-1,1.007,1.007,0,0,1-1,1Z" transform="translate(-210.74 -260.45)"/></g></g></g><g transform="translate(11.348)"><path class="y" d="M45.9,333.42H122.2c1.86,0,3.369.789,3.369,1.762v12.184c0,.973-1.508,1.762-3.369,1.762H42.53V335.182c0-.973,1.508-1.762,3.369-1.762Z" transform="translate(834.684 1466.58)"/><path class="j" d="M0,0H78.17a2.408,2.408,0,0,1,2.32,2.488V13.228a2.408,2.408,0,0,1-2.32,2.488H2.32A2.408,2.408,0,0,1,0,13.228Z" transform="translate(1035.113 1852.979) rotate(180)"/><g transform="translate(877.362 1874.526)"><path class="y" d="M45.893,409.42h84.114a3.37,3.37,0,0,1,3.37,3.37v20.651a3.37,3.37,0,0,1-3.37,3.37H42.53V412.783a3.37,3.37,0,0,1,3.363-3.363Z" transform="translate(-42.53 -409.42)"/></g><path class="y" d="M45.1,545.42H93.083a2.574,2.574,0,0,1,2.573,2.574v22.238a2.573,2.573,0,0,1-2.573,2.573H42.53V547.994A2.573,2.573,0,0,1,45.1,545.42Z" transform="translate(834.832 1429.331)"/><path class="j" d="M.007,0H100.048c2.535,0,4.59,1.395,4.59,3.115V26.84c0,1.72-2.055,3.115-4.59,3.115H4.59C2.055,29.955,0,28.56,0,26.84V0Z" transform="translate(1034.709 1953.136) rotate(180)"/><g transform="translate(857.652 1986.792)"><circle class="z" cx="7.705" cy="7.705" r="7.705" transform="translate(0 0)"/><path class="aa" d="M29.3,580.11Z" transform="translate(-21.563 -569.166)"/><path class="aa" d="M35.768,581.738a7.812,7.812,0,0,1-12.138,0,6.961,6.961,0,0,1,3.863-2.378,4.3,4.3,0,0,0,.334,1.872c.43-.979,1.872-1.076,1.872-1.076s1.442.086,1.862,1.076a4.133,4.133,0,0,0,.334-1.872,6.887,6.887,0,0,1,3.874,2.378Z" transform="translate(-21.994 -569.224)"/><path class="ab" d="M31.159,578.694h0c0,.118-.065.9-1.732,1.539h-.065c-1.668-.635-1.722-1.42-1.722-1.539h0a2.493,2.493,0,0,1,.065-.484,2.292,2.292,0,0,0,1.689,1.011,2.292,2.292,0,0,0,1.689-1.011A2.516,2.516,0,0,1,31.159,578.694Z" transform="translate(-21.689 -569.311)"/><path class="ac" d="M31.035,578.66s.086.882-1.765,1.571c0,0,1.442.086,1.862,1.076C31.132,581.329,31.982,579.187,31.035,578.66Z" transform="translate(-21.565 -569.277)"/><path class="ac" d="M27.672,578.66c-.947.527-.129,2.669-.108,2.626.43-.979,1.862-1.076,1.862-1.076C27.586,579.542,27.672,578.66,27.672,578.66Z" transform="translate(-21.722 -569.277)"/><path class="ab" d="M32.027,575.983a3.508,3.508,0,0,1-.99,2.023,3.845,3.845,0,0,1-.334.28l-.2-.624H28.347l-.2.624A3.024,3.024,0,0,1,27,576.391c-.344-4.412,3.034-3.475,3.034-3.475C32.274,572.755,32.2,574.756,32.027,575.983Z" transform="translate(-21.74 -569.72)"/><path class="ab" d="M32.134,576.593a1.249,1.249,0,0,1-.624.549,5.958,5.958,0,0,0,.226-.613h0l.14-.56h0c.054-.183.1-.366.14-.549a.322.322,0,0,1,.151.054C32.425,575.635,32.414,576.13,32.134,576.593Z" transform="translate(-21.395 -569.523)"/><path class="ab" d="M27.06,577.115a1.248,1.248,0,0,1-.624-.549c-.291-.463-.291-.958,0-1.076h0a9.947,9.947,0,0,0,.355,1.076A.976.976,0,0,1,27.06,577.115Z" transform="translate(-21.798 -569.518)"/><path class="ad" d="M30.853,571.836c.1-1.076-1.7-1.076-1.7-1.076a3.475,3.475,0,0,0-3.013,2.927l.366-.441c-.581,1.27.3,3.443.366,3.616.463,1.517,1.463,2.905,2.636,2.905s2.152-1.388,2.636-2.905h0a3.791,3.791,0,0,1,.129-.56h0c.247-.979.517-1.98.517-1.98C33.522,570.8,30.853,571.836,30.853,571.836Zm1.237,4.3a3.508,3.508,0,0,1-.99,2.023l-.334.28-.2-.613H28.41l-.2.624a3.885,3.885,0,0,1-.99-1.162,2.622,2.622,0,0,1-.237-.732c-.344-4.412,3.034-3.476,3.034-3.476C32.338,572.912,32.263,574.914,32.091,576.14Z" transform="translate(-21.803 -569.878)"/><path class="ab" d="M28.47,577.72a1.14,1.14,0,0,0,.861.387,1.076,1.076,0,0,0,.861-.387Z" transform="translate(-21.626 -569.348)"/></g><g transform="translate(857.652 1886.237)"><circle class="z" cx="7.705" cy="7.705" r="7.705"/><path class="aa" d="M29.3,580.11Z" transform="translate(-21.563 -569.166)"/><path class="aa" d="M35.768,581.738a7.812,7.812,0,0,1-12.138,0,6.961,6.961,0,0,1,3.863-2.378,4.3,4.3,0,0,0,.334,1.872c.43-.979,1.872-1.076,1.872-1.076s1.442.086,1.862,1.076a4.133,4.133,0,0,0,.334-1.872,6.887,6.887,0,0,1,3.874,2.378Z" transform="translate(-21.994 -569.224)"/><path class="ab" d="M31.159,578.694h0c0,.118-.065.9-1.732,1.539h-.065c-1.668-.635-1.722-1.42-1.722-1.539h0a2.493,2.493,0,0,1,.065-.484,2.292,2.292,0,0,0,1.689,1.011,2.292,2.292,0,0,0,1.689-1.011A2.516,2.516,0,0,1,31.159,578.694Z" transform="translate(-21.689 -569.311)"/><path class="ac" d="M31.035,578.66s.086.882-1.765,1.571c0,0,1.442.086,1.862,1.076C31.132,581.329,31.982,579.187,31.035,578.66Z" transform="translate(-21.565 -569.277)"/><path class="ac" d="M27.672,578.66c-.947.527-.129,2.669-.108,2.626.43-.979,1.862-1.076,1.862-1.076C27.586,579.542,27.672,578.66,27.672,578.66Z" transform="translate(-21.722 -569.277)"/><path class="ab" d="M32.027,575.983a3.508,3.508,0,0,1-.99,2.023,3.845,3.845,0,0,1-.334.28l-.2-.624H28.347l-.2.624A3.024,3.024,0,0,1,27,576.391c-.344-4.412,3.034-3.475,3.034-3.475C32.274,572.755,32.2,574.756,32.027,575.983Z" transform="translate(-21.74 -569.72)"/><path class="ab" d="M32.134,576.593a1.249,1.249,0,0,1-.624.549,5.958,5.958,0,0,0,.226-.613h0l.14-.56h0c.054-.183.1-.366.14-.549a.322.322,0,0,1,.151.054C32.425,575.635,32.414,576.13,32.134,576.593Z" transform="translate(-21.395 -569.523)"/><path class="ab" d="M27.06,577.115a1.248,1.248,0,0,1-.624-.549c-.291-.463-.291-.958,0-1.076h0a9.947,9.947,0,0,0,.355,1.076A.976.976,0,0,1,27.06,577.115Z" transform="translate(-21.798 -569.518)"/><path class="ad" d="M30.853,571.836c.1-1.076-1.7-1.076-1.7-1.076a3.475,3.475,0,0,0-3.013,2.927l.366-.441c-.581,1.27.3,3.443.366,3.616.463,1.517,1.463,2.905,2.636,2.905s2.152-1.388,2.636-2.905h0a3.791,3.791,0,0,1,.129-.56h0c.247-.979.517-1.98.517-1.98C33.522,570.8,30.853,571.836,30.853,571.836Zm1.237,4.3a3.508,3.508,0,0,1-.99,2.023l-.334.28-.2-.613H28.41l-.2.624a3.885,3.885,0,0,1-.99-1.162,2.622,2.622,0,0,1-.237-.732c-.344-4.412,3.034-3.476,3.034-3.476C32.338,572.912,32.263,574.914,32.091,576.14Z" transform="translate(-21.803 -569.878)"/><path class="ab" d="M28.47,577.72a1.14,1.14,0,0,0,.861.387,1.076,1.076,0,0,0,.861-.387Z" transform="translate(-21.626 -569.348)"/></g><g transform="translate(857.652 1800)"><circle class="z" cx="7.705" cy="7.705" r="7.705"/><path class="aa" d="M29.3,580.11Z" transform="translate(-21.563 -569.166)"/><path class="aa" d="M35.768,581.738a7.812,7.812,0,0,1-12.138,0,6.961,6.961,0,0,1,3.863-2.378,4.3,4.3,0,0,0,.334,1.872c.43-.979,1.872-1.076,1.872-1.076s1.442.086,1.862,1.076a4.133,4.133,0,0,0,.334-1.872,6.887,6.887,0,0,1,3.874,2.378Z" transform="translate(-21.994 -569.224)"/><path class="ab" d="M31.159,578.694h0c0,.118-.065.9-1.732,1.539h-.065c-1.668-.635-1.722-1.42-1.722-1.539h0a2.493,2.493,0,0,1,.065-.484,2.292,2.292,0,0,0,1.689,1.011,2.292,2.292,0,0,0,1.689-1.011A2.516,2.516,0,0,1,31.159,578.694Z" transform="translate(-21.689 -569.311)"/><path class="ac" d="M31.035,578.66s.086.882-1.765,1.571c0,0,1.442.086,1.862,1.076C31.132,581.329,31.982,579.187,31.035,578.66Z" transform="translate(-21.565 -569.277)"/><path class="ac" d="M27.672,578.66c-.947.527-.129,2.669-.108,2.626.43-.979,1.862-1.076,1.862-1.076C27.586,579.542,27.672,578.66,27.672,578.66Z" transform="translate(-21.722 -569.277)"/><path class="ab" d="M32.027,575.983a3.508,3.508,0,0,1-.99,2.023,3.845,3.845,0,0,1-.334.28l-.2-.624H28.347l-.2.624A3.024,3.024,0,0,1,27,576.391c-.344-4.412,3.034-3.475,3.034-3.475C32.274,572.755,32.2,574.756,32.027,575.983Z" transform="translate(-21.74 -569.72)"/><path class="ab" d="M32.134,576.593a1.249,1.249,0,0,1-.624.549,5.958,5.958,0,0,0,.226-.613h0l.14-.56h0c.054-.183.1-.366.14-.549a.322.322,0,0,1,.151.054C32.425,575.635,32.414,576.13,32.134,576.593Z" transform="translate(-21.395 -569.523)"/><path class="ab" d="M27.06,577.115a1.248,1.248,0,0,1-.624-.549c-.291-.463-.291-.958,0-1.076h0a9.947,9.947,0,0,0,.355,1.076A.976.976,0,0,1,27.06,577.115Z" transform="translate(-21.798 -569.518)"/><path class="ad" d="M30.853,571.836c.1-1.076-1.7-1.076-1.7-1.076a3.475,3.475,0,0,0-3.013,2.927l.366-.441c-.581,1.27.3,3.443.366,3.616.463,1.517,1.463,2.905,2.636,2.905s2.152-1.388,2.636-2.905h0a3.791,3.791,0,0,1,.129-.56h0c.247-.979.517-1.98.517-1.98C33.522,570.8,30.853,571.836,30.853,571.836Zm1.237,4.3a3.508,3.508,0,0,1-.99,2.023l-.334.28-.2-.613H28.41l-.2.624a3.885,3.885,0,0,1-.99-1.162,2.622,2.622,0,0,1-.237-.732c-.344-4.412,3.034-3.476,3.034-3.476C32.338,572.912,32.263,574.914,32.091,576.14Z" transform="translate(-21.803 -569.878)"/><path class="ab" d="M28.47,577.72a1.14,1.14,0,0,0,.861.387,1.076,1.076,0,0,0,.861-.387Z" transform="translate(-21.626 -569.348)"/></g><g transform="translate(1039.774 1937.818)"><circle class="j" cx="7.672" cy="7.672" r="7.672"/><g class="ae"><path class="af" d="M276.739,522.481l-.311-.161a.225.225,0,0,1-.118-.193v-.8a.225.225,0,0,1,.118-.193l.311-.161Z" transform="translate(-272.088 -513.438)"/><path class="l" d="M281.6,525.091V523.58H277.72v1.511l1.939,1.725Z" transform="translate(-271.988 -513.251)"/><path class="ag" d="M284.833,525.7l-2.657-.632h-.118l-2.143,1.264L277.825,525a.343.343,0,0,1-.193.107l-2.668.632a.857.857,0,0,0-.664.836v1.639a.429.429,0,0,0,.429.439h10.34a.429.429,0,0,0,.429-.439v-1.682A.846.846,0,0,0,284.833,525.7Z" transform="translate(-272.232 -513.149)"/><path class="m" d="M277.72,523.58v1.6a3.365,3.365,0,0,0,3.879-1.329v-.268Z" transform="translate(-271.988 -513.251)"/><path class="n" d="M276.92,519l.182,4.125a1.286,1.286,0,0,0,.514.975l.889.675a1.361,1.361,0,0,0,.782.257h.857a1.329,1.329,0,0,0,.771-.257l.889-.675a1.3,1.3,0,0,0,.525-.975l.182-4.125Z" transform="translate(-272.045 -513.578)"/><path class="l" d="M279.074,519.817c.857,0,2.143-.214,2.454-.857H276.92l.182,4.125a1.285,1.285,0,0,0,.514.975l.889.675a1.362,1.362,0,0,0,.782.257h.429a2.014,2.014,0,0,1-1.3-1.939v-2.582A.7.7,0,0,1,279.074,519.817Z" transform="translate(-272.045 -513.581)"/><path class="ah" d="M275.886,527.183l-1.393-1.253a.857.857,0,0,0-.193.536v1.682a.429.429,0,0,0,.429.439h1.511v-.6A1.072,1.072,0,0,0,275.886,527.183Z" transform="translate(-272.232 -513.083)"/><path class="ah" d="M283.3,527.183l1.393-1.253a.856.856,0,0,1,.182.536v1.682a.429.429,0,0,1-.429.439H282.94v-.6A1.071,1.071,0,0,1,283.3,527.183Z" transform="translate(-271.615 -513.083)"/><path class="k" d="M280.1,528.539H279.03l.129-1.939h.8Z" transform="translate(-271.894 -513.035)"/><path class="t" d="M280.071,526.2H279v.4a.236.236,0,0,0,.236.247h.6a.236.236,0,0,0,.236-.247Z" transform="translate(-271.896 -513.064)"/><path class="ah" d="M277.731,524.544l1.971,1.779a7.265,7.265,0,0,0-1.232.836.279.279,0,0,1-.429-.1l-.921-2.036.289-.439a.214.214,0,0,1,.321-.043Z" transform="translate(-272.031 -513.186)"/><path class="ah" d="M281.5,524.544l-1.971,1.779a7.8,7.8,0,0,1,1.232.836.278.278,0,0,0,.429-.1l.921-2.036-.289-.439a.214.214,0,0,0-.321-.043Z" transform="translate(-271.858 -513.186)"/><path class="o" d="M280.75,517.639l.2,1.425c.921.182,1.071,1.629,1.071,2.047a.332.332,0,0,0,.064.2l.354.547a2.056,2.056,0,0,1,.429-1.5S283.064,516.771,280.75,517.639Z" transform="translate(-271.771 -513.685)"/><path class="p" d="M277.169,517.307l.321.214a3.214,3.214,0,0,0-1.179,2.893,2.636,2.636,0,0,1,.429,1.5l.439-.429s-.171-1.243.643-1.725a3.5,3.5,0,0,1,2.089-.214c1.8,0,2.3-.675,2.218-1.5,0-.429-.7-1.329-2.368-1.3A7.177,7.177,0,0,0,277.169,517.307Z" transform="translate(-272.09 -513.739)"/><path class="q" d="M277.05,519.313a2.39,2.39,0,0,1,.45-1.843,3.215,3.215,0,0,0-1.179,2.893,2.636,2.636,0,0,1,.429,1.5l.439-.429s-.171-1.243.643-1.725a3.5,3.5,0,0,1,2.089-.214,5.465,5.465,0,0,0,.771-.054C279.29,519.495,278.475,518.434,277.05,519.313Z" transform="translate(-272.089 -513.688)"/><path class="k" d="M277.036,522.707H276.7a.214.214,0,0,1-.214-.214v-1.479a.214.214,0,0,1,.214-.214h.332a.107.107,0,0,1,.107.107v1.725a.118.118,0,0,1-.107.075Z" transform="translate(-272.076 -513.45)"/><path class="ai" d="M280.33,523.823V523.5c1.457,0,1.779-.814,1.779-1.071h.321C282.43,522.773,282.055,523.823,280.33,523.823Z" transform="translate(-271.801 -513.333)"/><path class="k" d="M280.359,523.808h-.214a.214.214,0,0,1-.214-.214h0a.214.214,0,0,1,.214-.214h.214a.214.214,0,0,1,.214.214h0A.214.214,0,0,1,280.359,523.808Z" transform="translate(-271.83 -513.265)"/><path class="af" d="M282.34,522.481l.311-.161a.2.2,0,0,0,.118-.193v-.8a.2.2,0,0,0-.118-.193l-.311-.161Z" transform="translate(-271.657 -513.438)"/><path class="k" d="M282.007,522.707h.321a.214.214,0,0,0,.214-.214v-1.479a.214.214,0,0,0-.214-.214h-.321a.1.1,0,0,0-.107.107v1.725a.107.107,0,0,0,.107.075Z" transform="translate(-271.689 -513.45)"/><path class="ah" d="M282.255,528h-1.511a.214.214,0,0,0-.214.225v.214h1.939v-.214a.214.214,0,0,0-.214-.225Z" transform="translate(-271.787 -512.935)"/></g></g><g transform="translate(1039.774 1837.263)"><circle class="j" cx="7.672" cy="7.672" r="7.672" transform="translate(0 0)"/><g class="ae" transform="translate(0 0)"><path class="af" d="M276.739,522.481l-.311-.161a.225.225,0,0,1-.118-.193v-.8a.225.225,0,0,1,.118-.193l.311-.161Z" transform="translate(-272.088 -513.438)"/><path class="l" d="M281.6,525.091V523.58H277.72v1.511l1.939,1.725Z" transform="translate(-271.988 -513.251)"/><path class="ag" d="M284.833,525.7l-2.657-.632h-.118l-2.143,1.264L277.825,525a.343.343,0,0,1-.193.107l-2.668.632a.857.857,0,0,0-.664.836v1.639a.429.429,0,0,0,.429.439h10.34a.429.429,0,0,0,.429-.439v-1.682A.846.846,0,0,0,284.833,525.7Z" transform="translate(-272.232 -513.149)"/><path class="m" d="M277.72,523.58v1.6a3.365,3.365,0,0,0,3.879-1.329v-.268Z" transform="translate(-271.988 -513.251)"/><path class="n" d="M276.92,519l.182,4.125a1.286,1.286,0,0,0,.514.975l.889.675a1.361,1.361,0,0,0,.782.257h.857a1.329,1.329,0,0,0,.771-.257l.889-.675a1.3,1.3,0,0,0,.525-.975l.182-4.125Z" transform="translate(-272.045 -513.578)"/><path class="l" d="M279.074,519.817c.857,0,2.143-.214,2.454-.857H276.92l.182,4.125a1.285,1.285,0,0,0,.514.975l.889.675a1.362,1.362,0,0,0,.782.257h.429a2.014,2.014,0,0,1-1.3-1.939v-2.582A.7.7,0,0,1,279.074,519.817Z" transform="translate(-272.045 -513.581)"/><path class="ah" d="M275.886,527.183l-1.393-1.253a.857.857,0,0,0-.193.536v1.682a.429.429,0,0,0,.429.439h1.511v-.6A1.072,1.072,0,0,0,275.886,527.183Z" transform="translate(-272.232 -513.083)"/><path class="ah" d="M283.3,527.183l1.393-1.253a.856.856,0,0,1,.182.536v1.682a.429.429,0,0,1-.429.439H282.94v-.6A1.071,1.071,0,0,1,283.3,527.183Z" transform="translate(-271.615 -513.083)"/><path class="k" d="M280.1,528.539H279.03l.129-1.939h.8Z" transform="translate(-271.894 -513.035)"/><path class="t" d="M280.071,526.2H279v.4a.236.236,0,0,0,.236.247h.6a.236.236,0,0,0,.236-.247Z" transform="translate(-271.896 -513.064)"/><path class="ah" d="M277.731,524.544l1.971,1.779a7.265,7.265,0,0,0-1.232.836.279.279,0,0,1-.429-.1l-.921-2.036.289-.439a.214.214,0,0,1,.321-.043Z" transform="translate(-272.031 -513.186)"/><path class="ah" d="M281.5,524.544l-1.971,1.779a7.8,7.8,0,0,1,1.232.836.278.278,0,0,0,.429-.1l.921-2.036-.289-.439a.214.214,0,0,0-.321-.043Z" transform="translate(-271.858 -513.186)"/><path class="o" d="M280.75,517.639l.2,1.425c.921.182,1.071,1.629,1.071,2.047a.332.332,0,0,0,.064.2l.354.547a2.056,2.056,0,0,1,.429-1.5S283.064,516.771,280.75,517.639Z" transform="translate(-271.771 -513.685)"/><path class="p" d="M277.169,517.307l.321.214a3.214,3.214,0,0,0-1.179,2.893,2.636,2.636,0,0,1,.429,1.5l.439-.429s-.171-1.243.643-1.725a3.5,3.5,0,0,1,2.089-.214c1.8,0,2.3-.675,2.218-1.5,0-.429-.7-1.329-2.368-1.3A7.177,7.177,0,0,0,277.169,517.307Z" transform="translate(-272.09 -513.739)"/><path class="q" d="M277.05,519.313a2.39,2.39,0,0,1,.45-1.843,3.215,3.215,0,0,0-1.179,2.893,2.636,2.636,0,0,1,.429,1.5l.439-.429s-.171-1.243.643-1.725a3.5,3.5,0,0,1,2.089-.214,5.465,5.465,0,0,0,.771-.054C279.29,519.495,278.475,518.434,277.05,519.313Z" transform="translate(-272.089 -513.688)"/><path class="k" d="M277.036,522.707H276.7a.214.214,0,0,1-.214-.214v-1.479a.214.214,0,0,1,.214-.214h.332a.107.107,0,0,1,.107.107v1.725a.118.118,0,0,1-.107.075Z" transform="translate(-272.076 -513.45)"/><path class="ai" d="M280.33,523.823V523.5c1.457,0,1.779-.814,1.779-1.071h.321C282.43,522.773,282.055,523.823,280.33,523.823Z" transform="translate(-271.801 -513.333)"/><path class="k" d="M280.359,523.808h-.214a.214.214,0,0,1-.214-.214h0a.214.214,0,0,1,.214-.214h.214a.214.214,0,0,1,.214.214h0A.214.214,0,0,1,280.359,523.808Z" transform="translate(-271.83 -513.265)"/><path class="af" d="M282.34,522.481l.311-.161a.2.2,0,0,0,.118-.193v-.8a.2.2,0,0,0-.118-.193l-.311-.161Z" transform="translate(-271.657 -513.438)"/><path class="k" d="M282.007,522.707h.321a.214.214,0,0,0,.214-.214v-1.479a.214.214,0,0,0-.214-.214h-.321a.1.1,0,0,0-.107.107v1.725a.107.107,0,0,0,.107.075Z" transform="translate(-271.689 -513.45)"/><path class="ah" d="M282.255,528h-1.511a.214.214,0,0,0-.214.225v.214h1.939v-.214a.214.214,0,0,0-.214-.225Z" transform="translate(-271.787 -512.935)"/></g></g></g><path class="aj" d="M3.528.144c2.16,0,2.952-1.2,2.952-2.352,0-2.988-4.74-1.956-4.74-3.756,0-.756.7-1.272,1.644-1.272a3.02,3.02,0,0,1,2.316.96l.6-.732A3.761,3.761,0,0,0,3.468-8.136c-1.584,0-2.76.912-2.76,2.232,0,2.856,4.74,1.7,4.74,3.768,0,.624-.456,1.392-1.884,1.392A3.3,3.3,0,0,1,1.056-1.9l-.6.768A3.982,3.982,0,0,0,3.528.144ZM12.456,0V-3.984c0-1.4-1.008-1.956-2.244-1.956A3.034,3.034,0,0,0,7.9-4.98l.42.624a2.263,2.263,0,0,1,1.776-.8c.84,0,1.464.444,1.464,1.212V-2.9a2.454,2.454,0,0,0-1.92-.78A1.881,1.881,0,0,0,7.62-1.776,1.927,1.927,0,0,0,9.636.144a2.489,2.489,0,0,0,1.92-.8V0ZM9.972-.5a1.3,1.3,0,0,1-1.44-1.272,1.3,1.3,0,0,1,1.44-1.26,1.959,1.959,0,0,1,1.584.708v1.1A1.933,1.933,0,0,1,9.972-.5ZM19.08,0V-4.068A1.644,1.644,0,0,0,17.244-5.94a2.836,2.836,0,0,0-2.076.984V-5.8h-.9V0h.9V-4.236a2.258,2.258,0,0,1,1.716-.9c.78,0,1.308.312,1.308,1.344V0Zm5.952,0V-3.648H29.2v-.888H25.032v-2.58H29.28V-8H24.036V0Zm6.48,0V-4.1A2.122,2.122,0,0,1,33.1-5.028,2.973,2.973,0,0,1,33.444-5v-.924a2.5,2.5,0,0,0-1.932,1.056V-5.8h-.9V0ZM39.1,0V-3.984c0-1.4-1.008-1.956-2.244-1.956a3.034,3.034,0,0,0-2.316.96l.42.624a2.263,2.263,0,0,1,1.776-.8c.84,0,1.464.444,1.464,1.212V-2.9a2.454,2.454,0,0,0-1.92-.78A1.881,1.881,0,0,0,34.26-1.776,1.927,1.927,0,0,0,36.276.144a2.489,2.489,0,0,0,1.92-.8V0ZM36.612-.5a1.3,1.3,0,0,1-1.44-1.272,1.3,1.3,0,0,1,1.44-1.26,1.959,1.959,0,0,1,1.584.708v1.1A1.933,1.933,0,0,1,36.612-.5ZM45.72,0V-4.068A1.644,1.644,0,0,0,43.884-5.94a2.836,2.836,0,0,0-2.076.984V-5.8h-.9V0h.9V-4.236a2.258,2.258,0,0,1,1.716-.9c.78,0,1.308.312,1.308,1.344V0Zm4.368.144A2.481,2.481,0,0,0,52.212-.864l-.6-.552a1.748,1.748,0,0,1-1.476.756,2.036,2.036,0,0,1-2-2.244,2.026,2.026,0,0,1,2-2.232,1.707,1.707,0,0,1,1.476.744l.6-.54A2.481,2.481,0,0,0,50.088-5.94,2.863,2.863,0,0,0,47.2-2.9,2.873,2.873,0,0,0,50.088.144ZM53.94-6.624a.594.594,0,0,0,.6-.6.6.6,0,0,0-.6-.612.615.615,0,0,0-.612.612A.6.6,0,0,0,53.94-6.624ZM54.384,0V-5.8h-.9V0Zm3.648.144c1.488,0,2.268-.78,2.268-1.752,0-2.256-3.588-1.428-3.588-2.688,0-.516.492-.912,1.284-.912a2.239,2.239,0,0,1,1.728.732l.42-.624A2.892,2.892,0,0,0,58-5.94c-1.38,0-2.148.756-2.148,1.668,0,2.148,3.588,1.284,3.588,2.688,0,.576-.492,1-1.38,1a2.626,2.626,0,0,1-1.908-.828l-.456.648A3.109,3.109,0,0,0,58.032.144Zm6.288,0A2.481,2.481,0,0,0,66.444-.864l-.6-.552a1.748,1.748,0,0,1-1.476.756,2.036,2.036,0,0,1-2-2.244,2.026,2.026,0,0,1,2-2.232,1.707,1.707,0,0,1,1.476.744l.6-.54A2.481,2.481,0,0,0,64.32-5.94,2.863,2.863,0,0,0,61.428-2.9,2.873,2.873,0,0,0,64.32.144Zm5.928,0A2.854,2.854,0,0,0,73.116-2.9,2.844,2.844,0,0,0,70.248-5.94,2.844,2.844,0,0,0,67.38-2.9,2.854,2.854,0,0,0,70.248.144Zm0-.8A2.019,2.019,0,0,1,68.328-2.9a2.015,2.015,0,0,1,1.92-2.232A2.015,2.015,0,0,1,72.168-2.9,2.019,2.019,0,0,1,70.248-.66Zm5.46.372a.808.808,0,0,0-.756-.912.643.643,0,0,0-.636.648.585.585,0,0,0,.576.612A.556.556,0,0,0,75.06.036a1.791,1.791,0,0,1-.78,1.116l.456.372A2.3,2.3,0,0,0,75.708-.288Zm8.484.432a3.6,3.6,0,0,0,3.048-1.6l-.84-.456A2.723,2.723,0,0,1,84.192-.744,3.081,3.081,0,0,1,81.108-4a3.067,3.067,0,0,1,3.084-3.252A2.692,2.692,0,0,1,86.4-6.084l.828-.468a3.552,3.552,0,0,0-3.036-1.584A4,4,0,0,0,80.076-4,4,4,0,0,0,84.192.144ZM93,0V-3.984c0-1.4-1.008-1.956-2.244-1.956a3.034,3.034,0,0,0-2.316.96l.42.624a2.263,2.263,0,0,1,1.776-.8c.84,0,1.464.444,1.464,1.212V-2.9a2.454,2.454,0,0,0-1.92-.78,1.881,1.881,0,0,0-2.016,1.908A1.927,1.927,0,0,0,90.18.144a2.489,2.489,0,0,0,1.92-.8V0ZM90.516-.5a1.3,1.3,0,0,1-1.44-1.272,1.3,1.3,0,0,1,1.44-1.26,1.959,1.959,0,0,1,1.584.708v1.1A1.933,1.933,0,0,1,90.516-.5Zm5.2.5V-8h-.9V0Zm2.256-6.624a.594.594,0,0,0,.6-.6.6.6,0,0,0-.6-.612.615.615,0,0,0-.612.612A.6.6,0,0,0,97.968-6.624ZM98.412,0V-5.8h-.9V0Zm2.952,0V-5h1.176V-5.8h-1.176V-6.24c0-.744.324-1.14.924-1.14A1.041,1.041,0,0,1,103-7.1l.372-.576a1.668,1.668,0,0,0-1.224-.444,1.656,1.656,0,0,0-1.68,1.884V-5.8H99.5V-5h.96V0Zm4.788.144A2.854,2.854,0,0,0,109.02-2.9a2.844,2.844,0,0,0-2.868-3.036A2.844,2.844,0,0,0,103.284-2.9,2.854,2.854,0,0,0,106.152.144Zm0-.8a2.019,2.019,0,0,1-1.92-2.244,2.015,2.015,0,0,1,1.92-2.232,2.015,2.015,0,0,1,1.92,2.232A2.019,2.019,0,0,1,106.152-.66Zm5.232.66V-4.1a2.122,2.122,0,0,1,1.584-.924,2.973,2.973,0,0,1,.348.024v-.924a2.5,2.5,0,0,0-1.932,1.056V-5.8h-.9V0Zm7.872,0V-4.068A1.644,1.644,0,0,0,117.42-5.94a2.836,2.836,0,0,0-2.076.984V-5.8h-.9V0h.9V-4.236a2.258,2.258,0,0,1,1.716-.9c.78,0,1.308.312,1.308,1.344V0Zm2.268-6.624a.594.594,0,0,0,.6-.6.6.6,0,0,0-.6-.612.615.615,0,0,0-.612.612A.6.6,0,0,0,121.524-6.624ZM121.968,0V-5.8h-.9V0Zm6.324,0V-3.984c0-1.4-1.008-1.956-2.244-1.956a3.034,3.034,0,0,0-2.316.96l.42.624a2.263,2.263,0,0,1,1.776-.8c.84,0,1.464.444,1.464,1.212V-2.9a2.454,2.454,0,0,0-1.92-.78,1.881,1.881,0,0,0-2.016,1.908,1.927,1.927,0,0,0,2.016,1.92,2.489,2.489,0,0,0,1.92-.8V0Zm-2.484-.5a1.3,1.3,0,0,1-1.44-1.272,1.3,1.3,0,0,1,1.44-1.26,1.959,1.959,0,0,1,1.584.708v1.1A1.933,1.933,0,0,1,125.808-.5Zm5.508.216a.808.808,0,0,0-.756-.912.643.643,0,0,0-.636.648A.585.585,0,0,0,130.5.06a.556.556,0,0,0,.168-.024,1.791,1.791,0,0,1-.78,1.116l.456.372A2.3,2.3,0,0,0,131.316-.288Zm7.956.432a2.973,2.973,0,0,0,3.276-3.264V-8H141.54v4.872a2.129,2.129,0,0,1-2.268,2.388,2.12,2.12,0,0,1-2.256-2.388V-8h-1.008v4.9A2.971,2.971,0,0,0,139.272.144Zm7.74,0c2.16,0,2.952-1.2,2.952-2.352,0-2.988-4.74-1.956-4.74-3.756,0-.756.7-1.272,1.644-1.272a3.02,3.02,0,0,1,2.316.96l.6-.732a3.761,3.761,0,0,0-2.832-1.128c-1.584,0-2.76.912-2.76,2.232,0,2.856,4.74,1.7,4.74,3.768,0,.624-.456,1.392-1.884,1.392A3.3,3.3,0,0,1,144.54-1.9l-.6.768A3.982,3.982,0,0,0,147.012.144ZM158.184,0l-3.216-8h-1.236L150.5,0h1.14l.708-1.788h3.984L157.044,0Zm-2.136-2.664h-3.4l1.692-4.32Z" transform="translate(889 1720)"/></g><rect class="ak" width="0.397" height="32.278" transform="translate(-2222.57 -154)"/><rect class="al" width="9.477" height="8.086" transform="translate(-2274.815 -142.213)"/><path class="aj" d="M421.785,61.18l-.788.808,2.424,2.49H416.54V65.63h6.881L421,68.114l.788.808,3.781-3.867Z" transform="translate(-2658.355 -202.664)"/><rect class="al" width="9.477" height="8.086" transform="translate(-2293.768 -142.213)"/><path class="aj" d="M391.871,61.18l.788.808-2.424,2.49h6.881V65.63h-6.881l2.424,2.483-.788.808-3.781-3.867Z" transform="translate(-2648.746 -202.664)"/><path class="aj" d="M2.736.114a1.964,1.964,0,0,0,1.682-.8l-.475-.437a1.384,1.384,0,0,1-1.168.6A1.612,1.612,0,0,1,1.188-2.3,1.6,1.6,0,0,1,2.774-4.066a1.352,1.352,0,0,1,1.168.589L4.418-3.9a1.964,1.964,0,0,0-1.682-.8A2.267,2.267,0,0,0,.447-2.3,2.275,2.275,0,0,0,2.736.114Zm4.693,0A2.259,2.259,0,0,0,9.7-2.3,2.251,2.251,0,0,0,7.429-4.7,2.251,2.251,0,0,0,5.158-2.3,2.259,2.259,0,0,0,7.429.114Zm0-.637A1.6,1.6,0,0,1,5.909-2.3a1.6,1.6,0,0,1,1.52-1.767A1.6,1.6,0,0,1,8.949-2.3,1.6,1.6,0,0,1,7.429-.523ZM17.11,0V-3.316c0-.921-.447-1.387-1.283-1.387a1.931,1.931,0,0,0-1.539.855A1.174,1.174,0,0,0,13.063-4.7a2.005,2.005,0,0,0-1.491.779v-.665h-.713V0h.713V-3.354a1.6,1.6,0,0,1,1.207-.713c.608,0,.845.371.845.95V0h.713V-3.363a1.578,1.578,0,0,1,1.216-.7c.6,0,.845.371.845.95V0Zm1.8.1a.527.527,0,0,0,.522-.523.527.527,0,0,0-.522-.522.527.527,0,0,0-.523.522A.527.527,0,0,0,18.914.1Zm5.4-.1V-3.154c0-1.111-.8-1.549-1.777-1.549a2.4,2.4,0,0,0-1.833.76l.333.494a1.792,1.792,0,0,1,1.406-.636c.665,0,1.159.352,1.159.959V-2.3a1.943,1.943,0,0,0-1.52-.618,1.489,1.489,0,0,0-1.6,1.511,1.525,1.525,0,0,0,1.6,1.52A1.971,1.971,0,0,0,23.6-.523V0ZM22.344-.4A1.033,1.033,0,0,1,21.2-1.406a1.032,1.032,0,0,1,1.14-1,1.551,1.551,0,0,1,1.254.561v.874A1.531,1.531,0,0,1,22.344-.4Zm5.662.513c1.207,0,2.042-.931,2.042-2.413s-.836-2.4-2.042-2.4a1.918,1.918,0,0,0-1.549.8v-.684h-.712V1.748h.712V-.694A1.918,1.918,0,0,0,28.006.114Zm-.181-.637a1.7,1.7,0,0,1-1.368-.741V-3.335a1.7,1.7,0,0,1,1.368-.732c.922,0,1.472.751,1.472,1.767S28.747-.523,27.825-.523ZM33.44.114c1.207,0,2.042-.931,2.042-2.413s-.836-2.4-2.042-2.4a1.918,1.918,0,0,0-1.549.8v-.684h-.712V1.748h.712V-.694A1.918,1.918,0,0,0,33.44.114Zm-.181-.637a1.7,1.7,0,0,1-1.368-.741V-3.335a1.7,1.7,0,0,1,1.368-.732c.922,0,1.472.751,1.472,1.767S34.181-.523,33.259-.523ZM36.926.1a.527.527,0,0,0,.523-.523.527.527,0,0,0-.523-.522.527.527,0,0,0-.522.522A.527.527,0,0,0,36.926.1Zm5.4-.1V-3.154c0-1.111-.8-1.549-1.776-1.549a2.4,2.4,0,0,0-1.834.76l.333.494a1.792,1.792,0,0,1,1.406-.636c.665,0,1.159.352,1.159.959V-2.3a1.943,1.943,0,0,0-1.52-.618,1.489,1.489,0,0,0-1.6,1.511,1.525,1.525,0,0,0,1.6,1.52,1.971,1.971,0,0,0,1.52-.637V0ZM40.356-.4a1.033,1.033,0,0,1-1.14-1.007,1.032,1.032,0,0,1,1.14-1,1.551,1.551,0,0,1,1.254.561v.874A1.531,1.531,0,0,1,40.356-.4ZM45.78.114a1.964,1.964,0,0,0,1.681-.8l-.475-.437a1.384,1.384,0,0,1-1.168.6A1.612,1.612,0,0,1,44.232-2.3a1.6,1.6,0,0,1,1.587-1.767,1.352,1.352,0,0,1,1.168.589l.475-.427a1.964,1.964,0,0,0-1.681-.8,2.267,2.267,0,0,0-2.29,2.4A2.275,2.275,0,0,0,45.78.114ZM50.4-.523c-.921,0-1.472-.76-1.472-1.776s.551-1.767,1.472-1.767a1.7,1.7,0,0,1,1.368.732v2.071A1.7,1.7,0,0,1,50.4-.523Zm-.181.637a1.918,1.918,0,0,0,1.549-.808V1.748h.713V-4.589h-.713V-3.9a1.918,1.918,0,0,0-1.549-.8c-1.206,0-2.042.912-2.042,2.4S49.01.114,50.217.114ZM57.712,0V-4.589H57v3.372a1.752,1.752,0,0,1-1.349.694c-.627,0-1.035-.238-1.035-1.045V-4.589H53.9v3.239A1.294,1.294,0,0,0,55.366.114,2.244,2.244,0,0,0,57-.646V0ZM59.5-5.244a.47.47,0,0,0,.475-.475A.478.478,0,0,0,59.5-6.2a.487.487,0,0,0-.485.485A.478.478,0,0,0,59.5-5.244ZM59.85,0V-4.589h-.712V0Zm2.138,0V-3.249a1.68,1.68,0,0,1,1.254-.732,2.353,2.353,0,0,1,.275.019v-.732a1.977,1.977,0,0,0-1.529.836v-.731h-.712V0Zm4.5.114A2.53,2.53,0,0,0,68.314-.6l-.342-.465a2,2,0,0,1-1.425.589A1.608,1.608,0,0,1,64.9-2.062h3.705v-.181A2.229,2.229,0,0,0,66.4-4.7a2.3,2.3,0,0,0-2.261,2.4A2.277,2.277,0,0,0,66.49.114Zm1.415-2.708H64.894a1.529,1.529,0,0,1,1.5-1.52A1.485,1.485,0,0,1,67.906-2.594Zm2.726.836.58-.257a.588.588,0,0,1-.247-.456c0-.931,1.833-1.054,1.833-2.489,0-.817-.7-1.473-1.862-1.473a2.5,2.5,0,0,0-2.062.969l.475.513a1.751,1.751,0,0,1,1.52-.779c.741,0,1.112.409,1.112.884,0,1.007-1.71,1.1-1.71,2.309A.977.977,0,0,0,70.632-1.758ZM70.832.1a.527.527,0,0,0,.522-.523.527.527,0,0,0-.522-.522.527.527,0,0,0-.522.522A.527.527,0,0,0,70.832.1Zm5.12.019a2.088,2.088,0,0,0,2.261-2.09A1.938,1.938,0,0,0,76.19-4a2.161,2.161,0,0,0-1.482.57v-2.2H77.8v-.7H73.919v3.411l.579.2a2.03,2.03,0,0,1,1.463-.589,1.335,1.335,0,0,1,1.453,1.368A1.368,1.368,0,0,1,75.952-.589,2.081,2.081,0,0,1,74.2-1.435L73.72-.9A2.6,2.6,0,0,0,75.952.114ZM83.448,0V-6.337h-.713V-3.9A1.918,1.918,0,0,0,81.187-4.7a2.128,2.128,0,0,0-2.042,2.413c0,1.491.845,2.4,2.042,2.4a1.932,1.932,0,0,0,1.549-.8V0Zm-2.08-.523c-.931,0-1.482-.75-1.482-1.767s.551-1.777,1.482-1.777a1.7,1.7,0,0,1,1.368.741v2.071A1.7,1.7,0,0,1,81.367-.523Zm5.7.637c1.729,0,2.423-1.739,2.423-3.278S88.8-6.432,87.067-6.432s-2.423,1.72-2.423,3.268S85.329.114,87.067.114Zm0-.7c-1.206,0-1.615-1.311-1.615-2.575s.409-2.565,1.615-2.565,1.615,1.3,1.615,2.565S88.274-.589,87.067-.589Zm5.434.7c1.4,0,2.252-.77,2.252-1.824A1.611,1.611,0,0,0,93.29-3.278,1.527,1.527,0,0,0,94.648-4.75c0-1.064-.922-1.682-2.138-1.682a2.722,2.722,0,0,0-2.175.979l.437.494a2.147,2.147,0,0,1,1.672-.77c.77,0,1.415.38,1.415,1.083,0,.731-.674,1.045-1.472,1.045-.257,0-.551,0-.656-.01v.722c.1-.009.39-.009.656-.009.931,0,1.577.332,1.577,1.121,0,.722-.561,1.188-1.482,1.188a2.2,2.2,0,0,1-1.767-.836l-.465.494A2.672,2.672,0,0,0,92.5.114Zm5.5,0a1.964,1.964,0,0,0,1.682-.8l-.475-.437a1.384,1.384,0,0,1-1.168.6A1.612,1.612,0,0,1,96.453-2.3,1.6,1.6,0,0,1,98.04-4.066a1.352,1.352,0,0,1,1.168.589l.475-.427A1.964,1.964,0,0,0,98-4.7a2.267,2.267,0,0,0-2.289,2.4A2.275,2.275,0,0,0,98,.114Zm2.536.076,2.251-6.717h-.56L99.978.19Zm5.225-.076c1.206,0,2.042-.931,2.042-2.413s-.836-2.4-2.042-2.4a1.918,1.918,0,0,0-1.549.8v-.684H103.5V1.748h.713V-.694A1.918,1.918,0,0,0,105.763.114Zm-.181-.637a1.7,1.7,0,0,1-1.368-.741V-3.335a1.7,1.7,0,0,1,1.368-.732c.922,0,1.473.751,1.473,1.767S106.5-.523,105.583-.523ZM112.518,0V-3.154c0-1.111-.8-1.549-1.776-1.549a2.4,2.4,0,0,0-1.834.76l.333.494a1.792,1.792,0,0,1,1.406-.636c.665,0,1.159.352,1.159.959V-2.3a1.943,1.943,0,0,0-1.52-.618,1.489,1.489,0,0,0-1.6,1.511,1.525,1.525,0,0,0,1.6,1.52,1.971,1.971,0,0,0,1.52-.637V0Zm-1.966-.4a1.033,1.033,0,0,1-1.14-1.007,1.032,1.032,0,0,1,1.14-1,1.551,1.551,0,0,1,1.254.561v.874A1.531,1.531,0,0,1,110.551-.4ZM115.8,1.862c1.121,0,2.194-.475,2.194-1.929V-4.589h-.713V-3.9a1.918,1.918,0,0,0-1.549-.808c-1.206,0-2.042.912-2.042,2.385A2.089,2.089,0,0,0,115.729.057a1.949,1.949,0,0,0,1.549-.817v.694a1.312,1.312,0,0,1-1.482,1.34A1.772,1.772,0,0,1,114.3.656l-.361.513A2.344,2.344,0,0,0,115.8,1.862Zm.114-2.442c-.931,0-1.482-.732-1.482-1.739s.551-1.748,1.482-1.748a1.737,1.737,0,0,1,1.368.732v2.014A1.719,1.719,0,0,1,115.909-.58ZM121.5.114A2.53,2.53,0,0,0,123.319-.6l-.342-.465a2,2,0,0,1-1.425.589,1.608,1.608,0,0,1-1.644-1.587h3.705v-.181a2.229,2.229,0,0,0-2.2-2.461,2.3,2.3,0,0,0-2.261,2.4A2.277,2.277,0,0,0,121.5.114Zm1.416-2.708H119.9a1.529,1.529,0,0,1,1.5-1.52A1.485,1.485,0,0,1,122.911-2.594Z" transform="translate(-2194.207 -135)"/><g transform="translate(-3280 -1761)"><path class="am" d="M478.986,63.65a6.623,6.623,0,0,1-1.94,4.675,6.55,6.55,0,0,1-2.146,1.43,6.593,6.593,0,1,1,0-12.172,6.351,6.351,0,0,1,2.146,1.43,6.536,6.536,0,0,1,1.457,2.119A6.623,6.623,0,0,1,478.986,63.65Z" transform="translate(602.02 1559.418)"/><path class="aj" d="M477.266,64.087a.444.444,0,0,0-.119-.291l-.576-.576a.411.411,0,0,0-.285-.119.444.444,0,0,0-.291.119L473.22,66l-1.238-1.252a.437.437,0,0,0-.291-.113.4.4,0,0,0-.285.113l-.576.576a.443.443,0,0,0-.119.291.411.411,0,0,0,.119.285l1.53,1.53.576.576a.411.411,0,0,0,.576,0l.576-.576,3.06-3.073A.437.437,0,0,0,477.266,64.087Z" transform="translate(600.349 1557.9)"/></g><path class="an" d="M725.02,61.539a.406.406,0,0,0-.078-.484.383.383,0,0,0-.3-.125.391.391,0,0,0-.187.047l-8.423,4.207a.421.421,0,0,0-.219.476.414.414,0,0,0,.406.32h3.794v3.794a.414.414,0,0,0,.32.406h.1a.414.414,0,0,0,.375-.234Z" transform="translate(-2750.804 -203.281)"/><path class="an" d="M748.513,62.048a.367.367,0,0,0-.367-.359.351.351,0,0,0-.25.109l-.734.726a4.347,4.347,0,0,0-2.974-1.194,4.285,4.285,0,0,0-4.215,3.38h0a.179.179,0,0,0,.18.18h1.116a.172.172,0,0,0,.172-.125,4.547,4.547,0,0,1,.3-.663,2.88,2.88,0,0,1,2.451-1.374,2.927,2.927,0,0,1,1.967.781l-.781.781a.336.336,0,0,0-.109.25.367.367,0,0,0,.367.359h2.513a.367.367,0,0,0,.367-.359Zm-.14,4.488a.18.18,0,0,0-.187-.18h-1.077a.172.172,0,0,0-.172.125,3.771,3.771,0,0,1-.3.656,2.864,2.864,0,0,1-2.451,1.374,2.9,2.9,0,0,1-1.959-.781l.781-.781a.352.352,0,0,0,.109-.25.359.359,0,0,0-.359-.359h-2.521a.359.359,0,0,0-.359.359v2.521a.367.367,0,0,0,.359.359.335.335,0,0,0,.25-.109l.726-.726a4.324,4.324,0,0,0,2.958,1.194,4.27,4.27,0,0,0,4.2-3.38.086.086,0,0,0,0-.023Z" transform="translate(-2757.88 -203.369)"/><path class="an" d="M771.433,67.944a.546.546,0,0,0-.156-.383l-1.655-1.647,1.647-1.639a.546.546,0,0,0,0-.781l-.781-.781a.515.515,0,0,0-.375-.156.546.546,0,0,0-.383.156l-1.647,1.639-1.639-1.639a.546.546,0,0,0-.781,0l-.781.781a.546.546,0,0,0,0,.781l1.639,1.639-1.585,1.67a.546.546,0,0,0,0,.781l.781.781a.546.546,0,0,0,.781,0l1.639-1.647,1.647,1.647a.546.546,0,0,0,.382.156.515.515,0,0,0,.375-.156l.781-.781a.547.547,0,0,0,.109-.422Z" transform="translate(-2765.72 -203.636)"/><rect class="ak" width="0.397" height="32.278" transform="translate(-1984.474 -153.855)"/><rect class="ak" width="0.397" height="32.278" transform="translate(-1909.423 -154)"/><rect class="ak" width="0.397" height="32.278" transform="translate(-1840.106 -154)"/><g transform="translate(-3268 -1761)"><path class="an" d="M817.592,65.421,812.7,60.529a.286.286,0,0,0-.211-.09.354.354,0,0,0-.12,0,.3.3,0,0,0-.188.279V67.9a.316.316,0,0,0,.188.286h.12a.316.316,0,0,0,.211-.09l1.505-1.505.911,2.153a.309.309,0,0,0,.406.166l.843-.361a.3.3,0,0,0,.158-.4l-.956-2.258h1.821a.316.316,0,0,0,.286-.188.3.3,0,0,0-.083-.279Z" transform="translate(484.014 1558.567)"/><path class="an" d="M842.455,67.527v-.805h-.6l-.2,1.068.534.534,1.068-.2v-.6Zm.6-1.407a.234.234,0,0,0,.166.068.241.241,0,0,0,.173-.068l2.573-2.573a.233.233,0,0,0,.06-.166.247.247,0,0,0-.06-.166.241.241,0,0,0-.173-.068.218.218,0,0,0-.165.068l-2.573,2.573a.233.233,0,0,0,0,.331Zm2.671-4.01a.241.241,0,0,1,.15-.06.166.166,0,0,1,.135.06l1.858,1.858a.15.15,0,0,1,.068.135.21.21,0,0,1-.068.15l-4.379,4.371-2.039.369a.406.406,0,0,1-.466-.466l.369-2.039Zm3.581.707a.805.805,0,0,0,.233-.572.752.752,0,0,0-.233-.564l-1.008-1a.791.791,0,0,0-1.136,0l-.752.752a.2.2,0,0,0-.068.15.151.151,0,0,0,.068.128l1.858,1.858a.151.151,0,0,0,.128.068.188.188,0,0,0,.151-.068Z" transform="translate(475.286 1558.56)"/><path class="an" d="M876.638,65.368c-1.075.053-1.706.241-2.112,1.3a.278.278,0,0,1-.263.173,4.114,4.114,0,0,1-.992-.609c0,1.466.7,2.751,2.323,2.751a2.157,2.157,0,0,0,2.255-2.255V66.39a1.939,1.939,0,0,1-1.21-1.022Zm4.337-4.931a.925.925,0,0,0-.624.263l-3.007,2.759a1.361,1.361,0,0,0-.444,1.007,1.494,1.494,0,0,0,2.541,1.075,21.913,21.913,0,0,0,2.255-3.585,1.677,1.677,0,0,0,.218-.752.819.819,0,0,0-.94-.767Z" transform="translate(465.381 1558.572)"/><path class="ak" d="M863.824,49.7v-.6H799.09V72.212h64.734v-.576h0Zm-21.967,0V71.643H821.05V49.7Zm-42.165,0H820.5V71.643H799.693Zm63.575,21.967H842.434V49.7h20.834Z" transform="translate(489.435 1562.9)"/></g><path class="ak" d="M857.816,42.9v31.47H369.858V42.9H857.816m.408-.4H369.45V74.778H858.257V42.5Z" transform="translate(-2639.45 -196.5)"/><g class="ao" transform="translate(-1904 -143)"><path class="aj" d="M923.572,62.44h9.968a.711.711,0,0,1,.711.711v7.088a.711.711,0,0,1-.711.711h-3.562l-4.255,2.934v-2.9H923.59a.711.711,0,0,1-.72-.711V63.151A.711.711,0,0,1,923.572,62.44Z" transform="translate(-922.87 -62.44)"/></g><g class="ao" transform="translate(-1883 -143)"><path class="aj" d="M964.315,72.283a1.43,1.43,0,0,0,1.453-1.43V63.7a1.43,1.43,0,0,0-1.43-1.43H952.872a1.419,1.419,0,0,0-1.43,1.43v7.152a1.43,1.43,0,0,0,1.43,1.43H950v1.43h17.176v-1.43Zm-5-2.523V68.194a4.854,4.854,0,0,0-4.3,1.949,4.866,4.866,0,0,1,4.3-4.2V64.41l2.861,2.669Z" transform="translate(-950 -62.27)"/></g><g class="ao" transform="translate(-1856 -143)"><ellipse class="aj" cx="2.853" cy="2.853" rx="2.853" ry="2.853" transform="translate(2.853)"/><path class="aj" d="M992.1,70.026h-1.427V68.6h-1.427v1.426H987.82v1.426h1.427v1.426h1.427V71.453H992.1Z" transform="translate(-980.677 -61.468)"/><path class="aj" d="M986.766,70.743a3.518,3.518,0,0,1,.719-2.113h-.719a11.96,11.96,0,0,0-4.871.983,1.416,1.416,0,0,0-.835,1.3v2h6.445A3.509,3.509,0,0,1,986.766,70.743Z" transform="translate(-981.06 -61.466)"/></g><g transform="translate(-3305 -1762)"><rect class="an" width="9.311" height="0.861" transform="translate(1470.669 1627)"/><g class="ao" transform="translate(1491.059 1620)"><path class="aj" d="M1050.808,62.966h1.954l-2.172,2.172.762.755,2.172-2.166v1.954h1.086v-3.8h-3.8Z" transform="translate(-1046.57 -61.88)"/><path class="aj" d="M1047.778,67.94l-2.172,2.172V68.159h-1.086v3.8h3.8V70.874h-1.954l2.172-2.172Z" transform="translate(-1044.52 -63.927)"/></g><g class="ao" transform="translate(1509.893 1620)"><rect class="aj" width="0.947" height="11.152" rx="0.474" transform="translate(0.009 0.672) rotate(-45)"/><rect class="aj" width="0.947" height="11.152" rx="0.474" transform="translate(0.67 8.555) rotate(-135)"/></g></g><g transform="translate(-3359 -1759)"><g transform="translate(1520.411 2093.315)"><rect class="c" width="80.242" height="1.459" rx="0.729"/></g><g transform="translate(1377 1651.132)"><g class="bb" transform="matrix(1, 0, 0, 1, -607.5, -126.63)"><rect class="j" width="230.605" height="467.696" rx="30" transform="translate(608.96 126.63)"/></g><rect class="ap" width="28.465" height="3.603" rx="1.802" transform="translate(101.989 16.868)"/><g class="aq" transform="translate(133.916 15.868)"><circle class="ar" cx="2.486" cy="2.486" r="2.486"/><path class="ar" d="M1.356,1.619A1.356,1.356,0,0,0,2.712.263C2.712-.486,2.1.6,1.356.6S0-.486,0,.263A1.356,1.356,0,0,0,1.356,1.619Z" transform="translate(1.13 2.26)"/></g><rect class="j" width="2.162" height="33.51" rx="1.081" transform="translate(0 96.926)"/><rect class="j" width="2.162" height="33.51" rx="1.081" transform="translate(0 139.444)"/><rect class="j" width="2.162" height="18.016" rx="1.081" transform="translate(0 63.416)"/><g transform="translate(231.326 108.096)"><rect class="j" width="2.162" height="54.048" rx="1.081" transform="translate(0 0)"/></g></g><path class="c" d="M0,20.79A20.79,20.79,0,0,1,20.79,0H43.779a1.459,1.459,0,0,1,1.459,1.459V4.742A10.942,10.942,0,0,0,56.18,15.684h93A10.942,10.942,0,0,0,160.12,4.742V1.459A1.459,1.459,0,0,1,161.579,0h22.8a20.79,20.79,0,0,1,20.79,20.79V423.461a20.79,20.79,0,0,1-20.79,20.79H20.79A20.79,20.79,0,0,1,0,423.461Z" transform="translate(1391.182 1664.288)"/><g class="as" transform="translate(1391.182 1663.288)"><g transform="translate(8.104 26.338)"><g transform="translate(0.442)"><rect class="at" width="38.495" height="4.052" rx="2" transform="translate(113.016 7.091) rotate(180)"/><rect class="at" width="19.247" height="4.052" rx="2" transform="translate(139.354 7.091) rotate(180)"/><rect class="at" width="40.521" height="4.052" rx="2" transform="translate(187.979 7.091) rotate(180)"/><circle class="at" cx="5.105" cy="5.105" r="5.105" transform="translate(10.21 10.21) rotate(180)"/><rect class="at" width="37.436" height="6.807" rx="3" transform="translate(51.049 8.508) rotate(180)"/></g><rect class="au" width="188.885" height="117.51" rx="4" transform="translate(0 18.364)"/><rect class="at" width="188.885" height="6.078" rx="3" transform="translate(0 156.187)"/><rect class="at" width="188.885" height="6.078" rx="3" transform="translate(0 170.369)"/><rect class="at" width="188.885" height="6.078" rx="3" transform="translate(0 184.551)"/><rect class="at" width="66.859" height="6.078" rx="3" transform="translate(0 198.733)"/><rect class="au" width="188.885" height="79.459" rx="4" transform="translate(0 225.124)"/><rect class="au" width="188.885" height="79.459" rx="4" transform="translate(0 324.451)"/></g></g></g><path class="j" d="M19.723,8.728,1.9-9.1a1.04,1.04,0,0,0-.783-.331A1.12,1.12,0,0,0,.7-9.342,1.116,1.116,0,0,0,0-8.314V17.867a1.116,1.116,0,0,0,.7,1.027,1.12,1.12,0,0,0,.418.087A1.107,1.107,0,0,0,1.9,18.65l5.431-5.431,3.325,7.868a1.12,1.12,0,0,0,1.462.592L15.2,20.373a1.12,1.12,0,0,0,.592-1.462l-3.5-8.286h6.65a1.116,1.116,0,0,0,1.027-.7A1.074,1.074,0,0,0,19.723,8.728Z" transform="translate(-1835 4)"/><g transform="translate(-2216.713 -108)"><g transform="translate(0.442)"><rect class="at" width="38.495" height="4.052" rx="2" transform="translate(113.016 7.091) rotate(180)"/><rect class="at" width="19.247" height="4.052" rx="2" transform="translate(139.354 7.091) rotate(180)"/><rect class="at" width="40.521" height="4.052" rx="2" transform="translate(187.979 7.091) rotate(180)"/><circle class="at" cx="5.105" cy="5.105" r="5.105" transform="translate(10.21 10.21) rotate(180)"/><rect class="at" width="37.436" height="6.807" rx="3" transform="translate(51.049 8.508) rotate(180)"/></g><rect class="au" width="188.885" height="117.51" rx="4" transform="translate(-0.286 18.373)"/><rect class="at" width="188.885" height="6.078" rx="3" transform="translate(0 147.242)"/><rect class="at" width="188.885" height="6.078" rx="3" transform="translate(0 160.628)"/><rect class="at" width="188.885" height="6.078" rx="3" transform="translate(0 174.013)"/><rect class="at" width="66.859" height="6.078" rx="3" transform="translate(0 187.399)"/><rect class="au" width="188.885" height="79.459" rx="4" transform="translate(0 210.246)"/><rect class="au" width="188.885" height="79.459" rx="4" transform="translate(0 301.762)"/><path class="j" d="M19.723,8.728,1.9-9.1a1.04,1.04,0,0,0-.783-.331A1.12,1.12,0,0,0,.7-9.342,1.116,1.116,0,0,0,0-8.314V17.867a1.116,1.116,0,0,0,.7,1.027,1.12,1.12,0,0,0,.418.087A1.107,1.107,0,0,0,1.9,18.65l5.431-5.431,3.325,7.868a1.12,1.12,0,0,0,1.462.592L15.2,20.373a1.12,1.12,0,0,0,.592-1.462l-3.5-8.286h6.65a1.116,1.116,0,0,0,1.027-.7A1.074,1.074,0,0,0,19.723,8.728Z" transform="translate(124.714 73.802)"/></g><g class="av" transform="translate(-2225 -117)"><rect class="ba" width="205" height="399"/><rect class="a" x="0.5" y="0.5" width="204" height="398"/></g><rect class="ak" width="1" height="447" transform="translate(-2270 -154)"/></g><path class="aw" d="M724.366,0h-720A4.364,4.364,0,0,0,0,4.364V29.006H728.731V4.364A4.364,4.364,0,0,0,724.366,0Z" transform="translate(7479 -348)"/><circle class="ax" cx="5.437" cy="5.437" r="5.437" transform="translate(7489.881 -339.841)"/><circle class="ay" cx="5.437" cy="5.437" r="5.437" transform="translate(7504.384 -339.841)"/><circle class="az" cx="5.437" cy="5.437" r="5.437" transform="translate(7518.887 -339.841)"/></g></svg>