<svg xmlns="http://www.w3.org/2000/svg" viewBox="0 0 68.589 45.657"><defs><style>.a{fill:none;stroke:#0265ff;stroke-width:2px;}</style></defs><g transform="translate(-308.943 -2557.054)"><path class="a" d="M116.59,93.64a1.23,1.23,0,0,1,.3,1.5,1.29,1.29,0,0,1-1.28.87h-8.29l4.36,10.33a1.3,1.3,0,0,1,0,1.06,1.36,1.36,0,0,1-.73.76l-3.85,1.63a1.3,1.3,0,0,1-1.06,0,1.38,1.38,0,0,1-.76-.74l-4.14-9.81L94.36,106a1.34,1.34,0,0,1-1,.41,1.44,1.44,0,0,1-.53-.11A1.3,1.3,0,0,1,92,105V72.39a1.31,1.31,0,0,1,.86-1.28,1.44,1.44,0,0,1,.53-.11,1.26,1.26,0,0,1,1,.42Z" transform="matrix(-0.574, -0.819, 0.819, -0.574, 338.868, 2717.399)"/><path class="a" d="M14.93,88.19a1.22,1.22,0,0,0-.3,1.49,1.29,1.29,0,0,0,1.28.87H24.2l-4.36,10.33a1.33,1.33,0,0,0,0,1.07,1.39,1.39,0,0,0,.73.76l3.85,1.63a1.39,1.39,0,0,0,1.06,0,1.41,1.41,0,0,0,.76-.74l4.14-9.81,6.78,6.77a1.34,1.34,0,0,0,1,.41,1.19,1.19,0,0,0,.52-.11,1.29,1.29,0,0,0,.87-1.28V66.94a1.29,1.29,0,0,0-.87-1.28,1.19,1.19,0,0,0-.52-.11,1.29,1.29,0,0,0-1,.41Z" transform="translate(295.504 2494.951)"/></g></svg>