<?xml version="1.0" encoding="UTF-8"?>
<svg width="674px" height="733px" viewBox="0 0 674 733" version="1.1" xmlns="http://www.w3.org/2000/svg" xmlns:xlink="http://www.w3.org/1999/xlink">
    <!-- Generator: Sketch 43.1 (39012) - http://www.bohemiancoding.com/sketch -->
    <title>Mountain Image</title>
    <desc>Created with Sketch.</desc>
    <defs></defs>
    <g id="Page-1" stroke="none" stroke-width="1" fill="none" fill-rule="evenodd">
        <g id="HeroIllustration" transform="translate(-309.000000, -437.000000)" fill-rule="nonzero">
            <g id="Mountain-Image" transform="translate(309.000000, 437.000000)">
                <path d="M0.4,11.6 L0.4,467.8 C0.4,472.2 3.1,476.2 7.3,477.8 L659.3,731.8 C664.8,733.9 671,731.1 673.1,725.6 C673.6,724.4 673.8,723.1 673.8,721.8 L673.8,223.7 C673.8,219.1 670.8,215 666.4,213.5 L14.4,1.4 C8.8,-0.4 2.8,2.6 0.9,8.2 C0.6,9.3 0.4,10.4 0.4,11.6 Z" id="Shape" fill="#F7F8F9"></path>
                <path d="M258.3,201.3 C247.1,190.5 233.5,194.8 228,210.9 C222.5,227 226.9,248.7 238.1,259.5 C249.3,270.3 262.9,266 268.4,249.9 C273.9,233.8 269.4,212 258.3,201.3 Z" id="Shape" fill="#E9ECEF"></path>
                <path d="M463.6,493.9 C453.1,456.7 436.2,402.6 431.6,364.3 C427.2,327.3 415.4,303.9 404.7,259.9 C401.6,247 396.1,232.6 382.5,232.4 C374.8,232.3 366.5,236.9 359.1,242.1 C315.1,272.5 285.5,321.4 254.4,366.1 C250,372.4 244.1,379.5 237.6,379.9 C238.6,369.1 239.5,358.1 236.8,348.8 C234.1,339.5 226.7,331.9 216.5,332.3 C202.9,332.9 189.9,346.5 179.7,358.9 C162.4,380 145.9,401.7 130.3,424.1 L116.8,449.3 C112.8,454.7 113.9,462.3 119.3,466.3 C120.2,467 121.2,467.5 122.2,467.9 L469.2,600.7 C474.1,602.6 471.7,603.3 494,610.9 C503.9,614.3 498.9,586.9 493.2,578.1 L463.6,493.9 Z" id="Shape" fill="#E9ECEF"></path>
                <path d="M185.8,339.5 C185.4,346.5 185.4,355.1 192.1,359.3 C199,363.6 206,358.2 210.4,353 C211.7,351.4 213,349.3 214.6,348.1 C218,345.4 219.2,348.1 220.6,350.9 C221.9,353.5 223.4,356.2 226.2,357.4 C229.5,358.9 232.4,357.4 235.1,355.5 C240,352.1 244.8,348.4 249.6,344.9 C251.1,343.8 249.6,341.2 248.1,342.3 L236.8,350.5 C235.3,351.6 233.9,352.8 232.3,353.7 C229.4,355.5 226,354.3 224.1,351.4 C222.2,348.5 220.9,341.5 216.2,342.8 C214.2,343.3 212.5,345.6 211.2,347.1 C208.4,350.2 206.1,353.9 202.5,356.1 C197.8,359 192.7,357.6 190.1,352.8 C187.9,348.8 188.4,343.8 188.6,339.4 C188.9,337.5 185.9,337.6 185.8,339.5 L185.8,339.5 Z" id="Shape" fill="#F7F8F9"></path>
                <path d="M327,261.2 C327.9,267.9 324.6,278.5 334.2,280 C338,280.6 341.5,278.9 344.7,277.1 C348.4,274.9 351.2,272 354.6,277 C355.5,278.4 355.9,279.7 357.2,281 C364.1,287.6 372.1,282.8 379.4,280.4 C382.9,279.2 383.9,281.6 386.4,283.5 C387.7,284.5 389.2,285.4 390.8,286 C394.6,287.5 398.8,287.7 402.8,286.6 C404.7,286.1 403.9,283.2 402,283.7 C396.9,285.1 391.4,283.9 387.4,280.5 C385.4,278.7 384.3,275.9 381.2,276.3 C377.5,276.8 374.1,279.9 370.4,280.8 C367.8,281.6 365.1,281.6 362.6,280.8 C359.1,279.6 358.4,277.3 356.8,274.3 C353.7,268.3 348.5,271.5 343.9,274.1 C338.3,277.3 330.3,279.3 329.9,270.2 C329.8,266.9 330.2,263.7 329.8,260.4 C329.5,258.5 326.7,259.3 327,261.2 L327,261.2 Z" id="Shape" fill="#F7F8F9"></path>
            </g>
        </g>
    </g>
</svg>