<svg xmlns="http://www.w3.org/2000/svg" viewBox="0 0 45.879 46.793"><defs><style>.a,.b,.d{fill:#0265ff;}.c,.d{stroke:none;}</style></defs><g transform="translate(-309.3 -2846.3)"><g transform="translate(-350.417 -44.964)"><g transform="translate(660.417 2891.964)"><g class="a" transform="translate(0)"><path class="c" d="M 14.1170015335083 45.7425422668457 C 13.83297157287598 45.7425422668457 13.57291221618652 45.69375228881836 13.32196235656738 45.5933723449707 C 12.49425220489502 45.26858139038086 11.95804214477539 44.48284149169922 11.95804214477539 43.59245300292969 L 11.95804214477539 35.56270217895508 L 8.778792381286621 35.56270217895508 C 3.745162010192871 35.56270217895508 -0.3499980866909027 31.46754264831543 -0.3499980866909027 26.43391227722168 L -0.3499980866909027 8.778791427612305 C -0.3499980866909027 6.93555212020874 0.1983019113540649 5.153512001037598 1.235611915588379 3.625311851501465 C 1.429191946983337 3.343001842498779 1.745001912117004 3.175271987915039 2.081331968307495 3.175271987915039 C 2.288771867752075 3.175271987915039 2.488231897354126 3.238662004470825 2.658131837844849 3.358591794967651 C 2.884541988372803 3.513811826705933 3.03823184967041 3.750451803207397 3.086991786956787 4.022212028503418 C 3.134781837463379 4.288591861724854 3.075331926345825 4.556811809539795 2.919581890106201 4.777451992034912 C 2.109661817550659 5.95864200592041 1.680121898651123 7.343631744384766 1.680121898651123 8.778791427612305 L 1.680121898651123 26.44278144836426 C 1.680121898651123 30.35699272155762 4.864572048187256 33.54144287109375 8.778792381286621 33.54144287109375 L 12.6450023651123 33.54144287109375 C 13.39051151275635 33.54144287109375 13.99702167510986 34.1479606628418 13.99702167510986 34.89347076416016 L 13.99702167510986 43.60131072998047 C 13.99702167510986 43.62944030761719 13.99702167510986 43.68180084228516 14.06964206695557 43.71086120605469 C 14.08773231506348 43.71809005737305 14.10852146148682 43.722412109375 14.12526226043701 43.722412109375 C 14.13855171203613 43.722412109375 14.16078186035156 43.722412109375 14.19595146179199 43.68404006958008 L 23.33994293212891 33.97239685058594 C 23.59122276306152 33.69846725463867 23.94950103759766 33.54144287109375 24.32345199584961 33.54144287109375 L 35.70040130615234 33.54144287109375 C 39.61462020874023 33.54144287109375 42.799072265625 30.35699272155762 42.799072265625 26.44278144836426 L 42.799072265625 8.787652015686035 C 42.799072265625 4.873441696166992 39.61462020874023 1.688991904258728 35.70040130615234 1.688991904258728 L 8.778792381286621 1.688991904258728 C 7.239821910858154 1.688991904258728 5.778641700744629 2.168141841888428 4.553211688995361 3.074631929397583 C 4.377111911773682 3.202711820602417 4.170961856842041 3.269521951675415 3.954751968383789 3.269521951675415 C 3.634421825408936 3.269521951675415 3.327961921691895 3.117451906204224 3.134991884231567 2.862721920013428 L 3.132921934127808 2.859991788864136 L 3.130911827087402 2.857231855392456 C 2.806641817092896 2.411351919174194 2.902462005615234 1.776171922683716 3.344511985778809 1.441301941871643 C 4.932791709899902 0.2685318887233734 6.810741901397705 -0.3499981164932251 8.778792381286621 -0.3499981164932251 L 35.70040130615234 -0.3499981164932251 C 38.14083099365234 -0.3499981164932251 40.43645095825195 0.603351891040802 42.16437149047852 2.334441900253296 C 43.88726043701172 4.060492038726807 44.83364105224609 6.349361896514893 44.82919311523438 8.77943229675293 L 44.82919311523438 26.43391227722168 C 44.82919311523438 31.46754264831543 40.73403167724609 35.56270217895508 35.70040130615234 35.56270217895508 L 24.61667442321777 35.56270217895508 L 15.684401512146 45.06474304199219 C 15.26759147644043 45.50241088867188 14.71150207519531 45.7425422668457 14.1170015335083 45.7425422668457 Z"/><path class="d" d="M 8.778793334960938 0 C 6.881153106689453 0 5.081050872802734 0.5941200256347656 3.555850982666016 1.720283508300781 C 3.263221740722656 1.941970825195313 3.201152801513672 2.358741760253906 3.413970947265625 2.651371002197266 C 3.546981811523438 2.826938629150391 3.750240325927734 2.919521331787109 3.954753875732422 2.919521331787109 C 4.091110229492188 2.919521331787109 4.228004455566406 2.878383636474609 4.345062255859375 2.793251037597656 C 5.639701843261719 1.835563659667969 7.173782348632813 1.338981628417969 8.778793334960938 1.338981628417969 L 35.70040130615234 1.338981628417969 C 39.8060417175293 1.338981628417969 43.14907073974609 4.682022094726563 43.14907073974609 8.787651062011719 L 43.14907073974609 26.44278144836426 C 43.14907073974609 30.54841232299805 39.8060417175293 33.89144134521484 35.70040130615234 33.89144134521484 L 24.32345199584961 33.89144134521484 C 24.04856109619141 33.89144134521484 23.78253173828125 34.00672149658203 23.59632110595703 34.21067047119141 L 14.4539623260498 43.9205436706543 C 14.34519386291504 44.03919982910156 14.22536849975586 44.07241058349609 14.12528419494629 44.07241058349609 C 14.04586410522461 44.07241058349609 13.97888374328613 44.051513671875 13.93965148925781 44.03582000732422 C 13.85097122192383 44.00035095214844 13.64702224731445 43.88507080078125 13.64702224731445 43.60131072998047 L 13.64702224731445 34.89346313476563 C 13.64702224731445 34.34368133544922 13.19478225708008 33.89144134521484 12.6450023651123 33.89144134521484 L 8.778793334960938 33.89144134521484 C 4.673152923583984 33.89144134521484 1.330120086669922 30.54841232299805 1.330120086669922 26.44278144836426 L 1.330120086669922 8.778793334960938 C 1.330120086669922 7.271320343017578 1.782360076904297 5.817050933837891 2.633632659912109 4.575611114501953 C 2.846450805664063 4.274112701416016 2.766643524169922 3.857341766357422 2.456283569335938 3.644523620605469 C 2.342063903808594 3.563899993896484 2.211284637451172 3.525272369384766 2.081333160400391 3.525272369384766 C 1.868267059326172 3.525272369384766 1.657394409179688 3.62908935546875 1.525203704833984 3.821872711181641 C 0.53204345703125 5.285003662109375 0 6.996433258056641 0 8.778793334960938 L 0 26.43391227722168 C 0 31.27554321289063 3.937152862548828 35.21269989013672 8.778793334960938 35.21269989013672 L 12.30804061889648 35.21269989013672 L 12.30804061889648 43.59245300292969 C 12.30804061889648 44.33731079101563 12.75141143798828 44.99350357055664 13.45194244384766 45.26840209960938 C 13.67362213134766 45.35707092285156 13.89531135559082 45.39254379272461 14.11700248718262 45.39254379272461 C 14.60471153259277 45.39254379272461 15.07469177246094 45.19745254516602 15.42938232421875 44.82502365112305 L 24.46533203125 35.21269989013672 L 35.70040130615234 35.21269989013672 C 40.54204177856445 35.21269989013672 44.47919082641602 31.27554321289063 44.47919082641602 26.43391227722168 L 44.47919082641602 8.778793334960938 C 44.48806381225586 3.937152862548828 40.54204177856445 0 35.70040130615234 0 L 8.778793334960938 0 M 8.778793334960938 -0.6999969482421875 L 35.70040130615234 -0.6999969482421875 C 38.23444366455078 -0.6999969482421875 40.6180305480957 0.2898406982421875 42.41208267211914 2.087181091308594 C 44.20110321044922 3.879482269287109 45.18381118774414 6.256401062011719 45.17919158935547 8.780071258544922 L 45.17919158935547 26.43391227722168 C 45.17919158935547 31.66053199768066 40.92702102661133 35.91270065307617 35.70040130615234 35.91270065307617 L 24.76803588867188 35.91270065307617 L 15.93941116333008 45.30447006225586 C 15.45432281494141 45.8138427734375 14.8082218170166 46.0925407409668 14.11700248718262 46.0925407409668 C 13.79219245910645 46.0925407409668 13.4809627532959 46.03393173217773 13.19197273254395 45.91834259033203 C 12.23144149780273 45.54141998291016 11.6080436706543 44.62779998779297 11.6080436706543 43.59245300292969 L 11.6080436706543 35.91270065307617 L 8.778793334960938 35.91270065307617 C 3.552173614501953 35.91270065307617 -0.6999969482421875 31.66053199768066 -0.6999969482421875 26.43391227722168 L -0.6999969482421875 8.778793334960938 C -0.6999969482421875 6.865161895751953 -0.1308097839355469 5.015140533447266 0.9460334777832031 3.428730010986328 C 1.205821990966797 3.049842834472656 1.629543304443359 2.825271606445313 2.081333160400391 2.825271606445313 C 2.357173919677734 2.825271606445313 2.622489929199219 2.908233642578125 2.849464416503906 3.065311431884766 L 2.847850799560547 3.063091278076172 C 2.412273406982422 2.464160919189453 2.540260314941406 1.611480712890625 3.133152008056641 1.162322998046875 L 3.136592864990234 1.159713745117188 L 3.140052795410156 1.157150268554688 C 4.7855224609375 -0.05780792236328125 6.735363006591797 -0.6999969482421875 8.778793334960938 -0.6999969482421875 Z M 35.70040130615234 33.19144058227539 C 39.421630859375 33.19144058227539 42.44907379150391 30.16400146484375 42.44907379150391 26.44278144836426 L 42.44907379150391 8.787651062011719 C 42.44907379150391 5.066421508789063 39.421630859375 2.038982391357422 35.70040130615234 2.038982391357422 L 8.778793334960938 2.038982391357422 C 7.315311431884766 2.038982391357422 5.926113128662109 2.494400024414063 4.7613525390625 3.356010437011719 L 4.759071350097656 3.357700347900391 L 4.756771087646484 3.359382629394531 C 4.522750854492188 3.529560089111328 4.245410919189453 3.619522094726563 3.954750061035156 3.619522094726563 C 3.676738739013672 3.619522094726563 3.406463623046875 3.533969879150391 3.18023681640625 3.380897521972656 C 3.306926727294922 3.550022125244141 3.393211364746094 3.747093200683594 3.431480407714844 3.960380554199219 C 3.495582580566406 4.317676544189453 3.416584014892578 4.677494049072266 3.209007263183594 4.97430419921875 C 2.437789916992188 6.100227355957031 2.030120849609375 7.415756225585938 2.030120849609375 8.778793334960938 L 2.030120849609375 26.44278144836426 C 2.030120849609375 30.16400146484375 5.057563781738281 33.19144058227539 8.778793334960938 33.19144058227539 L 12.6450023651123 33.19144058227539 C 13.5835018157959 33.19144058227539 14.34702110290527 33.95496368408203 14.34702110290527 34.89346313476563 L 14.34702110290527 43.01298522949219 L 23.08334922790527 33.73435211181641 C 23.40069389343262 33.38923263549805 23.85232543945313 33.19144058227539 24.32345199584961 33.19144058227539 L 35.70040130615234 33.19144058227539 Z"/></g></g></g><g transform="translate(0 -41)"><rect class="b" width="31" height="3" rx="1.5" transform="translate(317 2900)"/><rect class="b" width="18" height="3" rx="1.5" transform="translate(317 2907.201)"/></g></g></svg>