<svg xmlns="http://www.w3.org/2000/svg" viewBox="0 0 45.83 45.836"><defs><style>.a,.c{fill:#0265ff;}.b,.c{stroke:none;}</style></defs><g transform="translate(-1306.95 -2555.95)"><g class="a" transform="translate(1307 2556)"><path class="b" d="M 35.19508361816406 45.7607421875 L 2.679834127426147 45.7607421875 C 1.188384175300598 45.7607421875 -0.02499577589333057 44.54735946655273 -0.02499577589333057 43.05591201782227 L -0.02499577589333057 2.679830312728882 C -0.02499577589333057 1.188380360603333 1.188384175300598 -0.02499966882169247 2.679834127426147 -0.02499966882169247 L 35.19508361816406 -0.02499966882169247 C 36.6865234375 -0.02499966882169247 37.89990234375 1.188380360603333 37.89990234375 2.679830312728882 L 37.89990234375 12.3986701965332 C 37.89990234375 12.90501022338867 37.48797607421875 13.31695079803467 36.98163604736328 13.31695079803467 C 36.47529602050781 13.31695079803467 36.0633659362793 12.90501022338867 36.0633659362793 12.3986701965332 L 36.0633659362793 2.679830312728882 C 36.0633659362793 2.20106029510498 35.67385482788086 1.811550378799438 35.19508361816406 1.811550378799438 L 2.679834127426147 1.811550378799438 C 2.201064109802246 1.811550378799438 1.811554193496704 2.20106029510498 1.811554193496704 2.679830312728882 L 1.811554193496704 43.05591201782227 C 1.811554193496704 43.5346794128418 2.201064109802246 43.92419052124023 2.679834127426147 43.92419052124023 L 35.19508361816406 43.92419052124023 C 35.67385482788086 43.92419052124023 36.0633659362793 43.5346794128418 36.0633659362793 43.05591201782227 L 36.0633659362793 36.47246170043945 C 36.0633659362793 35.96612167358398 36.47529602050781 35.55419158935547 36.98163604736328 35.55419158935547 C 37.48797607421875 35.55419158935547 37.89990234375 35.96612167358398 37.89990234375 36.47246170043945 L 37.89990234375 43.05591201782227 C 37.89990234375 44.54735946655273 36.6865234375 45.7607421875 35.19508361816406 45.7607421875 Z"/><path class="c" d="M 35.19508361816406 45.73574066162109 C 36.66898345947266 45.73574066162109 37.87490463256836 44.52981948852539 37.87490463256836 43.05591201782227 L 37.87490463256836 36.47246170043945 C 37.87490463256836 35.98115921020508 37.47293472290039 35.57918930053711 36.98163604736328 35.57918930053711 C 36.49033355712891 35.57918930053711 36.08836364746094 35.98115921020508 36.08836364746094 36.47246170043945 L 36.08836364746094 43.05591201782227 C 36.08836364746094 43.54721069335938 35.68638610839844 43.94919204711914 35.19508361816406 43.94919204711914 L 2.679834127426147 43.94919204711914 C 2.18852424621582 43.94919204711914 1.786554217338562 43.54721069335938 1.786554217338562 43.05591201782227 L 1.786554217338562 2.679830312728882 C 1.786554217338562 2.188530445098877 2.18852424621582 1.786550283432007 2.679834127426147 1.786550283432007 L 35.19508361816406 1.786550283432007 C 35.68638610839844 1.786550283432007 36.08836364746094 2.188530445098877 36.08836364746094 2.679830312728882 L 36.08836364746094 12.3986701965332 C 36.08836364746094 12.88997077941895 36.49033355712891 13.29195022583008 36.98163604736328 13.29195022583008 C 37.47293472290039 13.29195022583008 37.87490463256836 12.88997077941895 37.87490463256836 12.3986701965332 L 37.87490463256836 2.679830312728882 C 37.87490463256836 1.205920338630676 36.66898345947266 3.308105362975766e-07 35.19508361816406 3.308105362975766e-07 L 2.679834127426147 3.308105362975766e-07 C 1.205924272537231 3.308105362975766e-07 4.223632913635811e-06 1.205920338630676 4.223632913635811e-06 2.679830312728882 L 4.223632913635811e-06 43.05591201782227 C 4.223632913635811e-06 44.52981948852539 1.205924272537231 45.73574066162109 2.679834127426147 45.73574066162109 L 35.19508361816406 45.73574066162109 M 35.19508361816406 45.78573989868164 L 2.679834127426147 45.78573989868164 C 1.174604177474976 45.78573989868164 -0.0499957762658596 44.56114196777344 -0.0499957762658596 43.05591201782227 L -0.0499957762658596 2.679830312728882 C -0.0499957762658596 1.17460036277771 1.174604177474976 -0.0499996691942215 2.679834127426147 -0.0499996691942215 L 35.19508361816406 -0.0499996691942215 C 36.70031356811523 -0.0499996691942215 37.92490386962891 1.17460036277771 37.92490386962891 2.679830312728882 L 37.92490386962891 12.3986701965332 C 37.92490386962891 12.91880035400391 37.50175476074219 13.34195041656494 36.98163604736328 13.34195041656494 C 36.46151351928711 13.34195041656494 36.03836441040039 12.91880035400391 36.03836441040039 12.3986701965332 L 36.03836441040039 2.679830312728882 C 36.03836441040039 2.214840412139893 35.66007232666016 1.836550354957581 35.19508361816406 1.836550354957581 L 2.679834127426147 1.836550354957581 C 2.214844226837158 1.836550354957581 1.836554169654846 2.214840412139893 1.836554169654846 2.679830312728882 L 1.836554169654846 43.05591201782227 C 1.836554169654846 43.52090072631836 2.214844226837158 43.89918899536133 2.679834127426147 43.89918899536133 L 35.19508361816406 43.89918899536133 C 35.66007232666016 43.89918899536133 36.03836441040039 43.52090072631836 36.03836441040039 43.05591201782227 L 36.03836441040039 36.47246170043945 C 36.03836441040039 35.95233917236328 36.46151351928711 35.52919006347656 36.98163604736328 35.52919006347656 C 37.50175476074219 35.52919006347656 37.92490386962891 35.95233917236328 37.92490386962891 36.47246170043945 L 37.92490386962891 43.05591201782227 C 37.92490386962891 44.56114196777344 36.70031356811523 45.78573989868164 35.19508361816406 45.78573989868164 Z"/></g><g class="a" transform="translate(1197.719 2506.824)"><path class="b" d="M 128.2181396484375 70.46128082275391 C 126.1582717895508 70.46128082275391 124.1853866577148 69.69440460205078 122.6629409790039 68.30192565917969 C 122.6282119750977 68.27602386474609 122.590461730957 68.24771118164063 122.5615615844727 68.20914459228516 C 120.9188003540039 66.65919494628906 119.9749984741211 64.47439575195313 119.9749984741211 62.21814346313477 C 119.9749984741211 57.6728630065918 123.6728591918945 53.97500228881836 128.2181396484375 53.97500228881836 C 132.7634124755859 53.97500228881836 136.4612579345703 57.6728630065918 136.4612579345703 62.21814346313477 C 136.4612579345703 64.47438049316406 135.5174560546875 66.6591796875 133.8718719482422 68.21233367919922 C 133.8368682861328 68.24737548828125 133.8087921142578 68.27545166015625 133.7714385986328 68.30347442626953 C 132.25 69.69441223144531 130.2771301269531 70.46128082275391 128.2181396484375 70.46128082275391 Z M 124.3649215698242 67.32991027832031 C 125.4867630004883 68.17711639404297 126.8186111450195 68.62472534179688 128.2181396484375 68.62472534179688 C 129.6176300048828 68.62472534179688 130.9494781494141 68.17711639404297 132.0713500976563 67.32991027832031 C 131.28662109375 65.95487213134766 129.8122406005859 65.10162353515625 128.2181396484375 65.10162353515625 C 126.6240081787109 65.10162353515625 125.1496276855469 65.95487213134766 124.3649215698242 67.32991027832031 Z M 130.7940368652344 63.81612396240234 C 131.8416595458984 64.28902435302734 132.7384033203125 65.03944396972656 133.3909912109375 65.98925018310547 C 134.1982879638672 64.88848114013672 134.6247406005859 63.58534622192383 134.6247406005859 62.21814346313477 C 134.6247406005859 58.68553161621094 131.7507476806641 55.81155395507813 128.2181396484375 55.81155395507813 C 124.6934814453125 55.81155395507813 121.8114776611328 58.68559265136719 121.7936782836914 62.2182731628418 C 121.7936782836914 63.57292175292969 122.2201919555664 64.87603759765625 123.0275192260742 65.98908233642578 C 123.6800842285156 65.03937530517578 124.5767822265625 64.28900909423828 125.6243515014648 63.81612396240234 C 125.1950988769531 63.24804306030273 124.9684066772461 62.57266616821289 124.9684066772461 61.86082458496094 L 124.9684066772461 61.28020477294922 C 124.9684066772461 59.49322509765625 126.4222106933594 58.03940200805664 128.2091827392578 58.03940200805664 C 129.9961700439453 58.03940200805664 131.4499969482422 59.49322509765625 131.4499969482422 61.28020477294922 L 131.4499969482422 61.86082458496094 C 131.4499969482422 62.57266616821289 131.2232971191406 63.24804306030273 130.7940368652344 63.81612396240234 Z M 128.2181396484375 59.8759651184082 C 127.4438400268555 59.8759651184082 126.8138961791992 60.50590515136719 126.8138961791992 61.28020477294922 L 126.8138961791992 61.86082458496094 C 126.8138961791992 62.6351318359375 127.4438400268555 63.26507186889648 128.2181396484375 63.26507186889648 C 128.9924468994141 63.26507186889648 129.6223754882813 62.6351318359375 129.6223754882813 61.86082458496094 L 129.6223754882813 61.28020477294922 C 129.6223754882813 60.50590515136719 128.9924468994141 59.8759651184082 128.2181396484375 59.8759651184082 Z"/><path class="c" d="M 128.2181396484375 54 C 123.6892242431641 54 120 57.68923187255859 120 62.21814346313477 C 120 64.56745910644531 120.9915313720703 66.69345092773438 122.5815734863281 68.19415283203125 C 122.6083526611328 68.22988891601563 122.6440887451172 68.25668334960938 122.6798095703125 68.28347778320313 C 124.1447906494141 69.62339782714844 126.0921325683594 70.436279296875 128.2181396484375 70.436279296875 C 130.3441314697266 70.436279296875 132.3003997802734 69.61446380615234 133.7564392089844 68.28347778320313 C 133.7921600341797 68.25668334960938 133.8190002441406 68.22988891601563 133.8547058105469 68.19415283203125 C 135.4447326660156 66.69345092773438 136.4362487792969 64.56745910644531 136.4362487792969 62.21814346313477 C 136.4362487792969 57.68923187255859 132.7470397949219 54 128.2181396484375 54 M 133.3902130126953 66.03242492675781 C 132.7291717529297 65.05876159667969 131.8180389404297 64.29946899414063 130.7550354003906 63.82603454589844 C 131.1748809814453 63.28113174438477 131.4249877929688 62.60225296020508 131.4249877929688 61.86082458496094 L 131.4249877929688 61.28020477294922 C 131.4249877929688 59.50258636474609 129.9868316650391 58.06439971923828 128.2091827392578 58.06439971923828 C 126.4315795898438 58.06439971923828 124.993408203125 59.50258636474609 124.993408203125 61.28020477294922 L 124.993408203125 61.86082458496094 C 124.993408203125 62.60225296020508 125.2435302734375 63.28113174438477 125.6633605957031 63.82603454589844 C 124.6003723144531 64.29946899414063 123.6892242431641 65.05876159667969 123.0281982421875 66.03242492675781 C 122.2420959472656 64.96049499511719 121.7686767578125 63.64738464355469 121.7686767578125 62.21814346313477 C 121.7865447998047 58.67183685302734 124.6718292236328 55.78655242919922 128.2181396484375 55.78655242919922 C 131.7644500732422 55.78655242919922 134.6497192382813 58.67183685302734 134.6497192382813 62.21814346313477 C 134.6497192382813 63.64738464355469 134.1852111816406 64.96049499511719 133.3902130126953 66.03242492675781 M 128.2181396484375 63.29007339477539 C 127.4320373535156 63.29007339477539 126.7888946533203 62.64692306518555 126.7888946533203 61.86082458496094 L 126.7888946533203 61.28020477294922 C 126.7888946533203 60.49411392211914 127.4320373535156 59.85095977783203 128.2181396484375 59.85095977783203 C 129.0042266845703 59.85095977783203 129.6473693847656 60.49411392211914 129.6473693847656 61.28020477294922 L 129.6473693847656 61.86082458496094 C 129.6473693847656 62.64692306518555 129.0042266845703 63.29007339477539 128.2181396484375 63.29007339477539 M 128.2181396484375 68.64971923828125 C 126.7620849609375 68.64971923828125 125.4132385253906 68.15842437744141 124.3323822021484 67.33660888671875 C 125.1184539794922 65.94309997558594 126.5834350585938 65.07662200927734 128.2181396484375 65.07662200927734 C 129.8528442382813 65.07662200927734 131.3177795410156 65.94309997558594 132.1038970947266 67.33660888671875 C 131.0230102539063 68.15842437744141 129.6741638183594 68.64971923828125 128.2181396484375 68.64971923828125 M 128.2181396484375 53.95000457763672 C 132.7771911621094 53.95000457763672 136.4862670898438 57.65907287597656 136.4862670898438 62.21814346313477 C 136.4862670898438 64.48123168945313 135.5396118164063 66.67266845703125 133.8890380859375 68.23051452636719 C 133.8538360595703 68.26575469970703 133.8252258300781 68.29438781738281 133.7864379882813 68.32347106933594 C 132.2622528076172 69.71708679199219 130.2833862304688 70.48628234863281 128.2181396484375 70.48628234863281 C 126.1519927978516 70.48628234863281 124.1731414794922 69.71708679199219 122.6460571289063 68.32037353515625 C 122.61279296875 68.29570007324219 122.5748748779297 68.26727294921875 122.5442810058594 68.22771453857422 C 120.8955688476563 66.6700439453125 119.9499969482422 64.4798583984375 119.9499969482422 62.21814346313477 C 119.9499969482422 57.65907287597656 123.6590728759766 53.95000457763672 128.2181396484375 53.95000457763672 Z M 133.3915405273438 65.94606018066406 C 134.1822509765625 64.85563659667969 134.5997314453125 63.56826400756836 134.5997314453125 62.21814346313477 C 134.5997314453125 58.69932556152344 131.7369689941406 55.83655548095703 128.2181396484375 55.83655548095703 C 124.7071838378906 55.83655548095703 121.8363952636719 58.69943237304688 121.8186798095703 62.2183952331543 C 121.8186798095703 63.55599212646484 122.2362823486328 64.84333038330078 123.027099609375 65.94573974609375 C 123.6745452880859 65.01460266113281 124.556884765625 64.27677917480469 125.5857238769531 63.80622863769531 C 125.1652679443359 63.23898315429688 124.9434051513672 62.5677490234375 124.9434051513672 61.86082458496094 L 124.9434051513672 61.28020477294922 C 124.9434051513672 59.47943115234375 126.4084320068359 58.014404296875 128.2091827392578 58.014404296875 C 130.0099487304688 58.014404296875 131.4749908447266 59.47943115234375 131.4749908447266 61.28020477294922 L 131.4749908447266 61.86082458496094 C 131.4749908447266 62.56775665283203 131.2531280517578 63.23899078369141 130.8326721191406 63.80622863769531 C 131.8616333007813 64.27682495117188 132.7440490722656 65.01475524902344 133.3915405273438 65.94606018066406 Z M 128.2181396484375 63.24007415771484 C 128.9786529541016 63.24007415771484 129.5973663330078 62.62134170532227 129.5973663330078 61.86082458496094 L 129.5973663330078 61.28020477294922 C 129.5973663330078 60.51968383789063 128.9786529541016 59.90096282958984 128.2181396484375 59.90096282958984 C 127.4576263427734 59.90096282958984 126.8388824462891 60.51968383789063 126.8388824462891 61.28020477294922 L 126.8388824462891 61.86082458496094 C 126.8388824462891 62.62134170532227 127.4576263427734 63.24007415771484 128.2181396484375 63.24007415771484 Z M 132.0386810302734 67.32321166992188 C 131.2556610107422 65.96714782714844 129.7958831787109 65.12662506103516 128.2181396484375 65.12662506103516 C 126.6403503417969 65.12662506103516 125.1805725097656 65.96714782714844 124.3975982666016 67.32321166992188 C 125.5113677978516 68.15847778320313 126.8314514160156 68.59972381591797 128.2181396484375 68.59972381591797 C 129.6047973632813 68.59972381591797 130.9248809814453 68.15847778320313 132.0386810302734 67.32321166992188 Z"/></g><g class="a" transform="translate(1123.044 2157.125)"><path class="b" d="M 207.7169647216797 439.8115539550781 L 202.8932647705078 439.8115539550781 C 202.3869323730469 439.8115539550781 201.9749908447266 439.3996276855469 201.9749908447266 438.893310546875 C 201.9749908447266 438.386962890625 202.3869323730469 437.9750061035156 202.8932647705078 437.9750061035156 L 207.7169647216797 437.9750061035156 C 208.2232971191406 437.9750061035156 208.6352233886719 438.386962890625 208.6352233886719 438.893310546875 C 208.6352233886719 439.3996276855469 208.2232971191406 439.8115539550781 207.7169647216797 439.8115539550781 Z"/><path class="c" d="M 202.8932647705078 438 C 202.4019470214844 438 201.9999847412109 438.4019775390625 201.9999847412109 438.893310546875 C 201.9999847412109 439.3845825195313 202.4019470214844 439.7865600585938 202.8932647705078 439.7865600585938 L 207.7169647216797 439.7865600585938 C 208.2082672119141 439.7865600585938 208.6102294921875 439.3845825195313 208.6102294921875 438.893310546875 C 208.6102294921875 438.4019775390625 208.2082672119141 438 207.7169647216797 438 L 202.8932647705078 438 M 202.8932647705078 437.9500122070313 L 207.7169647216797 437.9500122070313 C 208.2370910644531 437.9500122070313 208.6602172851563 438.3731689453125 208.6602172851563 438.893310546875 C 208.6602172851563 439.4134216308594 208.2370910644531 439.8365478515625 207.7169647216797 439.8365478515625 L 202.8932647705078 439.8365478515625 C 202.3731384277344 439.8365478515625 201.9499816894531 439.4134216308594 201.9499816894531 438.893310546875 C 201.9499816894531 438.3731689453125 202.3731384277344 437.9500122070313 202.8932647705078 437.9500122070313 Z"/></g><g class="a" transform="translate(1203.183 2208.123)"><path class="b" d="M 127.5777816772461 383.8114929199219 L 114.8932876586914 383.8114929199219 C 114.3869476318359 383.8114929199219 113.9750061035156 383.3995666503906 113.9750061035156 382.8932495117188 C 113.9750061035156 382.3869323730469 114.3869476318359 381.9750061035156 114.8932876586914 381.9750061035156 L 127.5777816772461 381.9750061035156 C 128.0841217041016 381.9750061035156 128.4960632324219 382.3869323730469 128.4960632324219 382.8932495117188 C 128.4960632324219 383.3995666503906 128.0841217041016 383.8114929199219 127.5777816772461 383.8114929199219 Z"/><path class="c" d="M 114.8932876586914 382 C 114.4019775390625 382 114 382.4019470214844 114 382.8932495117188 C 114 383.3845520019531 114.4019775390625 383.7864990234375 114.8932876586914 383.7864990234375 L 127.5777816772461 383.7864990234375 C 128.069091796875 383.7864990234375 128.4710693359375 383.3845520019531 128.4710693359375 382.8932495117188 C 128.4710693359375 382.4019470214844 128.069091796875 382 127.5777816772461 382 L 114.8932876586914 382 M 114.8932876586914 381.9500122070313 L 127.5777816772461 381.9500122070313 C 128.0979156494141 381.9500122070313 128.5210571289063 382.3731384277344 128.5210571289063 382.8932495117188 C 128.5210571289063 383.4133605957031 128.0979156494141 383.8364868164063 127.5777816772461 383.8364868164063 L 114.8932876586914 383.8364868164063 C 114.3731536865234 383.8364868164063 113.9500122070313 383.4133605957031 113.9500122070313 382.8932495117188 C 113.9500122070313 382.3731384277344 114.3731536865234 381.9500122070313 114.8932876586914 381.9500122070313 Z"/></g><g class="a" transform="translate(1203.183 2259.121)"><path class="b" d="M 127.5777816772461 327.8115234375 L 114.8932876586914 327.8115234375 C 114.3869476318359 327.8115234375 113.9750061035156 327.3995971679688 113.9750061035156 326.8932495117188 C 113.9750061035156 326.3869018554688 114.3869476318359 325.9749755859375 114.8932876586914 325.9749755859375 L 127.5777816772461 325.9749755859375 C 128.0841217041016 325.9749755859375 128.4960632324219 326.3869018554688 128.4960632324219 326.8932495117188 C 128.4960632324219 327.3995971679688 128.0841217041016 327.8115234375 127.5777816772461 327.8115234375 Z"/><path class="c" d="M 114.8932876586914 325.9999694824219 C 114.4019775390625 325.9999694824219 114 326.4019470214844 114 326.8932495117188 C 114 327.3845825195313 114.4019775390625 327.7865295410156 114.8932876586914 327.7865295410156 L 127.5777816772461 327.7865295410156 C 128.069091796875 327.7865295410156 128.4710693359375 327.3845825195313 128.4710693359375 326.8932495117188 C 128.4710693359375 326.4019470214844 128.069091796875 325.9999694824219 127.5777816772461 325.9999694824219 L 114.8932876586914 325.9999694824219 M 114.8932876586914 325.9499816894531 L 127.5777816772461 325.9499816894531 C 128.0979156494141 325.9499816894531 128.5210571289063 326.3731079101563 128.5210571289063 326.8932495117188 C 128.5210571289063 327.4133911132813 128.0979156494141 327.8365173339844 127.5777816772461 327.8365173339844 L 114.8932876586914 327.8365173339844 C 114.3731536865234 327.8365173339844 113.9500122070313 327.4133911132813 113.9500122070313 326.8932495117188 C 113.9500122070313 326.3731079101563 114.3731536865234 325.9499816894531 114.8932876586914 325.9499816894531 Z"/></g><g class="a" transform="translate(1242.069 2310.118)"><path class="b" d="M 72.19327545166016 271.8115539550781 C 71.94467926025391 271.8115539550781 71.71315765380859 271.7169494628906 71.54136657714844 271.5451354980469 C 71.36943054199219 271.3636779785156 71.27500152587891 271.1323547363281 71.27500152587891 270.8932495117188 C 71.27500152587891 270.6446533203125 71.36959838867188 270.4131469726563 71.54136657714844 270.2413635253906 C 71.72024536132813 270.0718994140625 71.95767974853516 269.9750061035156 72.19327545166016 269.9750061035156 C 72.44191741943359 269.9750061035156 72.67343902587891 270.069580078125 72.84517669677734 270.2413635253906 C 73.01712036132813 270.4228515625 73.11154937744141 270.6541748046875 73.11154937744141 270.8932495117188 C 73.11154937744141 271.1418762207031 73.01694488525391 271.3734130859375 72.84517669677734 271.5451354980469 C 72.66632843017578 271.7146301269531 72.42889404296875 271.8115539550781 72.19327545166016 271.8115539550781 Z"/><path class="c" d="M 72.19327545166016 270 C 71.96102142333984 270 71.72876739501953 270.0982666015625 71.55905151367188 270.259033203125 C 71.38932800292969 270.4287719726563 71.29999542236328 270.6520385742188 71.29999542236328 270.8932495117188 C 71.29999542236328 271.1344604492188 71.39825439453125 271.3577575683594 71.55905151367188 271.5274658203125 C 71.72876739501953 271.6972045898438 71.95208740234375 271.7865600585938 72.19327545166016 271.7865600585938 C 72.42552947998047 271.7865600585938 72.65777587890625 271.6882934570313 72.82749938964844 271.5274658203125 C 72.99723052978516 271.3577575683594 73.0865478515625 271.1344604492188 73.0865478515625 270.8932495117188 C 73.0865478515625 270.6520385742188 72.98828887939453 270.4287719726563 72.82749938964844 270.259033203125 C 72.65777587890625 270.0892944335938 72.43447113037109 270 72.19327545166016 270 M 72.19327545166016 269.9500122070313 C 72.44860076904297 269.9500122070313 72.6864013671875 270.0471801757813 72.86286163330078 270.2236938476563 C 73.03968811035156 270.4103088378906 73.13655090332031 270.6477661132813 73.13655090332031 270.8932495117188 C 73.13655090332031 271.1485595703125 73.03934478759766 271.3863525390625 72.86284637451172 271.5628356933594 C 72.67892456054688 271.7371215820313 72.43522644042969 271.8365478515625 72.19327545166016 271.8365478515625 C 71.93799591064453 271.8365478515625 71.7001953125 271.7393493652344 71.52368927001953 271.5628051757813 C 71.34687042236328 271.376220703125 71.25 271.1387634277344 71.25 270.8932495117188 C 71.25 270.6379699707031 71.34719848632813 270.4001770019531 71.52368927001953 270.2236938476563 C 71.70764923095703 270.0494079589844 71.95134735107422 269.9500122070313 72.19327545166016 269.9500122070313 Z"/></g><g class="a" transform="translate(1242.069 2259.121)"><path class="b" d="M 72.19327545166016 327.8115234375 C 71.94468688964844 327.8115234375 71.71316528320313 327.7169189453125 71.54136657714844 327.5451354980469 C 71.36943054199219 327.3636474609375 71.27500152587891 327.13232421875 71.27500152587891 326.8932495117188 C 71.27500152587891 326.6446228027344 71.36959838867188 326.4130859375 71.54136657714844 326.2413330078125 C 71.72024536132813 326.0718688964844 71.95767974853516 325.9749755859375 72.19327545166016 325.9749755859375 C 72.44188690185547 325.9749755859375 72.67340850830078 326.0695495605469 72.84517669677734 326.2413330078125 C 73.01712036132813 326.4227905273438 73.11154937744141 326.6541442871094 73.11154937744141 326.8932495117188 C 73.11154937744141 327.141845703125 73.01694488525391 327.3733520507813 72.84517669677734 327.5451354980469 C 72.66627502441406 327.714599609375 72.42884826660156 327.8115234375 72.19327545166016 327.8115234375 Z"/><path class="c" d="M 72.19327545166016 325.9999694824219 C 71.96102142333984 325.9999694824219 71.72876739501953 326.0982360839844 71.55905151367188 326.2590026855469 C 71.38932800292969 326.4287109375 71.29999542236328 326.6520690917969 71.29999542236328 326.8932495117188 C 71.29999542236328 327.1344299316406 71.39825439453125 327.3577270507813 71.55905151367188 327.5274658203125 C 71.72876739501953 327.6971740722656 71.95208740234375 327.7865295410156 72.19327545166016 327.7865295410156 C 72.42552947998047 327.7865295410156 72.65777587890625 327.688232421875 72.82749938964844 327.5274658203125 C 72.99723052978516 327.3577270507813 73.0865478515625 327.1344299316406 73.0865478515625 326.8932495117188 C 73.0865478515625 326.6520690917969 72.98828887939453 326.4287109375 72.82749938964844 326.2590026855469 C 72.65777587890625 326.0892944335938 72.43447113037109 325.9999694824219 72.19327545166016 325.9999694824219 M 72.19327545166016 325.9499816894531 C 72.44857025146484 325.9499816894531 72.68635559082031 326.0471496582031 72.86284637451172 326.2236328125 C 73.03968048095703 326.4102478027344 73.13655090332031 326.647705078125 73.13655090332031 326.8932495117188 C 73.13655090332031 327.1485290527344 73.03934478759766 327.3863220214844 72.86286163330078 327.5628051757813 C 72.67887878417969 327.7371215820313 72.4351806640625 327.8365173339844 72.19327545166016 327.8365173339844 C 71.93801116943359 327.8365173339844 71.70021820068359 327.7393188476563 71.52369689941406 327.5628356933594 C 71.34685516357422 327.3761901855469 71.25 327.1387329101563 71.25 326.8932495117188 C 71.25 326.637939453125 71.34719848632813 326.4001159667969 71.52369689941406 326.2236328125 C 71.70764923095703 326.0493774414063 71.95134735107422 325.9499816894531 72.19327545166016 325.9499816894531 Z"/></g><g class="a" transform="translate(1242.069 2208.123)"><path class="b" d="M 72.19327545166016 383.8114929199219 C 71.94464111328125 383.8114929199219 71.71311950683594 383.7169189453125 71.54136657714844 383.545166015625 C 71.36943054199219 383.3636779785156 71.27500152587891 383.13232421875 71.27500152587891 382.8932495117188 C 71.27500152587891 382.6446838378906 71.36959838867188 382.4131469726563 71.54136657714844 382.2413330078125 C 71.72023010253906 382.0718994140625 71.95765686035156 381.9750061035156 72.19327545166016 381.9750061035156 C 72.42888641357422 381.9750061035156 72.66632080078125 382.0718994140625 72.84468841552734 382.2408447265625 C 73.01712036132813 382.4228515625 73.11154937744141 382.6542053222656 73.11154937744141 382.8932495117188 C 73.11154937744141 383.1418762207031 73.01694488525391 383.3733825683594 72.84517669677734 383.545166015625 C 72.66632080078125 383.714599609375 72.42888641357422 383.8114929199219 72.19327545166016 383.8114929199219 Z"/><path class="c" d="M 72.19327545166016 382 C 71.96102142333984 382 71.72876739501953 382.0982360839844 71.55905151367188 382.2590026855469 C 71.38932800292969 382.4287719726563 71.29999542236328 382.6520385742188 71.29999542236328 382.8932495117188 C 71.29999542236328 383.1344299316406 71.39825439453125 383.3577575683594 71.55905151367188 383.5274963378906 C 71.72876739501953 383.6972045898438 71.95208740234375 383.7864990234375 72.19327545166016 383.7864990234375 C 72.42552947998047 383.7864990234375 72.65777587890625 383.6882629394531 72.82749938964844 383.5274963378906 C 72.99723052978516 383.3577575683594 73.0865478515625 383.1344299316406 73.0865478515625 382.8932495117188 C 73.0865478515625 382.6520385742188 72.98828887939453 382.4287719726563 72.82749938964844 382.2590026855469 C 72.65777587890625 382.0982360839844 72.42552947998047 382 72.19327545166016 382 M 72.19327545166016 381.9500122070313 C 72.43521881103516 381.9500122070313 72.67891693115234 382.0494079589844 72.86187744140625 382.2226867675781 C 73.03968811035156 382.4103088378906 73.13655090332031 382.6477661132813 73.13655090332031 382.8932495117188 C 73.13655090332031 383.1485595703125 73.03934478759766 383.3863525390625 72.86286163330078 383.5628356933594 C 72.67891693115234 383.7370910644531 72.43521881103516 383.8364868164063 72.19327545166016 383.8364868164063 C 71.93795776367188 383.8364868164063 71.70016479492188 383.7393188476563 71.52369689941406 383.5628662109375 C 71.34685516357422 383.376220703125 71.25 383.1387634277344 71.25 382.8932495117188 C 71.25 382.6380004882813 71.34719848632813 382.4001770019531 71.52368927001953 382.2236633300781 C 71.70762634277344 382.0494079589844 71.95132446289063 381.9500122070313 72.19327545166016 381.9500122070313 Z"/></g><g class="a" transform="translate(1203.183 2310.118)"><path class="b" d="M 127.5777816772461 271.8115539550781 L 114.8932876586914 271.8115539550781 C 114.3869476318359 271.8115539550781 113.9750061035156 271.3995971679688 113.9750061035156 270.8932495117188 C 113.9750061035156 270.3869323730469 114.3869476318359 269.9750061035156 114.8932876586914 269.9750061035156 L 127.5777816772461 269.9750061035156 C 128.0841217041016 269.9750061035156 128.4960632324219 270.3869323730469 128.4960632324219 270.8932495117188 C 128.4960632324219 271.3995971679688 128.0841217041016 271.8115539550781 127.5777816772461 271.8115539550781 Z"/><path class="c" d="M 114.8932876586914 270 C 114.4019775390625 270 114 270.4019775390625 114 270.8932495117188 C 114 271.3845520019531 114.4019775390625 271.7865600585938 114.8932876586914 271.7865600585938 L 127.5777816772461 271.7865600585938 C 128.069091796875 271.7865600585938 128.4710693359375 271.3845520019531 128.4710693359375 270.8932495117188 C 128.4710693359375 270.4019775390625 128.069091796875 270 127.5777816772461 270 L 114.8932876586914 270 M 114.8932876586914 269.9500122070313 L 127.5777816772461 269.9500122070313 C 128.0979156494141 269.9500122070313 128.5210571289063 270.3731384277344 128.5210571289063 270.8932495117188 C 128.5210571289063 271.4133911132813 128.0979156494141 271.8365478515625 127.5777816772461 271.8365478515625 L 114.8932876586914 271.8365478515625 C 114.3731536865234 271.8365478515625 113.9500122070313 271.4133911132813 113.9500122070313 270.8932495117188 C 113.9500122070313 270.3731384277344 114.3731536865234 269.9500122070313 114.8932876586914 269.9500122070313 Z"/></g><g class="a" transform="translate(1036.032 2442.48)"><path class="b" d="M 298.4363403320313 154.4574279785156 C 298.2725830078125 154.4574279785156 298.1181945800781 154.4172668457031 297.9774169921875 154.3380737304688 C 297.6663818359375 154.1551361083984 297.4898071289063 153.8020477294922 297.5271301269531 153.4383392333984 L 298.3221435546875 146.3544158935547 C 298.3417358398438 146.2173461914063 298.3807678222656 146.1004180908203 298.4415588378906 145.9962310791016 L 309.6789245605469 126.5229110717773 C 310.1841125488281 125.6477737426758 310.9984436035156 125.021842956543 311.9719543457031 124.7604370117188 C 312.2958984375 124.6742401123047 312.6274108886719 124.6305541992188 312.9573669433594 124.6305541992188 C 313.6141357421875 124.6305541992188 314.2653198242188 124.8060607910156 314.8404541015625 125.1381149291992 C 315.7129516601563 125.6416549682617 316.3360900878906 126.4547424316406 316.594970703125 127.427604675293 C 316.8548278808594 128.4039306640625 316.7171325683594 129.4239501953125 316.2073364257813 130.2997589111328 L 304.9700012207031 149.7731018066406 C 304.8999328613281 149.8931579589844 304.8164672851563 149.9888763427734 304.7218627929688 150.0577239990234 L 298.9781494140625 154.2828369140625 C 298.8185729980469 154.3955230712891 298.6262817382813 154.4574279785156 298.4363403320313 154.4574279785156 Z M 299.9932861328125 147.9522552490234 L 299.5841979980469 151.5556488037109 L 302.5087280273438 149.4058074951172 L 299.9932861328125 147.9522552490234 Z M 300.4892883300781 146.1157989501953 L 303.849365234375 148.0560302734375 L 312.8464660644531 132.4759063720703 L 309.4863891601563 130.5357208251953 L 300.4892883300781 146.1157989501953 Z M 310.395751953125 128.9470672607422 L 313.7558288574219 130.8872375488281 L 314.6276550292969 129.3813629150391 C 314.8908081054688 128.9340209960938 314.9628295898438 128.4109802246094 314.8305969238281 127.9084701538086 C 314.6873168945313 127.3982009887695 314.36474609375 126.9784240722656 313.9223327636719 126.7268524169922 C 313.6238708496094 126.5571441650391 313.2879638671875 126.4674453735352 312.9509582519531 126.4674453735352 C 312.7828369140625 126.4674453735352 312.6140441894531 126.4894332885742 312.4492492675781 126.5328063964844 C 311.9390258789063 126.6760101318359 311.5192565917969 126.9986038208008 311.2676391601563 127.4410400390625 L 310.395751953125 128.9470672607422 Z"/><path class="c" d="M 312.9573364257813 124.6555633544922 C 312.6314392089844 124.6555480957031 312.3030090332031 124.6982269287109 311.9784240722656 124.7845764160156 C 311.013671875 125.0436401367188 310.2007751464844 125.6689147949219 309.7005615234375 126.5354156494141 L 298.463134765625 146.0088348388672 C 298.4006042480469 146.1160125732422 298.3648681640625 146.2321624755859 298.3469848632813 146.3572082519531 L 297.552001953125 153.4408874511719 C 297.5162353515625 153.7892761230469 297.6859741210938 154.1376647949219 297.9896850585938 154.3162841796875 C 298.1326293945313 154.3966979980469 298.2844848632813 154.4324035644531 298.4363403320313 154.4324035644531 C 298.6239318847656 154.4324035644531 298.8115234375 154.369873046875 298.9633483886719 154.2626953125 L 304.7071533203125 150.0375061035156 C 304.8053894042969 149.9660339355469 304.8858032226563 149.8677825927734 304.9483642578125 149.7606048583984 L 316.1857299804688 130.2871704101563 C 317.2308959960938 128.49169921875 316.6234130859375 126.1959533691406 314.8279418945313 125.1597595214844 C 314.2503356933594 124.8262939453125 313.6090698242188 124.6555786132813 312.9573364257813 124.6555633544922 M 313.7649536132813 130.92138671875 L 310.361572265625 128.9561920166016 L 311.2459106445313 127.4286804199219 C 311.5050048828125 126.9731140136719 311.9337463378906 126.6515350341797 312.44287109375 126.5086212158203 C 312.611328125 126.4642944335938 312.7818298339844 126.4424438476563 312.950927734375 126.4424438476563 C 313.2930603027344 126.4424438476563 313.6298217773438 126.5317687988281 313.9346923828125 126.7051239013672 C 314.3902587890625 126.9641723632813 314.7118225097656 127.3929595947266 314.8547668457031 127.9021148681641 C 314.98876953125 128.4112854003906 314.9172668457031 128.9383239746094 314.6492919921875 129.3938903808594 L 313.7649536132813 130.92138671875 M 303.8585205078125 148.0901794433594 L 300.4551391601563 146.1249542236328 L 309.4772338867188 130.5015716552734 L 312.880615234375 132.4667663574219 L 303.8585205078125 148.0901794433594 M 299.5529174804688 151.6096801757813 L 299.9727478027344 147.9114990234375 L 302.5543518066406 149.4032897949219 L 299.5529174804688 151.6096801757813 M 312.9572448730469 124.6055603027344 L 312.9573669433594 124.6055603027344 C 313.6185913085938 124.6055908203125 314.2740783691406 124.7822570800781 314.8529357910156 125.1164703369141 C 315.7312622070313 125.6233520507813 316.3585205078125 126.4418487548828 316.619140625 127.4211730957031 C 316.8807067871094 128.4039764404297 316.7421264648438 129.4307403564453 316.2289428710938 130.3123168945313 L 304.9916687011719 149.7855987548828 C 304.9197692871094 149.9087677001953 304.833984375 150.0070495605469 304.736572265625 150.0779266357422 L 298.9929809570313 154.302978515625 C 298.8287963867188 154.4188842773438 298.6314086914063 154.482421875 298.4363403320313 154.482421875 C 298.2682495117188 154.482421875 298.1097106933594 154.4411926269531 297.9651794433594 154.35986328125 C 297.6452941894531 154.1717224121094 297.4639282226563 153.8092041015625 297.5022583007813 153.4357757568359 L 298.2973022460938 146.3516235351563 C 298.3174438476563 146.2105560302734 298.3575134277344 146.0906677246094 298.4199523925781 145.9836273193359 L 309.6572570800781 126.5104217529297 C 310.1658020019531 125.6294860839844 310.9855346679688 124.9994354248047 311.9654541015625 124.7362823486328 C 312.2915649414063 124.6495208740234 312.6252136230469 124.6055603027344 312.9572448730469 124.6055603027344 Z M 313.7467041015625 130.8531188964844 L 314.6060180664063 129.3688507080078 C 314.8658447265625 128.9271240234375 314.9369506835938 128.4108581542969 314.8064270019531 127.9148406982422 C 314.6650695800781 127.4113464355469 314.3466186523438 126.9968719482422 313.9099731445313 126.7485809326172 C 313.6152648925781 126.5810089111328 313.2836608886719 126.492431640625 312.9509582519531 126.492431640625 C 312.7850036621094 126.492431640625 312.6183471679688 126.51416015625 312.4555969238281 126.5569763183594 C 311.9521789550781 126.6982879638672 311.5377197265625 127.0167236328125 311.2893676757813 127.4533996582031 L 310.429931640625 128.9379272460938 L 313.7467041015625 130.8531188964844 Z M 312.8123168945313 132.4850616455078 L 309.4955444335938 130.5698699951172 L 300.5234375 146.1066589355469 L 303.8402099609375 148.0218811035156 L 312.8123168945313 132.4850616455078 Z M 302.4631042480469 149.4083099365234 L 300.0138244628906 147.9929809570313 L 299.6155090332031 151.5016174316406 L 302.4631042480469 149.4083099365234 Z"/></g></g></svg>